<svg width="58" height="58" viewBox="0 0 58 58" fill="none" xmlns="http://www.w3.org/2000/svg">
<g clip-path="url(#clip0_4311_48899)">
<path d="M42.8154 30.1038C45.2985 30.1016 47.7265 30.836 49.792 32.2142C51.8576 33.5924 53.4679 35.5524 54.4192 37.8461C55.3704 40.1398 55.6199 42.6641 55.136 45.0996C54.6521 47.5351 53.4566 49.7724 51.7008 51.5282C49.9449 53.2841 47.7077 54.4796 45.2721 54.9635C42.8366 55.4474 40.3123 55.1979 38.0186 54.2466C35.7249 53.2954 33.765 51.6851 32.3868 49.6195C31.0086 47.5539 30.2741 45.126 30.2763 42.6428C30.2822 39.3191 31.6051 36.1331 33.9554 33.7829C36.3056 31.4326 39.4916 30.1096 42.8154 30.1038ZM22.5335 41.4908C23.4099 41.4908 24.2665 41.7507 24.9951 42.2376C25.7238 42.7244 26.2917 43.4164 26.627 44.226C26.9624 45.0356 27.0501 45.9265 26.8792 46.786C26.7082 47.6455 26.2862 48.435 25.6666 49.0546C25.0469 49.6743 24.2574 50.0963 23.3979 50.2673C22.5385 50.4382 21.6476 50.3505 20.838 50.0151C20.0283 49.6798 19.3363 49.1119 18.8495 48.3832C18.3626 47.6546 18.1028 46.7979 18.1028 45.9216C18.1028 44.7465 18.5696 43.6195 19.4005 42.7886C20.2314 41.9577 21.3584 41.4908 22.5335 41.4908ZM47.3901 37.5475L40.6775 45.0687L37.6425 42.0004C37.4787 41.8387 37.2578 41.7481 37.0277 41.7481C36.7976 41.7481 36.5767 41.8387 36.4129 42.0004L35.1834 43.1856C35.1044 43.2525 35.0396 43.3345 34.9929 43.4268C34.9461 43.5191 34.9183 43.6199 34.9111 43.7231C34.9038 43.8263 34.9174 43.93 34.9508 44.0279C34.9843 44.1258 35.037 44.2161 35.1058 44.2933L35.1834 44.3819L39.4148 48.5468C39.7488 48.8841 40.2029 49.0753 40.6775 49.0785C40.9122 49.0854 41.1455 49.0414 41.3615 48.9496C41.5776 48.8579 41.7712 48.7205 41.9292 48.5468L49.8935 39.8293C50.0139 39.6698 50.0791 39.4753 50.0791 39.2755C50.0791 39.0756 50.0139 38.8812 49.8935 38.7216L48.6529 37.5585C48.4891 37.3969 48.2683 37.3062 48.0381 37.3062C47.808 37.3062 47.5872 37.3969 47.4234 37.5585L47.3901 37.5475ZM9.064 2.02377C9.62411 2.03781 10.1657 2.22701 10.6128 2.56477C11.0598 2.90253 11.3898 3.37187 11.5563 3.90685L12.2431 6.29946H51.3335C51.7724 6.28752 52.1981 6.44974 52.5177 6.75068C52.8374 7.05163 53.0249 7.46684 53.0394 7.90561C53.0509 8.08181 53.0283 8.25858 52.9729 8.42623L48.3428 24.6539C48.2635 25.015 48.0595 25.3366 47.7668 25.5622C46.1568 25.099 44.4906 24.8605 42.8154 24.8533C40.7465 24.8661 38.6959 25.2409 36.7563 25.961H21.4258C21.1058 25.9581 20.7884 26.0182 20.4916 26.138C20.1948 26.2578 19.9245 26.4348 19.6962 26.6591C19.4678 26.8833 19.2859 27.1503 19.1607 27.4449C19.0356 27.7394 18.9697 28.0557 18.9668 28.3758C18.964 28.6591 19.0128 28.9406 19.1108 29.2065V29.2952C19.2639 29.8137 19.5808 30.2688 20.0141 30.5923C20.4474 30.9157 20.9737 31.0902 21.5145 31.0896H29.3791C28.0755 32.6065 27.0381 34.333 26.3108 36.1961H17.704C17.1394 36.1996 16.5894 36.017 16.1389 35.6767C15.6884 35.3363 15.3626 34.8571 15.2117 34.313L7.18092 7.14131H4.77723C4.08289 7.12964 3.42146 6.84335 2.93774 6.34509C2.45402 5.84684 2.18742 5.17723 2.19631 4.48285V4.41638C2.27824 3.74888 2.60412 3.13524 3.11125 2.69355C3.61839 2.25185 4.27095 2.01329 4.94338 2.02377H9.064Z" fill="black"/>
<path d="M42.8146 30.1016C45.2977 30.0994 47.7257 30.8338 49.7913 32.212C51.8568 33.5902 53.4671 35.5502 54.4184 37.8439C55.3697 40.1376 55.6191 42.6619 55.1352 45.0974C54.6513 47.5329 53.4558 49.7702 51.7 51.526C49.9441 53.2819 47.7069 54.4774 45.2714 54.9613C42.8359 55.4452 40.3115 55.1957 38.0178 54.2444C35.7241 53.2932 33.7642 51.6829 32.386 49.6173C31.0078 47.5517 30.2733 45.1238 30.2755 42.6406C30.2814 39.3169 31.6043 36.1309 33.9546 33.7806C36.3049 31.4304 39.4908 30.1074 42.8146 30.1016ZM47.3894 37.5453L40.6768 45.0665L37.6417 41.9982C37.4779 41.8365 37.257 41.7459 37.0269 41.7459C36.7968 41.7459 36.5759 41.8365 36.4121 41.9982L35.1826 43.1834C35.1036 43.2503 35.0389 43.3323 34.9921 43.4246C34.9453 43.5169 34.9175 43.6177 34.9103 43.7209C34.9031 43.8241 34.9166 43.9278 34.95 44.0257C34.9835 44.1236 35.0362 44.2139 35.1051 44.2911L35.1826 44.3797L39.414 48.5446C39.748 48.8819 40.2021 49.0731 40.6768 49.0763C40.9114 49.0832 41.1447 49.0392 41.3608 48.9474C41.5768 48.8556 41.7705 48.7182 41.9285 48.5446L49.8928 39.8271C50.0132 39.6676 50.0783 39.4731 50.0783 39.2733C50.0783 39.0734 50.0132 38.8789 49.8928 38.7194L48.6521 37.5563C48.4884 37.3947 48.2675 37.304 48.0374 37.304C47.8072 37.304 47.5864 37.3947 47.4226 37.5563L47.3894 37.5453Z" fill="#2871F0"/>
<circle cx="42.9805" cy="42.4844" r="9" fill="#2871F0"/>
<path d="M36.9805 42.9844L40.9805 46.9844L48.4805 38.4844" stroke="white" stroke-width="3" stroke-linecap="round"/>
</g>
<defs>
<clipPath id="clip0_4311_48899">
<rect width="57.6" height="57.6" fill="white"/>
</clipPath>
</defs>
</svg>
