<svg width="81" height="81" viewBox="0 0 81 81" fill="none" xmlns="http://www.w3.org/2000/svg">
<g clip-path="url(#clip0_4311_48707)">
<rect width="80.64" height="80.64" rx="14" fill="white" fill-opacity="0.05"/>
<g clip-path="url(#clip1_4311_48707)">
<path d="M26.422 21.9517C30.0227 18.351 34.9063 16.3281 39.9984 16.3281C45.0906 16.3281 49.9742 18.351 53.5749 21.9517C57.1756 25.5524 59.1984 30.436 59.1984 35.5281V40.3281C60.4715 40.3281 61.6924 40.8338 62.5925 41.734C63.4927 42.6342 63.9984 43.8551 63.9984 45.1281V49.9281C63.9984 51.2012 63.4927 52.4221 62.5925 53.3222C61.6924 54.2224 60.4715 54.7281 59.1984 54.7281H40.9344C40.2874 54.6818 39.665 54.4615 39.1329 54.0906C38.6007 53.7196 38.1787 53.2118 37.9114 52.6207C37.6441 52.0297 37.5415 51.3775 37.6144 50.7329C37.6872 50.0883 37.9329 49.4755 38.3254 48.959C38.7179 48.4426 39.2426 48.0418 39.8441 47.799C40.4456 47.5562 41.1016 47.4805 41.7426 47.5797C42.3836 47.679 42.9859 47.9497 43.4858 48.363C43.9857 48.7764 44.3646 49.3172 44.5824 49.9281H54.3984V37.9281C54.3984 37.2916 54.1456 36.6812 53.6955 36.2311C53.2454 35.781 52.635 35.5281 51.9984 35.5281H27.9984C27.3619 35.5281 26.7515 35.781 26.3014 36.2311C25.8513 36.6812 25.5984 37.2916 25.5984 37.9281V42.3681L24.3984 43.0641C24.0357 43.2735 23.7341 43.5742 23.5236 43.9363C23.3131 44.2984 23.201 44.7093 23.1984 45.1281C23.1927 45.7105 23.3989 46.2751 23.7787 46.7166C24.1584 47.1582 24.6858 47.4466 25.2624 47.5281L27.1824 47.5797V48.9921V51.3921H23.0544C21.7376 50.9386 20.5885 50.0979 19.7577 48.9802C18.9269 47.8624 18.4531 46.5198 18.3984 45.1281C18.4318 44.1684 18.6621 43.2258 19.075 42.3588C19.4878 41.4919 20.0744 40.719 20.7984 40.0881V35.5281C20.7984 30.436 22.8213 25.5524 26.422 21.9517Z" fill="black"/>
<path d="M44.5807 49.9281H54.3967V40.3281H59.1967C60.4697 40.3281 61.6906 40.8338 62.5908 41.734C63.491 42.6342 63.9967 43.8551 63.9967 45.1281V49.9281C63.9967 51.2012 63.491 52.4221 62.5908 53.3222C61.6906 54.2224 60.4697 54.7281 59.1967 54.7281H40.9327C40.2857 54.6818 39.6632 54.4615 39.1311 54.0906C38.599 53.7196 38.177 53.2118 37.9097 52.6207C37.6424 52.0297 37.5398 51.3775 37.6126 50.7329C37.6855 50.0884 37.9312 49.4755 38.3237 48.959C38.7162 48.4426 39.2409 48.0418 39.8424 47.799C40.4439 47.5562 41.0998 47.4805 41.7409 47.5797C42.3819 47.679 42.9841 47.9497 43.484 48.363C43.9839 48.7764 44.3628 49.3172 44.5807 49.9281Z" fill="#2871F0"/>
<path d="M35 58L32.5 63" stroke="#2871F0" stroke-width="3" stroke-linecap="round"/>
</g>
</g>
<defs>
<clipPath id="clip0_4311_48707">
<rect width="80.64" height="80.64" rx="14" fill="white"/>
</clipPath>
<clipPath id="clip1_4311_48707">
<rect width="80" height="80" fill="white" transform="translate(-0.179688 0.320312)"/>
</clipPath>
</defs>
</svg>
