<svg width="80" height="80" viewBox="0 0 80 80" fill="none" xmlns="http://www.w3.org/2000/svg">
<path d="M26.422 21.6314C30.0227 18.0307 34.9063 16.0078 39.9984 16.0078C45.0906 16.0078 49.9742 18.0307 53.5749 21.6314C57.1756 25.2321 59.1984 30.1157 59.1984 35.2078V40.0078C60.4715 40.0078 61.6924 40.5135 62.5925 41.4137C63.4927 42.3139 63.9984 43.5348 63.9984 44.8078V49.6078C63.9984 50.8809 63.4927 52.1018 62.5925 53.0019C61.6924 53.9021 60.4715 54.4078 59.1984 54.4078H40.9344C40.2874 54.3615 39.665 54.1412 39.1329 53.7702C38.6007 53.3993 38.1787 52.8915 37.9114 52.3004C37.6441 51.7094 37.5415 51.0571 37.6144 50.4126C37.6872 49.768 37.9329 49.1551 38.3254 48.6387C38.7179 48.1223 39.2426 47.7215 39.8441 47.4787C40.4456 47.2359 41.1016 47.1601 41.7426 47.2594C42.3836 47.3587 42.9859 47.6293 43.4858 48.0427C43.9857 48.4561 44.3646 48.9968 44.5824 49.6078H54.3984V37.6078C54.3984 36.9713 54.1456 36.3608 53.6955 35.9108C53.2454 35.4607 52.635 35.2078 51.9984 35.2078H27.9984C27.3619 35.2078 26.7515 35.4607 26.3014 35.9108C25.8513 36.3608 25.5984 36.9713 25.5984 37.6078V42.0478L24.3984 42.7438C24.0357 42.9532 23.7341 43.2539 23.5236 43.616C23.3131 43.9781 23.201 44.389 23.1984 44.8078C23.1927 45.3902 23.3989 45.9548 23.7787 46.3963C24.1584 46.8379 24.6858 47.1263 25.2624 47.2078L27.1824 47.2594V48.6718V51.0718H23.0544C21.7376 50.6183 20.5885 49.7776 19.7577 48.6599C18.9269 47.5421 18.4531 46.1994 18.3984 44.8078C18.4318 43.8481 18.6621 42.9055 19.075 42.0385C19.4878 41.1715 20.0744 40.3986 20.7984 39.7678V35.2078C20.7984 30.1157 22.8213 25.2321 26.422 21.6314Z" fill="black"/>
<path d="M44.5807 49.6078H54.3967V40.0078H59.1967C60.4697 40.0078 61.6906 40.5135 62.5908 41.4137C63.491 42.3139 63.9967 43.5348 63.9967 44.8078V49.6078C63.9967 50.8809 63.491 52.1018 62.5908 53.0019C61.6906 53.9021 60.4697 54.4078 59.1967 54.4078H40.9327C40.2857 54.3615 39.6632 54.1412 39.1311 53.7702C38.599 53.3993 38.177 52.8915 37.9097 52.3004C37.6424 51.7094 37.5398 51.0571 37.6126 50.4126C37.6855 49.768 37.9312 49.1551 38.3237 48.6387C38.7162 48.1223 39.2409 47.7215 39.8424 47.4787C40.4439 47.2359 41.0998 47.1601 41.7409 47.2594C42.3819 47.3587 42.9841 47.6293 43.484 48.0427C43.9839 48.4561 44.3628 48.9968 44.5807 49.6078Z" fill="#2871F0"/>
</svg>
