<svg width="65" height="16" viewBox="0 0 65 16" fill="none" xmlns="http://www.w3.org/2000/svg">
<path d="M2.62714 3.96499C1.6736 5.20326 1.4362 6.83304 1.63556 8.34445C1.8487 9.96253 2.7806 11.299 4.1191 12.1861C5.25889 12.9414 6.51825 13.3192 7.89719 13.3196C23.9587 13.3257 40.0205 13.3287 56.0825 13.3287C56.8546 13.3287 57.2918 13.3259 57.3941 13.3203C59.1254 13.2275 60.601 12.5661 61.8208 11.3361C62.5754 10.5752 63.0535 9.66467 63.255 8.60459C63.3049 8.34142 63.3359 8.01451 63.3482 7.62387C63.3617 7.18596 63.3556 6.85688 63.3298 6.63663C63.1567 5.17334 62.5212 3.97149 61.4234 3.03109C60.3579 2.11799 59.1289 1.59099 57.7364 1.45008C57.4885 1.42494 57.0518 1.41236 56.4261 1.41236C40.4656 1.41366 24.5052 1.41453 8.54513 1.41496C8.54207 1.41496 8.38358 1.41236 8.06967 1.40716C5.94879 1.37334 3.92235 2.28318 2.62714 3.96499Z" stroke="#F3F3F3" stroke-width="0.130069"/>
<path d="M63.021 6.65325C62.7554 3.93479 60.4155 2.05722 57.77 1.73725C57.5086 1.7056 57.0718 1.68956 56.4597 1.68913C40.5617 1.68696 24.6639 1.68696 8.76626 1.68913C8.06455 1.68913 7.62756 1.6952 7.45531 1.70734C4.68125 1.90244 2.09803 3.88666 1.89408 6.76642C1.8626 7.21126 1.86566 7.64461 1.90326 8.06647C2.16164 10.9794 4.80454 12.8791 7.58647 13.0417C7.70626 13.049 8.14325 13.0527 8.89742 13.0527C23.9154 13.0544 38.9333 13.0544 53.9513 13.0527C55.133 13.0527 56.0564 13.0503 56.7214 13.0456C57.2841 13.0417 57.7199 13.0159 58.029 12.9682C60.6155 12.5675 62.84 10.6302 63.0348 7.95201C63.0672 7.51107 63.0626 7.07815 63.021 6.65325Z" stroke="#F68E93" stroke-width="0.130069"/>
<path d="M7.72355 4.67919C7.76071 4.78454 7.76836 4.87321 7.7465 4.94518C7.53402 5.65189 7.17311 6.78502 6.66377 8.34456C6.53261 8.74453 6.21782 8.71852 5.8709 8.73478C5.85053 8.73569 5.83097 8.74274 5.81489 8.75496C5.79881 8.76719 5.78699 8.78398 5.78106 8.80306L5.50627 9.66543C5.48179 9.74304 5.5089 9.79355 5.58759 9.81696C5.66979 9.84124 5.77297 9.85186 5.89713 9.84883C7.59611 9.80547 9.29508 9.76536 10.9941 9.72851C11.4321 9.71897 11.6955 9.70618 11.7843 9.69014C12.5359 9.55227 13.0598 8.88436 13.2363 8.16507C13.3407 7.74147 13.2717 7.32763 13.029 6.92355C13.0189 6.90639 13.0154 6.88628 13.0192 6.86697C13.0432 6.75164 13.0944 6.66818 13.1726 6.61658C13.7996 6.20166 14.4357 5.3471 14.2462 4.57188C14.0737 3.86625 13.1818 3.6009 12.5365 3.597C11.4321 3.5905 9.76748 3.59375 7.54255 3.60676C7.53167 3.6068 7.52106 3.61027 7.51223 3.61669C7.5034 3.62311 7.4968 3.63215 7.49336 3.64253L7.21333 4.52961C7.21066 4.53824 7.20996 4.54735 7.2113 4.55628C7.21264 4.56522 7.21598 4.57374 7.22108 4.58122C7.22617 4.58871 7.23289 4.59496 7.24074 4.59954C7.2486 4.60411 7.25738 4.60688 7.26645 4.60765L7.67764 4.64407C7.68793 4.6448 7.69777 4.64852 7.70593 4.65477C7.7141 4.66101 7.72023 4.66951 7.72355 4.67919Z" stroke="#F68E93" stroke-width="0.130069"/>
<path d="M21.7601 4.82712C21.7479 4.7244 21.7091 4.6258 21.6459 4.53696C21.5826 4.44812 21.4962 4.37077 21.3914 4.30933C21.2867 4.24789 21.1658 4.20357 21.0356 4.17889C20.9054 4.15421 20.7684 4.14965 20.6325 4.16549C20.4966 4.18132 20.3644 4.21723 20.2435 4.27117C20.1226 4.32511 20.0153 4.39601 19.9278 4.47984C19.8403 4.56367 19.7743 4.65878 19.7335 4.75974C19.6927 4.8607 19.678 4.96553 19.6902 5.06825C19.7023 5.17097 19.7412 5.26957 19.8044 5.35841C19.8677 5.44725 19.9541 5.5246 20.0588 5.58604C20.1635 5.64748 20.2845 5.6918 20.4147 5.71648C20.5449 5.74116 20.6819 5.74572 20.8178 5.72988C20.9537 5.71405 21.0859 5.67814 21.2068 5.6242C21.3277 5.57026 21.435 5.49936 21.5225 5.41553C21.61 5.3317 21.676 5.23659 21.7168 5.13563C21.7575 5.03467 21.7723 4.92984 21.7601 4.82712Z" stroke="#F68E93" stroke-width="0.130069"/>
<path d="M25.7156 5.14463C25.7397 5.19449 25.7443 5.25736 25.7294 5.33323C25.6828 5.57061 25.5917 6.1917 25.2828 6.14292C24.8303 6.07095 24.3756 6.03474 23.9187 6.03431C22.4576 6.03171 21.7474 7.02414 21.6595 8.37557C21.6249 8.90583 21.8033 9.29755 22.1946 9.55076C22.817 9.95333 23.5764 9.8161 24.2309 9.58523C24.2549 9.57685 24.281 9.57659 24.3051 9.58447C24.3292 9.59236 24.3499 9.60795 24.364 9.6288C24.4539 9.76082 24.5831 9.79594 24.749 9.79594C25.4551 9.79637 26.1793 9.78705 26.9217 9.76798C26.9743 9.76645 27.0251 9.74853 27.0667 9.71676C27.1084 9.685 27.1389 9.64101 27.1538 9.59108L27.3381 8.9791C27.3409 8.9697 27.3415 8.95979 27.3399 8.95013C27.3382 8.94047 27.3344 8.9313 27.3286 8.92334C27.3229 8.91537 27.3153 8.90881 27.3066 8.90416C27.2979 8.89951 27.2883 8.89689 27.2784 8.89651C26.8233 8.87504 26.8987 8.53101 26.999 8.21559C27.3764 7.02761 27.7683 5.80257 28.1749 4.54045C28.2094 4.4325 28.1697 4.37787 28.0555 4.37657C27.2769 4.36486 26.4661 4.34101 25.6232 4.30503C25.5615 4.30243 25.4804 4.31478 25.3799 4.3421C25.3697 4.34497 25.3604 4.34987 25.3523 4.35648C25.3443 4.3631 25.3378 4.37127 25.3333 4.38047C25.2459 4.55216 25.1825 4.73317 25.1431 4.92351C25.1252 5.01109 25.161 5.05878 25.2507 5.06659L25.6533 5.10171C25.6666 5.1027 25.6794 5.1072 25.6904 5.11475C25.7013 5.1223 25.7101 5.13261 25.7156 5.14463Z" stroke="#F68E93" stroke-width="0.130069"/>
<path d="M54.9812 5.25176C54.9956 5.25568 55.009 5.26237 55.0207 5.27144C55.0325 5.28051 55.0423 5.29178 55.0496 5.3046C55.0569 5.31742 55.0616 5.33153 55.0634 5.34612C55.0651 5.36072 55.064 5.37551 55.0599 5.38963C54.7639 6.43539 54.4614 7.46447 54.1523 8.47685C54.0165 8.92039 53.9673 9.0407 53.4558 9.00753C53.4393 9.00646 53.423 9.01099 53.4096 9.02036C53.3962 9.02973 53.3865 9.04335 53.3823 9.05891C53.3155 9.30518 53.2566 9.53974 53.2059 9.76259C53.181 9.87358 53.2166 9.92995 53.3128 9.93168C54.2944 9.94989 55.2931 9.9358 56.3092 9.88941C56.3244 9.8886 56.339 9.88343 56.3513 9.87453C56.3635 9.86563 56.3728 9.85339 56.3781 9.83933L56.6588 9.07062C56.6604 9.06612 56.6609 9.06132 56.6604 9.05657C56.6598 9.05183 56.6582 9.04727 56.6556 9.04325C56.653 9.03923 56.6495 9.03586 56.6454 9.03339C56.6413 9.03091 56.6367 9.02941 56.6319 9.02899L56.4358 9.01339C56.4082 9.01078 56.3894 8.99691 56.3794 8.97176C56.2403 8.61927 56.6004 7.7478 56.7814 7.39726C56.9021 7.16379 57.27 7.11241 57.2621 7.46815C57.2516 7.96762 57.0588 8.44628 56.9158 8.91909C56.8463 9.14931 56.8212 9.31623 56.8404 9.41986C56.9748 10.13 58.417 9.93818 58.8714 9.90111C59.0092 9.89006 59.0793 9.84063 59.1226 9.71511C59.2101 9.45888 59.2761 9.25879 59.3207 9.11484C59.3217 9.11121 59.322 9.10741 59.3214 9.10366C59.3208 9.09992 59.3194 9.09634 59.3173 9.09314C59.3152 9.08994 59.3124 9.08721 59.3092 9.08512C59.3059 9.08303 59.3022 9.08163 59.2984 9.08102L59.0774 9.05046C59.0577 9.04785 59.043 9.0381 59.0334 9.02119C58.9608 8.89849 58.9434 8.78099 58.981 8.6687C59.1147 8.26808 59.2363 7.86357 59.3456 7.45514C59.4649 7.00835 59.4538 6.63245 59.0301 6.39897C58.4478 6.07835 57.8641 6.27996 57.2424 6.37426C57.225 6.37698 57.2072 6.37531 57.1905 6.36938C57.1739 6.36346 57.1591 6.35347 57.1473 6.34035C57.1356 6.32722 57.1274 6.31136 57.1233 6.29422C57.1193 6.27708 57.1197 6.25921 57.1244 6.24224L57.5946 4.55718C57.598 4.54503 57.5985 4.53226 57.5961 4.51987C57.5937 4.50747 57.5885 4.49578 57.5807 4.48571C57.573 4.47564 57.563 4.46746 57.5515 4.46181C57.54 4.45616 57.5274 4.45319 57.5146 4.45312C56.6918 4.45399 55.8814 4.45638 55.0835 4.46028C54.7831 4.46158 54.7182 4.80236 54.6822 5.06185C54.6566 5.24785 54.8691 5.22054 54.9812 5.25176Z" stroke="#F68E93" stroke-width="0.130069"/>
<path d="M53.6168 6.20547C53.6033 6.20411 53.5903 6.19996 53.5785 6.19328C53.5667 6.1866 53.5565 6.17754 53.5484 6.16669C53.5404 6.15584 53.5347 6.14345 53.5318 6.1303C53.5289 6.11715 53.5289 6.10354 53.5316 6.09036L53.6732 5.40424C53.6744 5.39875 53.6743 5.39308 53.673 5.38762C53.6717 5.38217 53.6692 5.37706 53.6657 5.37266C53.6622 5.36825 53.6578 5.36467 53.6528 5.36215C53.6477 5.35963 53.6422 5.35823 53.6365 5.35806L51.8206 5.32034C51.7799 5.31959 51.7401 5.33211 51.7074 5.35598C51.6747 5.37985 51.6508 5.41373 51.6396 5.45237C51.5867 5.63403 51.5255 5.82458 51.456 6.02402C51.3399 6.35505 50.8611 6.07085 50.6821 6.32904C50.5461 6.52588 50.4792 6.76976 50.4814 7.06068C50.4814 7.0841 50.4932 7.09667 50.5168 7.0984C50.7595 7.11661 51.0703 7.07824 50.9694 7.4587C50.8268 7.99719 50.6755 8.53351 50.5155 9.06767C50.3312 9.68225 50.5405 9.86695 51.134 9.8767C51.6883 9.88581 52.234 9.88603 52.7708 9.87735C52.807 9.87681 52.8421 9.86486 52.871 9.84322C52.8999 9.82159 52.9211 9.79141 52.9315 9.75704L53.1315 9.09303C53.1333 9.08705 53.1336 9.08075 53.1325 9.07463C53.1314 9.06852 53.1289 9.06274 53.1252 9.05777C53.1216 9.05279 53.1168 9.04875 53.1113 9.04595C53.1058 9.04315 53.0997 9.04168 53.0935 9.04165C52.6803 9.0332 52.6672 8.76656 52.7597 8.44008C52.8633 8.07198 52.9731 7.7054 53.0889 7.34034C53.1827 7.04443 53.607 7.10881 53.8319 7.11726C53.8665 7.11834 53.9004 7.10825 53.9286 7.08853C53.9567 7.06881 53.9776 7.04053 53.988 7.00801L54.2051 6.33099C54.2077 6.32325 54.2085 6.31503 54.2074 6.30695C54.2063 6.29886 54.2034 6.2911 54.1988 6.28424C54.1943 6.27738 54.1883 6.27159 54.1812 6.2673C54.1741 6.26301 54.1661 6.26033 54.1579 6.25945L53.6168 6.20547Z" stroke="#F68E93" stroke-width="0.130069"/>
<path d="M16.5126 6.89414C16.5559 7.22191 16.4057 7.4788 16.0293 7.471C15.7451 7.46493 15.4609 7.46081 15.1767 7.45864C14.4514 7.45214 13.9353 7.51197 13.5346 8.09664C13.2461 8.51806 13.1077 8.9629 13.5248 9.35442C14.1504 9.94038 15.2909 9.81681 15.9867 9.47278C16 9.46625 16.0148 9.46335 16.0297 9.46438C16.0445 9.4654 16.0589 9.47032 16.0713 9.47863C16.6038 9.83958 17.3783 9.77779 17.9993 9.75828C18.0488 9.75658 18.0967 9.74017 18.1367 9.71118C18.1767 9.68219 18.207 9.64196 18.2236 9.59569L18.4479 8.97006C18.4515 8.95989 18.4513 8.94875 18.4474 8.93863C18.4434 8.9285 18.4359 8.92005 18.4263 8.91478C18.0754 8.72618 18.1075 8.44457 18.2203 8.08883C18.3401 7.70903 18.4615 7.32944 18.5843 6.95007C18.762 6.39792 18.3462 6.10526 17.8505 6.0812C17.1055 6.04521 16.2311 6.04586 15.2272 6.08315C14.6278 6.10591 14.1104 6.28281 13.9419 6.85772C13.9371 6.87386 13.9362 6.89088 13.9392 6.90744C13.9423 6.924 13.9491 6.93965 13.9593 6.95318C13.9694 6.96671 13.9826 6.97776 13.9978 6.98545C14.013 6.99314 14.0297 6.99728 14.0468 6.99754L15.7184 7.02876C15.7312 7.02913 15.7437 7.02532 15.754 7.01791C15.7643 7.0105 15.7719 6.99991 15.7755 6.98779C15.8522 6.7361 16.1224 6.49092 16.3703 6.6418C16.449 6.68993 16.4964 6.77404 16.5126 6.89414Z" stroke="#F68E93" stroke-width="0.130069"/>
<path d="M19.1583 7.0556C19.1738 7.0626 19.1863 7.07498 19.1933 7.09042C19.2003 7.10587 19.2014 7.12331 19.1963 7.13949C19.0158 7.70877 18.8339 8.27934 18.6507 8.85122C18.5886 9.04589 18.5646 9.1881 18.5786 9.27785C18.631 9.60562 19.0324 9.76821 19.3222 9.77666C19.8692 9.79184 20.438 9.79574 21.0287 9.78837C21.0771 9.78778 21.1242 9.77235 21.1635 9.74418C21.2028 9.71602 21.2324 9.67649 21.2483 9.63099L21.4595 9.02551C21.4638 9.01313 21.4654 9.00002 21.4644 8.98699C21.4633 8.97396 21.4596 8.9613 21.4535 8.94978C21.4473 8.93825 21.4389 8.92812 21.4286 8.92001C21.4184 8.91189 21.4066 8.90596 21.3939 8.90259C20.9368 8.78033 21.0214 8.44345 21.1408 8.0773C21.3402 7.46727 21.5419 6.83838 21.7461 6.19063C21.7702 6.11476 21.742 6.0766 21.6615 6.07617L19.2967 6.07031C19.2545 6.07012 19.2133 6.08327 19.1792 6.10784C19.1451 6.13241 19.1199 6.16711 19.1071 6.20689L18.8855 6.89301C18.8823 6.90287 18.8829 6.91356 18.8871 6.92303C18.8913 6.9325 18.8989 6.9401 18.9084 6.94439L19.1583 7.0556Z" stroke="#F68E93" stroke-width="0.130069"/>
<path d="M30.6105 7.87613C30.4732 7.66758 30.3689 7.44386 30.2977 7.20496C30.2927 7.18855 30.2924 7.17108 30.2968 7.15445C30.3012 7.13782 30.3101 7.12268 30.3226 7.11066C30.4137 7.02287 30.4931 6.96173 30.5364 6.83492C30.6028 6.63894 30.6688 6.43235 30.7344 6.21513C30.7368 6.20739 30.7373 6.19922 30.7359 6.19127C30.7345 6.18331 30.7312 6.17578 30.7264 6.16928C30.7216 6.16278 30.7153 6.15749 30.708 6.15382C30.7007 6.15015 30.6927 6.14821 30.6846 6.14814C29.839 6.13557 28.9876 6.11238 28.1302 6.07856C27.9737 6.07249 27.8714 6.13037 27.8233 6.2522C27.7464 6.44904 27.6871 6.65022 27.6456 6.85573C27.6424 6.87134 27.6425 6.88746 27.6461 6.903C27.6496 6.91855 27.6565 6.93317 27.6661 6.9459C27.6758 6.95863 27.6881 6.96917 27.7022 6.97683C27.7163 6.9845 27.7319 6.9891 27.7479 6.99035C27.9158 7.00401 28.0259 7.06709 28.1046 7.22513C28.4443 7.90106 28.7821 8.57807 29.1179 9.25617C29.2713 9.56704 29.2532 9.86577 29.0634 10.1524C28.8234 10.5153 28.3545 10.3865 27.9984 10.3429C27.9758 10.34 27.9528 10.3448 27.9332 10.3566C27.9137 10.3684 27.8987 10.3865 27.8908 10.4079L27.4829 11.4973C27.4755 11.517 27.4751 11.5387 27.4819 11.5588C27.4887 11.5789 27.5023 11.5962 27.5203 11.6078C27.6309 11.6785 27.7614 11.7288 27.9118 11.7587C29.1303 11.9981 29.8615 11.3321 30.5272 10.447C31.3395 9.36825 32.182 8.31316 33.0547 7.28171C33.1355 7.18632 33.2166 7.11478 33.298 7.06709C33.5072 6.94352 33.6259 7.06189 33.7242 6.73931C33.7741 6.57543 33.8145 6.43885 33.8456 6.32959C33.877 6.21903 33.8348 6.16332 33.719 6.16245L31.3115 6.14749C31.2645 6.1471 31.2185 6.16166 31.1804 6.18904C31.1423 6.21643 31.114 6.2552 31.0997 6.29968L30.9135 6.87914C30.9078 6.89653 30.9082 6.91532 30.9146 6.93253C30.9211 6.94973 30.9331 6.96436 30.9489 6.97409L31.1082 7.07229C31.1327 7.08747 31.1428 7.10915 31.1384 7.13733C31.0925 7.44603 30.9484 7.69728 30.7062 7.89109C30.6991 7.89684 30.6909 7.90104 30.6821 7.90342C30.6732 7.9058 30.664 7.9063 30.655 7.90489C30.6459 7.90347 30.6373 7.90018 30.6296 7.89522C30.622 7.89027 30.6154 7.88376 30.6105 7.87613Z" stroke="#F68E93" stroke-width="0.130069"/>
<path d="M47.1843 7.12045C47.2893 7.02615 47.5103 6.77902 47.6624 6.92339C47.8257 7.07818 47.7182 7.45473 47.5529 7.5848C47.4847 7.63856 47.3842 7.66458 47.2512 7.66284C46.4354 7.65049 45.2792 7.50676 44.7179 8.27742C44.4693 8.61821 44.3978 9.10727 44.7152 9.42334C45.091 9.79794 45.6327 9.84737 46.177 9.86948C46.4066 9.87859 46.6348 9.86233 46.8617 9.82071C47.0427 9.78754 47.2158 9.68869 47.3975 9.6178C47.4079 9.61375 47.4191 9.61212 47.4301 9.61302C47.4411 9.61392 47.4518 9.61734 47.4611 9.623C47.7846 9.8155 48.1329 9.90525 48.5058 9.89225C48.8534 9.87989 49.1964 9.88054 49.5498 9.86428C49.601 9.86201 49.6502 9.84421 49.6909 9.81328C49.7316 9.78235 49.7618 9.73977 49.7774 9.69129L49.9905 9.03248C49.9975 9.01167 49.9901 8.99953 49.9682 8.99606C49.8135 8.972 49.5505 8.95509 49.5092 8.76909C49.4692 8.58894 49.5092 8.36457 49.5813 8.16947C49.82 7.52562 50.1256 6.79202 49.3997 6.43758C48.7511 6.12086 48.2008 6.13192 47.3896 6.14622C46.6702 6.15923 45.4884 6.15403 45.2773 7.06387C45.2749 7.07438 45.2767 7.0854 45.2823 7.09462C45.2879 7.10384 45.2969 7.11053 45.3074 7.1133C45.3861 7.13281 45.4917 7.14299 45.6242 7.14386C46.123 7.14733 46.6243 7.1469 47.128 7.14256C47.1498 7.14256 47.1686 7.13519 47.1843 7.12045Z" stroke="#F68E93" stroke-width="0.130069"/>
<path d="M36.0017 6.68615C36.4942 6.62177 36.4319 7.28968 36.2594 7.53356C36.2528 7.54289 36.2439 7.55037 36.2335 7.55527C36.2232 7.56017 36.2118 7.56232 36.2004 7.56153C35.6403 7.53031 35.0809 7.51037 34.5222 7.5017C34.0198 7.49346 33.5951 7.63632 33.248 7.93028C32.7495 8.35105 32.5876 9.31813 33.3234 9.62249C34.0959 9.94181 35.0317 9.8215 35.8535 9.61664C35.8638 9.61399 35.8746 9.61354 35.8852 9.61533C35.8959 9.61713 35.906 9.62112 35.9151 9.62704C36.1269 9.76492 36.2004 9.84361 36.4719 9.84686C36.9148 9.8525 37.3618 9.85337 37.813 9.84946C37.8401 9.84926 37.8665 9.84095 37.8887 9.82564C37.9109 9.81032 37.928 9.7887 37.9376 9.76362L38.219 9.03262C38.2258 9.01473 38.2258 8.99498 38.2189 8.97712C38.212 8.95926 38.1987 8.94452 38.1816 8.93572C38.0211 8.85334 37.9726 8.71265 38.036 8.51364C38.1833 8.05233 38.313 7.58581 38.4249 7.11409C38.4664 6.93806 38.4688 6.79693 38.4321 6.69071C38.3318 6.4013 38.0366 6.26668 37.7343 6.24131C36.9867 6.17845 36.2378 6.15395 35.4875 6.16782C34.9782 6.17693 34.661 6.20338 34.536 6.24717C34.2347 6.35296 34.0229 6.56497 33.9005 6.88321C33.8885 6.91468 33.8885 6.94936 33.9005 6.98074C33.9124 7.01212 33.9355 7.03804 33.9654 7.0536C34.0275 7.08612 34.1088 7.10173 34.2094 7.10043C34.6711 7.09609 35.1306 7.08894 35.5879 7.07897C35.6163 7.07839 35.6437 7.06858 35.6659 7.05106C35.688 7.03354 35.7037 7.00929 35.7105 6.98206C35.7547 6.8043 35.8517 6.70567 36.0017 6.68615Z" stroke="#F68E93" stroke-width="0.130069"/>
<path d="M44.3487 9.02502C44.3533 9.01358 44.3533 9.00087 44.3488 8.9895C44.3443 8.97813 44.3356 8.96896 44.3245 8.96389C44.0962 8.85918 43.891 8.74927 43.9913 8.44621C44.0783 8.18346 44.1607 7.9192 44.2385 7.65343C44.3848 7.15461 44.4969 6.71757 44.0254 6.43532C43.8982 6.35901 43.7191 6.31349 43.4883 6.29875C42.9484 6.26406 42.4187 6.31522 41.8993 6.45223C41.8905 6.45453 41.8813 6.45501 41.8723 6.45363C41.8633 6.45226 41.8547 6.44906 41.847 6.44424C41.8393 6.43942 41.8327 6.43308 41.8276 6.42561C41.8225 6.41815 41.819 6.40972 41.8173 6.40085L41.7878 6.24542C41.7834 6.22201 41.7692 6.21052 41.7452 6.21095L39.1082 6.23111C39.0805 6.23126 39.0535 6.23989 39.0308 6.25582C39.0082 6.27176 38.991 6.29424 38.9816 6.32021L38.7652 6.91853C38.7615 6.92868 38.76 6.93946 38.7607 6.95022C38.7614 6.96097 38.7642 6.97148 38.7691 6.9811C38.7741 6.99071 38.7809 6.99923 38.7892 7.00614C38.7976 7.01305 38.8072 7.01821 38.8177 7.02129L39.1292 7.11429C39.1618 7.12413 39.1895 7.14595 39.2066 7.1753C39.2236 7.20465 39.2288 7.23934 39.221 7.27232C39.1112 7.74318 38.9851 8.19214 38.8426 8.6192C38.8124 8.70981 38.7667 8.79002 38.7055 8.85983C38.6183 8.95933 38.4156 9.00681 38.3717 9.16159C38.3201 9.34542 38.2725 9.52297 38.2287 9.69423C38.2243 9.71195 38.2239 9.73045 38.2277 9.74832C38.2315 9.76619 38.2394 9.78298 38.2507 9.79739C38.262 9.81181 38.2765 9.82348 38.293 9.83152C38.3095 9.83956 38.3277 9.84377 38.3461 9.84381L41.1248 9.84771C41.1589 9.84793 41.1922 9.83743 41.22 9.81769C41.2478 9.79796 41.2686 9.77 41.2795 9.7378L41.5065 9.06989C41.511 9.0563 41.5125 9.04188 41.5109 9.02765C41.5092 9.01341 41.5044 8.99971 41.4969 8.9875C41.4893 8.9753 41.4791 8.96488 41.4671 8.95698C41.455 8.94908 41.4414 8.94389 41.4271 8.94177C41.1552 8.90015 41.0515 8.73583 41.1163 8.44881C41.1989 8.08201 41.327 7.73169 41.5006 7.39784C41.5865 7.2333 41.8376 6.9465 42.0462 7.06941C42.2005 7.16046 42.2545 7.30571 42.2082 7.50515C42.1063 7.94435 41.9819 8.3777 41.835 8.8052C41.6501 9.34369 41.7465 9.86982 42.4416 9.84511C42.9532 9.82647 43.4546 9.81498 43.9461 9.81064C43.9726 9.81026 43.9985 9.80215 44.0203 9.78733C44.0421 9.77252 44.059 9.75166 44.0687 9.7274L44.3487 9.02502Z" stroke="#F68E93" stroke-width="0.130069"/>
<path d="M10.1189 4.86213C10.0345 5.09409 9.95732 5.32886 9.88737 5.56646C9.82703 5.77197 9.74506 6.04707 10.0631 6.06593C10.3254 6.08154 10.5604 6.06615 10.7681 6.01975C11.4351 5.87082 11.5551 4.69824 10.7163 4.63776C10.4422 4.61825 10.2205 4.58378 10.1189 4.86213Z" stroke="#F68E93" stroke-width="0.130069"/>
<path d="M10.1864 8.49173C10.5097 8.26541 10.7832 7.34126 10.1405 7.29639C9.83554 7.27558 9.34566 7.18127 9.2486 7.47718C9.17908 7.68963 9.10957 7.90273 9.04005 8.11648C8.95152 8.38963 8.97119 8.59124 9.30762 8.61205C9.59683 8.63026 9.95556 8.65302 10.1864 8.49173Z" stroke="#F68E93" stroke-width="0.130069"/>
<path d="M24.8227 6.69143C24.2417 6.50088 23.9381 7.75865 23.8672 8.05066C23.7708 8.45063 23.8384 8.90262 24.3211 8.87401C24.5106 8.86295 24.6155 8.73288 24.6791 8.56964C24.8291 8.1816 24.955 7.7864 25.0569 7.38405C25.1264 7.10895 25.1126 6.78703 24.8227 6.69143Z" stroke="#F68E93" stroke-width="0.130069"/>
<path d="M15.7562 8.93729C15.8441 8.95533 15.9392 8.92105 16.0205 8.84197C16.1018 8.76289 16.1627 8.6455 16.1899 8.51561C16.2033 8.4513 16.208 8.38586 16.2038 8.32302C16.1995 8.26018 16.1864 8.20118 16.1651 8.14939C16.1439 8.09759 16.1149 8.05402 16.0798 8.02115C16.0447 7.98828 16.0043 7.96677 15.9608 7.95783C15.8729 7.93978 15.7778 7.97407 15.6965 8.05315C15.6152 8.13223 15.5543 8.24962 15.5271 8.37951C15.5137 8.44382 15.509 8.50926 15.5132 8.5721C15.5175 8.63494 15.5306 8.69394 15.5519 8.74573C15.5732 8.79753 15.6022 8.8411 15.6372 8.87397C15.6723 8.90683 15.7127 8.92835 15.7562 8.93729Z" stroke="#F68E93" stroke-width="0.130069"/>
<path d="M47.1574 9.08279L47.3646 8.42073C47.3702 8.40276 47.3721 8.38387 47.3703 8.36514C47.3685 8.34642 47.363 8.32824 47.3541 8.31162C47.3452 8.29501 47.3331 8.2803 47.3185 8.26834C47.3039 8.25637 47.287 8.24738 47.2689 8.24189L47.2289 8.22953C47.1196 8.19598 47.0009 8.20817 46.8989 8.26342C46.797 8.31866 46.7201 8.41245 46.6852 8.52414L46.6563 8.61714C46.639 8.67248 46.6325 8.73057 46.6372 8.78809C46.642 8.84561 46.6578 8.90142 46.6839 8.95234C46.71 9.00326 46.7457 9.04828 46.7892 9.08484C46.8326 9.12139 46.8829 9.14877 46.937 9.16539L46.977 9.17774C46.9952 9.18327 47.0142 9.18519 47.0331 9.1834C47.052 9.18162 47.0703 9.17616 47.0871 9.16734C47.1038 9.15853 47.1186 9.14652 47.1307 9.13201C47.1428 9.1175 47.1518 9.10078 47.1574 9.08279Z" stroke="#F68E93" stroke-width="0.130069"/>
<path d="M35.6976 8.0381C34.9697 8.29564 35.4425 9.30629 35.7698 8.93298C35.9442 8.73398 36.0205 8.49226 35.9986 8.20784C35.9875 8.05891 35.8294 7.99128 35.6976 8.0381Z" stroke="#F68E93" stroke-width="0.130069"/>
<path d="M1.64191 8.34445C1.44254 6.83304 1.67994 5.20326 2.63349 3.96499C3.9287 2.28318 5.95514 1.37334 8.07602 1.40716C8.38993 1.41236 8.54841 1.41496 8.55148 1.41496C24.5116 1.41453 40.4719 1.41366 56.4325 1.41236C57.0581 1.41236 57.4949 1.42494 57.7428 1.45008C59.1353 1.59099 60.3643 2.11799 61.4297 3.03109C62.5275 3.97149 63.163 5.17334 63.3362 6.63663C63.3619 6.85688 63.3681 7.18596 63.3545 7.62387C63.3423 8.01451 63.3112 8.34142 63.2614 8.60459C63.0598 9.66467 62.5818 10.5752 61.8271 11.3361C60.6073 12.5661 59.1318 13.2275 57.4005 13.3203C57.2981 13.3259 56.8609 13.3287 56.0888 13.3287C40.0269 13.3287 23.9651 13.3257 7.90354 13.3196C6.5246 13.3192 5.26523 12.9414 4.12544 12.1861C2.78694 11.299 1.85504 9.96253 1.64191 8.34445ZM63.0273 6.65484C62.7617 3.93637 60.4217 2.05881 57.7762 1.73884C57.5148 1.70719 57.078 1.69115 56.4659 1.69071C40.5679 1.68855 24.6701 1.68855 8.77248 1.69071C8.07077 1.69071 7.63378 1.69678 7.46153 1.70892C4.68747 1.90403 2.10425 3.88825 1.9003 6.768C1.86882 7.21284 1.87188 7.64619 1.90948 8.06806C2.16786 10.981 4.81076 12.8807 7.59269 13.0432C7.71248 13.0506 8.14947 13.0543 8.90364 13.0543C23.9216 13.056 38.9395 13.056 53.9575 13.0543C55.1392 13.0543 56.0626 13.0519 56.7276 13.0471C57.2903 13.0432 57.7262 13.0174 58.0353 12.9698C60.6218 12.5691 62.8463 10.6317 63.041 7.95359C63.0734 7.51266 63.0688 7.07974 63.0273 6.65484Z" fill="white"/>
<path d="M57.7764 1.73725C60.4219 2.05722 62.7618 3.93479 63.0274 6.65325C63.0689 7.07815 63.0735 7.51107 63.0412 7.95201C62.8464 10.6302 60.6219 12.5675 58.0354 12.9682C57.7263 13.0159 57.2904 13.0417 56.7277 13.0456C56.0627 13.0503 55.1394 13.0527 53.9576 13.0527C38.9397 13.0544 23.9217 13.0544 8.90377 13.0527C8.14959 13.0527 7.71261 13.049 7.59281 13.0417C4.81089 12.8791 2.16799 10.9794 1.9096 8.06647C1.87201 7.64461 1.86894 7.21126 1.90042 6.76642C2.10438 3.88666 4.6876 1.90244 7.46165 1.70734C7.63391 1.6952 8.0709 1.68913 8.77261 1.68913C24.6702 1.68696 40.568 1.68696 56.4661 1.68913C57.0781 1.68956 57.5149 1.7056 57.7764 1.73725ZM7.72988 4.67684C7.76704 4.78219 7.77469 4.87086 7.75283 4.94283C7.54035 5.64955 7.17944 6.78267 6.6701 8.34222C6.53894 8.74218 6.22415 8.71617 5.87723 8.73243C5.85686 8.73334 5.8373 8.74039 5.82122 8.75262C5.80514 8.76484 5.79332 8.78164 5.78738 8.80071L5.5126 9.66308C5.48812 9.74069 5.51522 9.7912 5.59392 9.81461C5.67611 9.83889 5.77929 9.84951 5.90346 9.84648C7.60243 9.80312 9.30141 9.76302 11.0004 9.72616C11.4385 9.71663 11.7019 9.70383 11.7906 9.68779C12.5422 9.54992 13.0662 8.88201 13.2426 8.16272C13.3471 7.73912 13.278 7.32528 13.0353 6.9212C13.0252 6.90404 13.0217 6.88393 13.0255 6.86462C13.0496 6.74929 13.1007 6.66583 13.179 6.61423C13.8059 6.19931 14.442 5.34475 14.2525 4.56953C14.08 3.8639 13.1881 3.59856 12.5428 3.59465C11.4385 3.58815 9.7738 3.5914 7.54887 3.60441C7.53799 3.60445 7.52739 3.60793 7.51856 3.61435C7.50973 3.62077 7.50313 3.6298 7.49969 3.64018L7.21966 4.52726C7.21698 4.53589 7.21629 4.545 7.21763 4.55394C7.21897 4.56287 7.22231 4.57139 7.22741 4.57887C7.2325 4.58636 7.23922 4.59262 7.24707 4.59719C7.25492 4.60176 7.26371 4.60453 7.27278 4.6053L7.68397 4.64172C7.69426 4.64245 7.7041 4.64617 7.71226 4.65242C7.72043 4.65867 7.72655 4.66716 7.72988 4.67684ZM21.7655 4.82096C21.7534 4.71824 21.7145 4.61965 21.6513 4.53081C21.588 4.44196 21.5016 4.36462 21.3969 4.30318C21.2922 4.24174 21.1712 4.19742 21.041 4.17274C20.9108 4.14805 20.7738 4.1435 20.6379 4.15933C20.502 4.17517 20.3698 4.21108 20.2489 4.26501C20.128 4.31895 20.0207 4.38986 19.9332 4.47369C19.8457 4.55752 19.7797 4.65263 19.7389 4.75359C19.6982 4.85455 19.6834 4.95938 19.6956 5.0621C19.7078 5.16482 19.7466 5.26341 19.8098 5.35226C19.8731 5.4411 19.9595 5.51845 20.0643 5.57988C20.169 5.64132 20.2899 5.68565 20.4201 5.71033C20.5503 5.73501 20.6873 5.73956 20.8232 5.72373C20.9591 5.70789 21.0913 5.67198 21.2122 5.61805C21.3331 5.56411 21.4404 5.4932 21.5279 5.40937C21.6154 5.32554 21.6814 5.23043 21.7222 5.12947C21.763 5.02851 21.7777 4.92368 21.7655 4.82096ZM25.7193 5.14574C25.7433 5.1956 25.7479 5.25847 25.733 5.33434C25.6865 5.57172 25.5953 6.19281 25.2864 6.14403C24.8339 6.07206 24.3792 6.03585 23.9224 6.03542C22.4612 6.03282 21.751 7.02526 21.6631 8.37669C21.6286 8.90694 21.807 9.29867 22.1983 9.55187C22.8206 9.95444 23.58 9.81721 24.2345 9.58634C24.2585 9.57796 24.2846 9.5777 24.3087 9.58559C24.3328 9.59347 24.3536 9.60907 24.3677 9.62991C24.4575 9.76193 24.5867 9.79705 24.7526 9.79705C25.4587 9.79749 26.1829 9.78816 26.9253 9.76909C26.9779 9.76756 27.0287 9.74964 27.0704 9.71788C27.1121 9.68611 27.1425 9.64212 27.1575 9.59219L27.3417 8.98021C27.3445 8.97081 27.3451 8.96091 27.3435 8.95124C27.3419 8.94158 27.338 8.93242 27.3323 8.92445C27.3265 8.91648 27.319 8.90992 27.3103 8.90527C27.3016 8.90062 27.2919 8.89801 27.2821 8.89762C26.8269 8.87615 26.9023 8.53212 27.0027 8.2167C27.38 7.02872 27.7719 5.80368 28.1785 4.54157C28.2131 4.43361 28.1733 4.37898 28.0592 4.37768C27.2805 4.36597 26.4697 4.34212 25.6268 4.30614C25.5652 4.30354 25.4841 4.31589 25.3835 4.34321C25.3734 4.34608 25.364 4.35099 25.356 4.3576C25.348 4.36421 25.3415 4.37238 25.3369 4.38158C25.2495 4.55327 25.1861 4.73429 25.1468 4.92462C25.1288 5.0122 25.1647 5.05989 25.2543 5.0677L25.657 5.10282C25.6703 5.10381 25.6831 5.10831 25.694 5.11586C25.705 5.12341 25.7137 5.13373 25.7193 5.14574ZM54.9866 5.24915C55.0009 5.25307 55.0144 5.25976 55.0261 5.26883C55.0378 5.2779 55.0477 5.28917 55.055 5.30199C55.0623 5.31481 55.067 5.32892 55.0687 5.34352C55.0705 5.35811 55.0693 5.3729 55.0653 5.38702C54.7693 6.43279 54.4667 7.46186 54.1576 8.47424C54.0219 8.91778 53.9727 9.03809 53.4612 9.00492C53.4447 9.00385 53.4283 9.00838 53.4149 9.01775C53.4015 9.02712 53.3919 9.04074 53.3877 9.0563C53.3208 9.30257 53.262 9.53713 53.2113 9.75998C53.1864 9.87097 53.222 9.92734 53.3182 9.92907C54.2997 9.94728 55.2985 9.93319 56.3146 9.8868C56.3298 9.88599 56.3444 9.88082 56.3566 9.87192C56.3689 9.86302 56.3782 9.85078 56.3834 9.83672L56.6641 9.06801C56.6657 9.06351 56.6663 9.05871 56.6658 9.05397C56.6652 9.04922 56.6636 9.04466 56.661 9.04064C56.6584 9.03662 56.6549 9.03325 56.6508 9.03078C56.6467 9.0283 56.642 9.0268 56.6372 9.02639L56.4411 9.01078C56.4136 9.00818 56.3948 8.9943 56.3847 8.96915C56.2457 8.61666 56.6057 7.74519 56.7867 7.39465C56.9074 7.16118 57.2753 7.1098 57.2674 7.46554C57.257 7.96501 57.0642 8.44367 56.9212 8.91648C56.8517 9.1467 56.8265 9.31362 56.8458 9.41725C56.9802 10.1274 58.4223 9.93558 58.8768 9.89851C59.0145 9.88745 59.0847 9.83802 59.128 9.71251C59.2154 9.45627 59.2814 9.25618 59.326 9.11223C59.3271 9.10861 59.3273 9.1048 59.3267 9.10106C59.3262 9.09731 59.3248 9.09373 59.3227 9.09053C59.3206 9.08733 59.3178 9.0846 59.3145 9.08251C59.3113 9.08042 59.3076 9.07903 59.3037 9.07841L59.0827 9.04785C59.063 9.04525 59.0484 9.03549 59.0388 9.01858C58.9662 8.89588 58.9487 8.77839 58.9863 8.66609C59.1201 8.26547 59.2416 7.86096 59.3509 7.45254C59.4703 7.00574 59.4592 6.62984 59.0355 6.39637C58.4531 6.07574 57.8695 6.27735 57.2478 6.37165C57.2303 6.37438 57.2125 6.3727 57.1959 6.36677C57.1793 6.36085 57.1644 6.35087 57.1527 6.33774C57.141 6.32461 57.1327 6.30875 57.1287 6.29161C57.1247 6.27447 57.125 6.2566 57.1297 6.23963L57.5999 4.55457C57.6034 4.54242 57.6039 4.52965 57.6015 4.51726C57.5991 4.50486 57.5938 4.49317 57.5861 4.4831C57.5783 4.47303 57.5683 4.46485 57.5569 4.4592C57.5454 4.45355 57.5328 4.45058 57.5199 4.45052C56.6971 4.45138 55.8868 4.45377 55.0889 4.45767C54.7885 4.45897 54.7236 4.79975 54.6875 5.05924C54.6619 5.24524 54.8744 5.21793 54.9866 5.24915ZM53.6231 6.19801C53.6096 6.19665 53.5966 6.19249 53.5848 6.18581C53.573 6.17913 53.5628 6.17008 53.5547 6.15923C53.5467 6.14838 53.541 6.13598 53.5381 6.12283C53.5352 6.10969 53.5352 6.09608 53.5379 6.0829L53.6795 5.39678C53.6807 5.39129 53.6806 5.38562 53.6793 5.38016C53.678 5.3747 53.6755 5.36959 53.672 5.36519C53.6685 5.36079 53.6641 5.3572 53.6591 5.35468C53.654 5.35216 53.6485 5.35077 53.6428 5.3506L51.8269 5.31288C51.7862 5.31212 51.7464 5.32465 51.7137 5.34852C51.681 5.37239 51.6571 5.40627 51.6459 5.4449C51.593 5.62657 51.5318 5.81712 51.4623 6.01656C51.3462 6.34759 50.8674 6.06339 50.6884 6.32158C50.5524 6.51842 50.4855 6.7623 50.4877 7.05322C50.4877 7.07663 50.4995 7.08921 50.5231 7.09094C50.7658 7.10915 51.0766 7.07078 50.9757 7.45124C50.8331 7.98973 50.6819 8.52605 50.5218 9.0602C50.3376 9.67479 50.5468 9.85949 51.1403 9.86924C51.6946 9.87835 52.2403 9.87856 52.7771 9.86989C52.8133 9.86934 52.8484 9.85739 52.8773 9.83576C52.9062 9.81413 52.9274 9.78395 52.9378 9.74958L53.1378 9.08557C53.1396 9.07958 53.1399 9.07329 53.1388 9.06717C53.1377 9.06105 53.1352 9.05528 53.1315 9.0503C53.1279 9.04533 53.1231 9.04128 53.1176 9.03849C53.1121 9.03569 53.106 9.03422 53.0998 9.03419C52.6866 9.02574 52.6735 8.75909 52.766 8.43262C52.8696 8.06452 52.9794 7.69794 53.0952 7.33287C53.189 7.03696 53.6133 7.10135 53.8382 7.1098C53.8728 7.11087 53.9067 7.10078 53.9349 7.08106C53.963 7.06134 53.9839 7.03307 53.9943 7.00054L54.2114 6.32353C54.214 6.31579 54.2148 6.30757 54.2137 6.29948C54.2126 6.29139 54.2097 6.28363 54.2052 6.27677C54.2006 6.26991 54.1946 6.26413 54.1875 6.25984C54.1804 6.25555 54.1724 6.25287 54.1642 6.25199L53.6231 6.19801ZM16.5177 6.88803C16.561 7.21581 16.4108 7.4727 16.0343 7.46489C15.7502 7.45882 15.466 7.4547 15.1818 7.45254C14.4565 7.44603 13.9404 7.50587 13.5397 8.09053C13.2511 8.51196 13.1127 8.9568 13.5298 9.34831C14.1555 9.93428 15.2959 9.81071 15.9917 9.46667C16.005 9.46014 16.0199 9.45724 16.0347 9.45827C16.0496 9.4593 16.0639 9.46422 16.0763 9.47253C16.6088 9.83347 17.3833 9.77169 18.0044 9.75218C18.0539 9.75048 18.1017 9.73407 18.1417 9.70508C18.1817 9.67609 18.212 9.63585 18.2287 9.58959L18.453 8.96395C18.4566 8.95378 18.4564 8.94264 18.4524 8.93252C18.4484 8.9224 18.441 8.91395 18.4313 8.90867C18.0805 8.72007 18.1126 8.43847 18.2254 8.08273C18.3452 7.70292 18.4665 7.32333 18.5894 6.94396C18.7671 6.39181 18.3513 6.09916 17.8555 6.07509C17.1105 6.03911 16.2361 6.03976 15.2323 6.07704C14.6329 6.09981 14.1155 6.2767 13.9469 6.85161C13.9422 6.86776 13.9413 6.88477 13.9443 6.90133C13.9473 6.91789 13.9542 6.93355 13.9643 6.94708C13.9745 6.96061 13.9877 6.97165 14.0028 6.97934C14.018 6.98704 14.0348 6.99118 14.0518 6.99144L15.7235 7.02265C15.7362 7.02303 15.7487 7.01921 15.7591 7.0118C15.7694 7.00439 15.7769 6.9938 15.7805 6.98168C15.8573 6.73 16.1275 6.48481 16.3754 6.6357C16.4541 6.68382 16.5015 6.76793 16.5177 6.88803ZM19.1671 7.05322C19.1827 7.06022 19.1951 7.0726 19.2021 7.08805C19.2091 7.10349 19.2102 7.12094 19.2052 7.13712C19.0246 7.70639 18.8427 8.27696 18.6595 8.84884C18.5974 9.04351 18.5734 9.18572 18.5874 9.27547C18.6399 9.60325 19.0412 9.76583 19.3311 9.77429C19.878 9.78946 20.4468 9.79337 21.0375 9.786C21.0859 9.7854 21.133 9.76997 21.1723 9.74181C21.2116 9.71364 21.2413 9.67411 21.2572 9.62861L21.4683 9.02313C21.4726 9.01075 21.4742 8.99764 21.4732 8.98461C21.4722 8.97159 21.4685 8.95892 21.4623 8.9474C21.4562 8.93588 21.4477 8.92575 21.4375 8.91763C21.4272 8.90951 21.4154 8.90359 21.4028 8.90022C20.9457 8.77795 21.0303 8.44107 21.1496 8.07492C21.349 7.46489 21.5508 6.836 21.7549 6.18825C21.779 6.11238 21.7508 6.07423 21.6703 6.07379L19.3055 6.06794C19.2633 6.06775 19.2221 6.0809 19.188 6.10547C19.1539 6.13003 19.1287 6.16474 19.116 6.20451L18.8943 6.89063C18.8911 6.9005 18.8917 6.91118 18.8959 6.92065C18.9002 6.93012 18.9078 6.93772 18.9173 6.94201L19.1671 7.05322ZM30.6162 7.87071C30.4789 7.66217 30.3746 7.43845 30.3034 7.19955C30.2984 7.18313 30.2981 7.16566 30.3025 7.14903C30.3069 7.13241 30.3158 7.11726 30.3283 7.10525C30.4194 7.01745 30.4988 6.95632 30.5421 6.8295C30.6085 6.63353 30.6745 6.42693 30.7401 6.20972C30.7425 6.20198 30.743 6.19381 30.7416 6.18585C30.7402 6.17789 30.7369 6.17036 30.7321 6.16387C30.7273 6.15737 30.721 6.15207 30.7137 6.1484C30.7064 6.14473 30.6984 6.14279 30.6903 6.14273C29.8447 6.13016 28.9933 6.10696 28.1359 6.07314C27.9794 6.06707 27.8771 6.12495 27.829 6.24679C27.7521 6.44362 27.6928 6.6448 27.6513 6.85031C27.6481 6.86593 27.6482 6.88204 27.6518 6.89759C27.6553 6.91313 27.6622 6.92775 27.6718 6.94048C27.6815 6.95321 27.6938 6.96375 27.7079 6.97142C27.722 6.97908 27.7376 6.98369 27.7536 6.98493C27.9215 6.99859 28.0316 7.06168 28.1103 7.21971C28.45 7.89564 28.7878 8.57266 29.1236 9.25076C29.277 9.56163 29.2589 9.86035 29.0691 10.1469C28.8291 10.5098 28.3602 10.3811 28.0041 10.3375C27.9815 10.3345 27.9585 10.3394 27.9389 10.3512C27.9194 10.363 27.9044 10.3811 27.8965 10.4025L27.4886 11.4919C27.4812 11.5116 27.4808 11.5333 27.4876 11.5534C27.4944 11.5735 27.5079 11.5908 27.526 11.6024C27.6366 11.6731 27.7671 11.7234 27.9175 11.7533C29.136 11.9926 29.8672 11.3267 30.5329 10.4416C31.3452 9.36283 32.1877 8.30775 33.0604 7.27629C33.1412 7.18091 33.2223 7.10937 33.3037 7.06168C33.5129 6.93811 33.6316 7.05647 33.7299 6.7339C33.7798 6.57001 33.8202 6.43344 33.8513 6.32418C33.8827 6.21362 33.8405 6.1579 33.7247 6.15704L31.3172 6.14208C31.2702 6.14168 31.2242 6.15624 31.1861 6.18363C31.148 6.21101 31.1197 6.24978 31.1054 6.29426L30.9192 6.87372C30.9135 6.89112 30.9139 6.90991 30.9203 6.92711C30.9268 6.94432 30.9388 6.95895 30.9546 6.96868L31.1139 7.06688C31.1384 7.08205 31.1485 7.10373 31.1441 7.13191C31.0982 7.44061 30.9541 7.69187 30.7119 7.88567C30.7048 7.89142 30.6966 7.89563 30.6878 7.89801C30.6789 7.90038 30.6697 7.90088 30.6607 7.89947C30.6516 7.89806 30.643 7.89477 30.6353 7.88981C30.6277 7.88485 30.6211 7.87834 30.6162 7.87071ZM47.1897 7.11696C47.2946 7.02265 47.5156 6.77552 47.6678 6.9199C47.8311 7.07468 47.7235 7.45124 47.5583 7.58131C47.49 7.63507 47.3895 7.66108 47.2566 7.65935C46.4408 7.64699 45.2846 7.50326 44.7232 8.27393C44.4747 8.61471 44.4032 9.10378 44.7206 9.41985C45.0964 9.79445 45.6381 9.84388 46.1824 9.86599C46.4119 9.87509 46.6401 9.85883 46.867 9.81721C47.048 9.78404 47.2212 9.68519 47.4028 9.6143C47.4132 9.61026 47.4244 9.60863 47.4355 9.60953C47.4465 9.61043 47.4571 9.61385 47.4664 9.61951C47.79 9.81201 48.1382 9.90176 48.5111 9.88875C48.8587 9.87639 49.2017 9.87704 49.5552 9.86079C49.6063 9.85851 49.6556 9.84071 49.6963 9.80978C49.7369 9.77885 49.7671 9.73628 49.7827 9.68779L49.9959 9.02899C50.0029 9.00818 49.9954 8.99604 49.9736 8.99257C49.8188 8.9685 49.5558 8.9516 49.5145 8.76559C49.4745 8.58545 49.5145 8.36108 49.5867 8.16597C49.8254 7.52212 50.131 6.78853 49.405 6.43409C48.7564 6.11737 48.2062 6.12842 47.395 6.14273C46.6755 6.15574 45.4938 6.15053 45.2826 7.06037C45.2802 7.07088 45.282 7.08191 45.2876 7.09112C45.2933 7.10034 45.3023 7.10704 45.3128 7.1098C45.3915 7.12931 45.4971 7.1395 45.6295 7.14037C46.1284 7.14384 46.6296 7.1434 47.1333 7.13907C47.1551 7.13907 47.1739 7.1317 47.1897 7.11696ZM36.0102 6.67992C36.5027 6.61553 36.4404 7.28344 36.2679 7.52733C36.2613 7.53666 36.2524 7.54413 36.242 7.54903C36.2317 7.55393 36.2203 7.55609 36.2089 7.55529C35.6488 7.52407 35.0894 7.50413 34.5307 7.49546C34.0283 7.48722 33.6036 7.63008 33.2564 7.92404C32.758 8.34482 32.5961 9.31189 33.3319 9.61625C34.1044 9.93558 35.0402 9.81526 35.862 9.6104C35.8723 9.60775 35.8831 9.60731 35.8937 9.6091C35.9043 9.61089 35.9145 9.61488 35.9236 9.62081C36.1354 9.75868 36.2089 9.83737 36.4804 9.84062C36.9233 9.84626 37.3703 9.84713 37.8215 9.84323C37.8486 9.84302 37.875 9.83472 37.8972 9.8194C37.9194 9.80408 37.9365 9.78247 37.9461 9.75738L38.2275 9.02639C38.2343 9.0085 38.2342 8.98875 38.2273 8.97088C38.2205 8.95302 38.2072 8.93829 38.1901 8.92948C38.0296 8.84711 37.9811 8.70641 38.0445 8.50741C38.1918 8.04609 38.3215 7.57957 38.4334 7.10785C38.4749 6.93182 38.4773 6.7907 38.4406 6.68447C38.3403 6.39507 38.0451 6.26044 37.7428 6.23508C36.9952 6.17221 36.2463 6.14772 35.496 6.16159C34.9867 6.17069 34.6695 6.19714 34.5444 6.24093C34.2432 6.34672 34.0314 6.55874 33.909 6.87698C33.897 6.90844 33.897 6.94313 33.909 6.97451C33.9209 7.00589 33.944 7.0318 33.9739 7.04737C34.036 7.07989 34.1173 7.09549 34.2179 7.09419C34.6795 7.08986 35.139 7.0827 35.5964 7.07273C35.6248 7.07215 35.6522 7.06234 35.6744 7.04482C35.6965 7.0273 35.7122 7.00305 35.719 6.97583C35.7632 6.79807 35.8602 6.69943 36.0102 6.67992ZM44.356 9.01793C44.3605 9.00649 44.3605 8.99378 44.356 8.98241C44.3515 8.97104 44.3428 8.96188 44.3317 8.9568C44.1035 8.85209 43.8982 8.74218 43.9985 8.43912C44.0855 8.17638 44.168 7.91212 44.2458 7.64634C44.392 7.14752 44.5042 6.71049 44.0326 6.42823C43.9054 6.35193 43.7264 6.3064 43.4955 6.29166C42.9556 6.25697 42.4259 6.30814 41.9065 6.44514C41.8977 6.44744 41.8885 6.44792 41.8795 6.44654C41.8706 6.44517 41.8619 6.44197 41.8543 6.43715C41.8466 6.43233 41.84 6.42599 41.8348 6.41853C41.8297 6.41106 41.8262 6.40263 41.8245 6.39376L41.795 6.23833C41.7907 6.21492 41.7765 6.20343 41.7524 6.20386L39.1154 6.22402C39.0877 6.22417 39.0607 6.2328 39.0381 6.24874C39.0154 6.26467 38.9982 6.28715 38.9888 6.31312L38.7724 6.91144C38.7688 6.92159 38.7672 6.93237 38.7679 6.94313C38.7686 6.95389 38.7715 6.96439 38.7764 6.97401C38.7813 6.98362 38.7881 6.99215 38.7965 6.99906C38.8048 7.00597 38.8145 7.01112 38.8249 7.0142L39.1364 7.1072C39.1691 7.11704 39.1968 7.13886 39.2138 7.16821C39.2309 7.19757 39.236 7.23226 39.2282 7.26523C39.1185 7.73609 38.9923 8.18505 38.8498 8.61211C38.8196 8.70273 38.774 8.78294 38.7127 8.85274C38.6255 8.95225 38.4229 8.99972 38.3789 9.1545C38.3274 9.33834 38.2797 9.51588 38.236 9.68714C38.2315 9.70486 38.2311 9.72336 38.2349 9.74123C38.2387 9.75911 38.2466 9.77589 38.2579 9.7903C38.2692 9.80472 38.2837 9.81639 38.3002 9.82443C38.3168 9.83248 38.3349 9.83668 38.3534 9.83672L41.132 9.84062C41.1661 9.84085 41.1995 9.83034 41.2272 9.81061C41.255 9.79087 41.2759 9.76291 41.2868 9.73072L41.5137 9.06281C41.5183 9.04921 41.5198 9.03479 41.5181 9.02056C41.5164 9.00633 41.5117 8.99263 41.5041 8.98042C41.4965 8.96821 41.4864 8.95779 41.4743 8.94989C41.4623 8.94199 41.4486 8.9368 41.4343 8.93469C41.1624 8.89306 41.0588 8.72874 41.1235 8.44172C41.2061 8.07492 41.3342 7.7246 41.5078 7.39075C41.5937 7.22621 41.8449 6.93941 42.0534 7.06233C42.2078 7.15337 42.2617 7.29862 42.2154 7.49806C42.1135 7.93726 41.9892 8.37062 41.8423 8.79811C41.6573 9.3366 41.7537 9.86274 42.4489 9.83802C42.9604 9.81938 43.4619 9.80789 43.9533 9.80356C43.9799 9.80317 44.0057 9.79506 44.0275 9.78025C44.0493 9.76543 44.0662 9.74457 44.0759 9.72031L44.356 9.01793Z" fill="#ED1D26"/>
<path d="M7.68448 4.63625L7.27329 4.59983C7.26422 4.59907 7.25543 4.5963 7.24758 4.59172C7.23973 4.58715 7.23301 4.58089 7.22791 4.57341C7.22282 4.56592 7.21948 4.5574 7.21814 4.54847C7.2168 4.53954 7.21749 4.53042 7.22017 4.52179L7.5002 3.63471C7.50364 3.62434 7.51024 3.6153 7.51907 3.60888C7.5279 3.60246 7.5385 3.59898 7.54938 3.59894C9.77431 3.58594 11.439 3.58269 12.5433 3.58919C13.1887 3.59309 14.0806 3.85843 14.253 4.56407C14.4426 5.33928 13.8064 6.19385 13.1795 6.60877C13.1012 6.66036 13.0501 6.74382 13.026 6.85915C13.0222 6.87846 13.0257 6.89858 13.0359 6.91573C13.2785 7.31982 13.3476 7.73366 13.2431 8.15726C13.0667 8.87654 12.5427 9.54445 11.7911 9.68233C11.7024 9.69837 11.439 9.71116 11.0009 9.7207C9.30192 9.75755 7.60294 9.79766 5.90397 9.84101C5.7798 9.84405 5.67662 9.83343 5.59443 9.80915C5.51573 9.78573 5.48863 9.73522 5.51311 9.65761L5.78789 8.79525C5.79383 8.77617 5.80565 8.75937 5.82173 8.74715C5.83781 8.73493 5.85737 8.72788 5.87774 8.72696C6.22466 8.7107 6.53944 8.73672 6.67061 8.33675C7.17995 6.77721 7.54086 5.64408 7.75334 4.93737C7.7752 4.86539 7.76755 4.77673 7.73039 4.67137C7.72706 4.66169 7.72093 4.6532 7.71277 4.64695C7.70461 4.64071 7.69477 4.63699 7.68448 4.63625ZM10.1247 4.85412C10.0404 5.08608 9.96319 5.32086 9.89323 5.55845C9.8329 5.76396 9.75092 6.03906 10.069 6.05792C10.3313 6.07353 10.5663 6.05814 10.774 6.01175C11.4409 5.86282 11.5609 4.69023 10.7222 4.62975C10.448 4.61024 10.2264 4.57577 10.1247 4.85412ZM10.1949 8.48308C10.5182 8.25676 10.7917 7.33261 10.149 7.28774C9.84405 7.26692 9.35416 7.17262 9.2571 7.46853C9.18759 7.68098 9.11807 7.89408 9.04856 8.10783C8.96002 8.38098 8.9797 8.58258 9.31612 8.6034C9.60533 8.62161 9.96406 8.64437 10.1949 8.48308Z" fill="white"/>
<path d="M20.8243 5.72507C21.3959 5.65849 21.8178 5.2543 21.7666 4.82231C21.7154 4.39031 21.2106 4.09409 20.639 4.16068C20.0674 4.22727 19.6455 4.63145 19.6967 5.06345C19.7478 5.49544 20.2527 5.79166 20.8243 5.72507Z" fill="white"/>
<path d="M25.6553 5.10171L25.2526 5.06659C25.163 5.05878 25.1271 5.01109 25.1451 4.92351C25.1844 4.73317 25.2478 4.55216 25.3353 4.38047C25.3398 4.37127 25.3463 4.3631 25.3543 4.35648C25.3623 4.34987 25.3717 4.34497 25.3818 4.3421C25.4824 4.31478 25.5635 4.30243 25.6251 4.30503C26.468 4.34101 27.2788 4.36486 28.0575 4.37657C28.1716 4.37787 28.2114 4.4325 28.1769 4.54045C27.7703 5.80257 27.3783 7.02761 27.001 8.21559C26.9007 8.53101 26.8252 8.87504 27.2804 8.89651C27.2902 8.89689 27.2999 8.89951 27.3086 8.90416C27.3173 8.90881 27.3248 8.91537 27.3306 8.92334C27.3363 8.9313 27.3402 8.94047 27.3418 8.95013C27.3435 8.95979 27.3429 8.9697 27.34 8.9791L27.1558 9.59108C27.1409 9.64101 27.1104 9.685 27.0687 9.71676C27.027 9.74853 26.9762 9.76645 26.9236 9.76798C26.1812 9.78705 25.457 9.79637 24.7509 9.79594C24.585 9.79594 24.4558 9.76082 24.366 9.6288C24.3519 9.60795 24.3312 9.59236 24.3071 9.58447C24.283 9.57659 24.2568 9.57685 24.2328 9.58523C23.5783 9.8161 22.8189 9.95333 22.1966 9.55076C21.8053 9.29755 21.6269 8.90583 21.6614 8.37557C21.7493 7.02414 22.4595 6.03171 23.9207 6.03431C24.3776 6.03474 24.8322 6.07095 25.2848 6.14292C25.5936 6.1917 25.6848 5.57061 25.7314 5.33323C25.7462 5.25736 25.7416 5.19449 25.7176 5.14463C25.712 5.13261 25.7033 5.1223 25.6923 5.11475C25.6814 5.1072 25.6686 5.1027 25.6553 5.10171ZM24.8303 6.69051C24.2492 6.49996 23.9456 7.75774 23.8748 8.04975C23.7784 8.44971 23.8459 8.90171 24.3286 8.87309C24.5181 8.86204 24.623 8.73197 24.6867 8.56873C24.8366 8.18069 24.9625 7.78549 25.0644 7.38314C25.1339 7.10804 25.1201 6.78612 24.8303 6.69051Z" fill="white"/>
<path d="M54.9832 5.25176C54.871 5.22054 54.6585 5.24785 54.6841 5.06185C54.7202 4.80236 54.7851 4.46158 55.0855 4.46028C55.8834 4.45638 56.6937 4.45399 57.5165 4.45312C57.5293 4.45319 57.542 4.45616 57.5535 4.46181C57.5649 4.46746 57.5749 4.47564 57.5827 4.48571C57.5904 4.49578 57.5957 4.50747 57.5981 4.51987C57.6005 4.53226 57.6 4.54503 57.5965 4.55718L57.1263 6.24224C57.1216 6.25921 57.1213 6.27708 57.1253 6.29422C57.1293 6.31136 57.1376 6.32722 57.1493 6.34035C57.161 6.35347 57.1759 6.36346 57.1925 6.36938C57.2091 6.37531 57.2269 6.37698 57.2444 6.37426C57.8661 6.27996 58.4497 6.07835 59.0321 6.39898C59.4557 6.63245 59.4669 7.00835 59.3475 7.45514C59.2382 7.86357 59.1167 8.26808 58.9829 8.6687C58.9453 8.78099 58.9628 8.89849 59.0354 9.02119C59.045 9.0381 59.0596 9.04785 59.0793 9.05046L59.3003 9.08102C59.3042 9.08163 59.3078 9.08303 59.3111 9.08512C59.3144 9.08721 59.3172 9.08994 59.3193 9.09314C59.3214 9.09634 59.3228 9.09992 59.3233 9.10366C59.3239 9.10741 59.3237 9.11121 59.3226 9.11484C59.278 9.25879 59.212 9.45888 59.1246 9.71511C59.0813 9.84063 59.0111 9.89006 58.8734 9.90111C58.4189 9.93818 56.9768 10.13 56.8424 9.41986C56.8231 9.31623 56.8483 9.14931 56.9178 8.91909C57.0607 8.44628 57.2535 7.96762 57.264 7.46815C57.2719 7.11241 56.904 7.16379 56.7833 7.39726C56.6023 7.7478 56.2423 8.61927 56.3813 8.97176C56.3914 8.99691 56.4102 9.01078 56.4377 9.01339L56.6338 9.02899C56.6386 9.02941 56.6432 9.03091 56.6474 9.03339C56.6515 9.03586 56.655 9.03923 56.6576 9.04325C56.6602 9.04727 56.6618 9.05183 56.6623 9.05657C56.6629 9.06132 56.6623 9.06612 56.6607 9.07062L56.38 9.83933C56.3748 9.85339 56.3655 9.86563 56.3532 9.87453C56.341 9.88343 56.3264 9.8886 56.3112 9.88941C55.2951 9.9358 54.2963 9.94989 53.3148 9.93168C53.2186 9.92995 53.183 9.87358 53.2079 9.76259C53.2586 9.53974 53.3174 9.30518 53.3843 9.05891C53.3885 9.04335 53.3981 9.02973 53.4115 9.02036C53.4249 9.01099 53.4412 9.00646 53.4577 9.00753C53.9693 9.0407 54.0185 8.92039 54.1542 8.47685C54.4633 7.46447 54.7659 6.43539 55.0619 5.38963C55.0659 5.37551 55.0671 5.36072 55.0653 5.34612C55.0636 5.33153 55.0589 5.31742 55.0516 5.3046C55.0443 5.29178 55.0344 5.28051 55.0227 5.27144C55.011 5.26237 54.9975 5.25568 54.9832 5.25176Z" fill="white"/>
<path d="M10.1208 4.86213C10.2225 4.58378 10.4441 4.61825 10.7183 4.63776C11.557 4.69824 11.437 5.87082 10.7701 6.01975C10.5624 6.06615 10.3274 6.08154 10.0651 6.06593C9.74701 6.04707 9.82899 5.77197 9.88932 5.56646C9.95927 5.32886 10.0364 5.09409 10.1208 4.86213Z" fill="#ED1D26"/>
<path d="M53.6188 6.19766L54.1598 6.25164C54.1681 6.25252 54.1761 6.2552 54.1832 6.25949C54.1902 6.26378 54.1963 6.26957 54.2008 6.27642C54.2053 6.28328 54.2082 6.29104 54.2093 6.29913C54.2104 6.30722 54.2096 6.31544 54.207 6.32318L53.99 7.00019C53.9796 7.03272 53.9587 7.06099 53.9305 7.08071C53.9024 7.10043 53.8684 7.11052 53.8339 7.10945C53.609 7.101 53.1846 7.03661 53.0909 7.33252C52.975 7.69759 52.8653 8.06417 52.7617 8.43227C52.6692 8.75874 52.6823 9.02539 53.0955 9.03384C53.1016 9.03387 53.1077 9.03534 53.1132 9.03814C53.1187 9.04093 53.1235 9.04498 53.1272 9.04995C53.1309 9.05493 53.1334 9.0607 53.1345 9.06682C53.1355 9.07294 53.1352 9.07924 53.1335 9.08522L52.9335 9.74923C52.923 9.7836 52.9018 9.81378 52.873 9.83541C52.8441 9.85704 52.809 9.869 52.7728 9.86954C52.2359 9.87821 51.6903 9.878 51.1359 9.86889C50.5424 9.85914 50.3332 9.67444 50.5175 9.05985C50.6775 8.5257 50.8288 7.98938 50.9713 7.45089C51.0723 7.07043 50.7614 7.1088 50.5188 7.09059C50.4952 7.08886 50.4834 7.07628 50.4834 7.05287C50.4812 6.76195 50.5481 6.51807 50.6841 6.32123C50.8631 6.06304 51.3418 6.34724 51.4579 6.01621C51.5274 5.81677 51.5886 5.62622 51.6415 5.44455C51.6528 5.40592 51.6766 5.37204 51.7093 5.34817C51.7421 5.3243 51.7819 5.31178 51.8225 5.31253L53.6385 5.35025C53.6441 5.35042 53.6497 5.35181 53.6547 5.35433C53.6598 5.35685 53.6642 5.36044 53.6677 5.36484C53.6712 5.36925 53.6737 5.37435 53.675 5.37981C53.6763 5.38527 53.6763 5.39094 53.6752 5.39643L53.5335 6.08255C53.5308 6.09573 53.5309 6.10934 53.5338 6.12249C53.5367 6.13563 53.5424 6.14803 53.5504 6.15888C53.5584 6.16973 53.5687 6.17878 53.5804 6.18546C53.5922 6.19214 53.6053 6.1963 53.6188 6.19766Z" fill="white"/>
<path d="M16.3703 6.63399C16.1224 6.48311 15.8522 6.72829 15.7755 6.97997C15.7719 6.99209 15.7643 7.00268 15.754 7.01009C15.7437 7.01751 15.7312 7.02132 15.7184 7.02095L14.0468 6.98973C14.0297 6.98947 14.013 6.98533 13.9978 6.97764C13.9826 6.96994 13.9694 6.9589 13.9593 6.94537C13.9491 6.93184 13.9423 6.91618 13.9392 6.89963C13.9362 6.88307 13.9371 6.86605 13.9419 6.8499C14.1104 6.27499 14.6278 6.0981 15.2272 6.07534C16.2311 6.03805 17.1055 6.0374 17.8505 6.07339C18.3462 6.09745 18.762 6.39011 18.5843 6.94225C18.4615 7.32163 18.3401 7.70121 18.2203 8.08102C18.1075 8.43676 18.0754 8.71836 18.4263 8.90696C18.4359 8.91224 18.4434 8.92069 18.4474 8.93081C18.4513 8.94094 18.4515 8.95207 18.4479 8.96224L18.2236 9.58788C18.207 9.63415 18.1767 9.67438 18.1367 9.70337C18.0967 9.73236 18.0488 9.74877 17.9993 9.75047C17.3783 9.76998 16.6038 9.83176 16.0713 9.47082C16.0589 9.46251 16.0445 9.45759 16.0297 9.45656C16.0148 9.45554 16 9.45844 15.9867 9.46497C15.2909 9.809 14.1504 9.93257 13.5248 9.3466C13.1077 8.95509 13.2461 8.51025 13.5346 8.08882C13.9353 7.50416 14.4514 7.44433 15.1767 7.45083C15.4609 7.453 15.7451 7.45712 16.0293 7.46319C16.4057 7.47099 16.5559 7.2141 16.5126 6.88632C16.4964 6.76623 16.449 6.68211 16.3703 6.63399ZM15.7559 8.93429C15.8437 8.95234 15.9388 8.91805 16.0201 8.83897C16.1014 8.7599 16.1624 8.6425 16.1895 8.51262C16.2029 8.44831 16.2076 8.38286 16.2034 8.32003C16.1992 8.25719 16.186 8.19819 16.1647 8.14639C16.1435 8.0946 16.1145 8.05102 16.0794 8.01816C16.0444 7.98529 16.0039 7.96377 15.9604 7.95484C15.8725 7.93679 15.7774 7.97108 15.6961 8.05016C15.6148 8.12924 15.5539 8.24663 15.5268 8.37651C15.5133 8.44082 15.5086 8.50627 15.5128 8.5691C15.5171 8.63194 15.5302 8.69094 15.5515 8.74274C15.5728 8.79453 15.6018 8.83811 15.6368 8.87097C15.6719 8.90384 15.7123 8.92536 15.7559 8.93429Z" fill="white"/>
<path d="M19.1646 7.04778L18.9148 6.93657C18.9053 6.93229 18.8977 6.92469 18.8935 6.91521C18.8892 6.90574 18.8886 6.89506 18.8918 6.8852L19.1135 6.19908C19.1262 6.1593 19.1515 6.1246 19.1856 6.10003C19.2197 6.07546 19.2608 6.06231 19.303 6.0625L21.6679 6.06836C21.7483 6.06879 21.7765 6.10694 21.7525 6.18282C21.5483 6.83057 21.3465 7.45946 21.1471 8.06949C21.0278 8.43563 20.9432 8.77252 21.4003 8.89478C21.4129 8.89815 21.4248 8.90408 21.435 8.91219C21.4452 8.92031 21.4537 8.93044 21.4598 8.94196C21.466 8.95348 21.4697 8.96615 21.4707 8.97918C21.4718 8.9922 21.4701 9.00531 21.4659 9.0177L21.2547 9.62317C21.2388 9.66868 21.2092 9.7082 21.1698 9.73637C21.1305 9.76453 21.0834 9.77997 21.035 9.78056C20.4443 9.78793 19.8755 9.78403 19.3286 9.76885C19.0387 9.7604 18.6374 9.59781 18.5849 9.27003C18.5709 9.18028 18.595 9.03807 18.6571 8.8434C18.8402 8.27153 19.0221 7.70095 19.2027 7.13168C19.2077 7.1155 19.2066 7.09805 19.1996 7.08261C19.1926 7.06717 19.1802 7.05478 19.1646 7.04778Z" fill="white"/>
<path d="M30.6124 7.86831C30.6174 7.87595 30.6239 7.88246 30.6316 7.88741C30.6392 7.89237 30.6479 7.89566 30.6569 7.89707C30.666 7.89849 30.6752 7.89799 30.684 7.89561C30.6929 7.89323 30.7011 7.88903 30.7082 7.88327C30.9504 7.68947 31.0944 7.43822 31.1404 7.12952C31.1447 7.10133 31.1347 7.07966 31.1102 7.06448L30.9508 6.96628C30.9351 6.95655 30.923 6.94192 30.9166 6.92472C30.9102 6.90751 30.9098 6.88872 30.9154 6.87133L31.1017 6.29186C31.1159 6.24739 31.1442 6.20862 31.1823 6.18123C31.2205 6.15385 31.2664 6.13929 31.3135 6.13968L33.7209 6.15464C33.8368 6.15551 33.879 6.21122 33.8475 6.32178C33.8165 6.43104 33.776 6.56761 33.7262 6.7315C33.6278 7.05408 33.5091 6.93571 33.2999 7.05928C33.2186 7.10697 33.1375 7.17851 33.0566 7.27389C32.184 8.30535 31.3415 9.36044 30.5291 10.4392C29.8635 11.3243 29.1323 11.9902 27.9138 11.7509C27.7634 11.721 27.6329 11.6707 27.5223 11.6C27.5042 11.5884 27.4906 11.5711 27.4838 11.551C27.477 11.5309 27.4774 11.5092 27.4849 11.4895L27.8928 10.4001C27.9007 10.3787 27.9156 10.3606 27.9352 10.3488C27.9547 10.337 27.9777 10.3321 28.0004 10.3351C28.3565 10.3787 28.8254 10.5074 29.0654 10.1445C29.2551 9.85796 29.2733 9.55923 29.1198 9.24836C28.784 8.57026 28.4463 7.89325 28.1066 7.21731C28.0279 7.05928 27.9177 6.99619 27.7498 6.98254C27.7338 6.98129 27.7182 6.97668 27.7042 6.96902C27.6901 6.96136 27.6778 6.95081 27.6681 6.93808C27.6584 6.92536 27.6516 6.91074 27.648 6.89519C27.6445 6.87965 27.6443 6.86353 27.6475 6.84791C27.6891 6.6424 27.7483 6.44123 27.8253 6.24439C27.8733 6.12256 27.9757 6.06467 28.1322 6.07074C28.9895 6.10456 29.841 6.12776 30.6865 6.14033C30.6947 6.14039 30.7027 6.14234 30.71 6.14601C30.7172 6.14967 30.7235 6.15497 30.7283 6.16147C30.7332 6.16797 30.7364 6.17549 30.7378 6.18345C30.7392 6.19141 30.7387 6.19958 30.7364 6.20732C30.6708 6.42454 30.6048 6.63113 30.5383 6.8271C30.495 6.95392 30.4157 7.01505 30.3245 7.10285C30.3121 7.11487 30.3031 7.13001 30.2987 7.14664C30.2944 7.16326 30.2947 7.18074 30.2996 7.19715C30.3709 7.43605 30.4751 7.65977 30.6124 7.86831Z" fill="white"/>
<path d="M47.6688 6.91558C47.5166 6.7712 47.2956 7.01834 47.1907 7.11264C47.175 7.12738 47.1562 7.13475 47.1343 7.13475C46.6306 7.13908 46.1294 7.13952 45.6305 7.13605C45.4981 7.13518 45.3925 7.12499 45.3138 7.10548C45.3033 7.10272 45.2943 7.09602 45.2886 7.08681C45.283 7.07759 45.2812 7.06656 45.2836 7.05606C45.4948 6.14621 46.6765 6.15142 47.396 6.13841C48.2072 6.1241 48.7574 6.11305 49.406 6.42977C50.132 6.78421 49.8264 7.51781 49.5877 8.16165C49.5155 8.35676 49.4755 8.58113 49.5155 8.76128C49.5568 8.94728 49.8198 8.96419 49.9746 8.98825C49.9965 8.99172 50.0039 9.00386 49.9969 9.02467L49.7838 9.68347C49.7681 9.73196 49.7379 9.77453 49.6973 9.80546C49.6566 9.83639 49.6073 9.85419 49.5562 9.85647C49.2027 9.87273 48.8597 9.87208 48.5121 9.88443C48.1392 9.89744 47.791 9.80769 47.4674 9.61519C47.4581 9.60953 47.4475 9.60611 47.4365 9.60521C47.4254 9.60431 47.4143 9.60594 47.4038 9.60998C47.2222 9.68087 47.049 9.77973 46.868 9.81289C46.6411 9.85452 46.4129 9.87078 46.1834 9.86167C45.6391 9.83956 45.0974 9.79013 44.7216 9.41553C44.4042 9.09946 44.4757 8.6104 44.7242 8.26961C45.2856 7.49895 46.4418 7.64267 47.2576 7.65503C47.3905 7.65676 47.4911 7.63075 47.5593 7.57699C47.7245 7.44692 47.8321 7.07036 47.6688 6.91558ZM47.1671 9.07019L47.3743 8.40814C47.3799 8.39016 47.3818 8.37127 47.38 8.35255C47.3782 8.33382 47.3727 8.31564 47.3638 8.29903C47.3549 8.28242 47.3428 8.26771 47.3282 8.25574C47.3136 8.24377 47.2967 8.23479 47.2786 8.22929L47.2386 8.21693C47.1293 8.18338 47.0106 8.19557 46.9086 8.25082C46.8067 8.30607 46.7298 8.39985 46.6949 8.51154L46.6661 8.60454C46.6487 8.65988 46.6422 8.71798 46.6469 8.77549C46.6517 8.83301 46.6675 8.88882 46.6936 8.93974C46.7197 8.99066 46.7554 9.03568 46.7989 9.07224C46.8423 9.1088 46.8926 9.13617 46.9467 9.15279L46.9867 9.16514C47.0049 9.17067 47.0239 9.17259 47.0428 9.17081C47.0617 9.16902 47.08 9.16357 47.0968 9.15475C47.1135 9.14593 47.1283 9.13392 47.1404 9.11941C47.1525 9.1049 47.1615 9.08818 47.1671 9.07019Z" fill="white"/>
<path d="M36.008 6.67834C35.8581 6.69785 35.761 6.79649 35.7169 6.97425C35.7101 7.00148 35.6944 7.02573 35.6722 7.04325C35.65 7.06076 35.6226 7.07057 35.5942 7.07115C35.1369 7.08113 34.6774 7.08828 34.2157 7.09262C34.1152 7.09392 34.0338 7.07831 33.9718 7.04579C33.9419 7.03022 33.9188 7.00431 33.9068 6.97293C33.8949 6.94155 33.8949 6.90686 33.9068 6.8754C34.0292 6.55716 34.2411 6.34515 34.5423 6.23936C34.6673 6.19557 34.9845 6.16912 35.4939 6.16001C36.2441 6.14614 36.9931 6.17063 37.7407 6.2335C38.043 6.25887 38.3381 6.39349 38.4384 6.68289C38.4752 6.78912 38.4728 6.93025 38.4312 7.10627C38.3193 7.57799 38.1897 8.04451 38.0423 8.50583C37.9789 8.70484 38.0275 8.84553 38.1879 8.92791C38.2051 8.93671 38.2183 8.95144 38.2252 8.96931C38.2321 8.98717 38.2321 9.00692 38.2253 9.02481L37.944 9.7558C37.9343 9.78089 37.9173 9.80251 37.895 9.81782C37.8728 9.83314 37.8464 9.84145 37.8194 9.84165C37.3682 9.84555 36.9211 9.84469 36.4782 9.83905C36.2067 9.8358 36.1333 9.7571 35.9215 9.61923C35.9124 9.6133 35.9022 9.60931 35.8916 9.60752C35.881 9.60573 35.8701 9.60617 35.8598 9.60882C35.0381 9.81369 34.1023 9.934 33.3297 9.61468C32.5939 9.31031 32.7559 8.34324 33.2543 7.92246C33.6014 7.62851 34.0262 7.48565 34.5285 7.49388C35.0873 7.50255 35.6467 7.5225 36.2067 7.55371C36.2181 7.55451 36.2295 7.55235 36.2399 7.54745C36.2502 7.54256 36.2591 7.53508 36.2658 7.52575C36.4382 7.28187 36.5005 6.61396 36.008 6.67834ZM35.7024 8.03172C34.9745 8.28926 35.4473 9.29991 35.7746 8.92661C35.949 8.7276 36.0253 8.48588 36.0034 8.20146C35.9923 8.05253 35.8342 7.9849 35.7024 8.03172Z" fill="white"/>
<path d="M44.357 9.01721L44.077 9.71958C44.0673 9.74385 44.0504 9.7647 44.0286 9.77952C44.0068 9.79434 43.9809 9.80245 43.9544 9.80283C43.4629 9.80717 42.9615 9.81866 42.4499 9.8373C41.7548 9.86201 41.6584 9.33588 41.8433 8.79739C41.9902 8.36989 42.1146 7.93654 42.2165 7.49734C42.2628 7.29789 42.2088 7.15265 42.0545 7.0616C41.8459 6.93868 41.5948 7.22549 41.5089 7.39003C41.3353 7.72387 41.2072 8.0742 41.1246 8.441C41.0598 8.72802 41.1635 8.89234 41.4354 8.93396C41.4497 8.93608 41.4633 8.94126 41.4754 8.94916C41.4874 8.95706 41.4976 8.96748 41.5052 8.97969C41.5127 8.9919 41.5175 9.0056 41.5192 9.01983C41.5208 9.03407 41.5193 9.04849 41.5148 9.06208L41.2878 9.72999C41.2769 9.76219 41.2561 9.79014 41.2283 9.80988C41.2005 9.82962 41.1672 9.84012 41.1331 9.8399L38.3544 9.836C38.336 9.83595 38.3178 9.83175 38.3013 9.82371C38.2848 9.81567 38.2703 9.80399 38.259 9.78958C38.2477 9.77516 38.2398 9.75838 38.236 9.74051C38.2322 9.72263 38.2326 9.70414 38.237 9.68642C38.2808 9.51516 38.3284 9.33761 38.38 9.15378C38.4239 8.999 38.6266 8.95152 38.7138 8.85202C38.775 8.78221 38.8207 8.702 38.8509 8.61139C38.9934 8.18432 39.1195 7.73536 39.2293 7.26451C39.2371 7.23153 39.2319 7.19684 39.2149 7.16749C39.1978 7.13813 39.1701 7.11632 39.1375 7.10647L38.826 7.01347C38.8155 7.01039 38.8059 7.00524 38.7975 6.99833C38.7892 6.99142 38.7824 6.9829 38.7774 6.97328C38.7725 6.96367 38.7697 6.95316 38.769 6.9424C38.7683 6.93165 38.7698 6.92087 38.7735 6.91072L38.9899 6.3124C38.9993 6.28642 39.0165 6.26395 39.0391 6.24801C39.0618 6.23207 39.0888 6.22345 39.1165 6.2233L41.7535 6.20314C41.7775 6.2027 41.7917 6.21419 41.7961 6.23761L41.8256 6.39304C41.8273 6.40191 41.8308 6.41034 41.8359 6.4178C41.841 6.42527 41.8476 6.43161 41.8553 6.43643C41.863 6.44125 41.8716 6.44444 41.8806 6.44582C41.8896 6.44719 41.8988 6.44672 41.9076 6.44442C42.427 6.30741 42.9567 6.25625 43.4966 6.29093C43.7274 6.30568 43.9065 6.3512 44.0337 6.42751C44.5052 6.70976 44.3931 7.1468 44.2468 7.64562C44.169 7.91139 44.0866 8.17565 43.9996 8.43839C43.8993 8.74146 44.1045 8.85137 44.3328 8.95607C44.3439 8.96115 44.3526 8.97032 44.3571 8.98168C44.3616 8.99305 44.3616 9.00577 44.357 9.01721Z" fill="white"/>
<path d="M23.8755 8.05066C23.9464 7.75865 24.25 6.50088 24.831 6.69143C25.1209 6.78703 25.1347 7.10895 25.0652 7.38405C24.9633 7.7864 24.8374 8.1816 24.6874 8.56964C24.6238 8.73288 24.5189 8.86295 24.3294 8.87401C23.8467 8.90262 23.7791 8.45063 23.8755 8.05066Z" fill="#ED1D26"/>
<path d="M10.1468 7.29639C10.7895 7.34126 10.5161 8.26541 10.1927 8.49173C9.9619 8.65302 9.60318 8.63026 9.31397 8.61205C8.97754 8.59124 8.95787 8.38963 9.0464 8.11648C9.11592 7.90273 9.18543 7.68963 9.25495 7.47718C9.35201 7.18127 9.84189 7.27558 10.1468 7.29639Z" fill="#ED1D26"/>
<path d="M15.5314 8.37706C15.4749 8.64753 15.5775 8.89726 15.7605 8.93484C15.9435 8.97243 16.1376 8.78364 16.1941 8.51317C16.2506 8.2427 16.148 7.99297 15.965 7.95539C15.782 7.9178 15.5879 8.10659 15.5314 8.37706Z" fill="#ED1D26"/>
<path d="M35.7786 8.93298C35.4513 9.30629 34.9785 8.29564 35.7064 8.0381C35.8382 7.99128 35.9963 8.05891 36.0074 8.20784C36.0293 8.49226 35.953 8.73398 35.7786 8.93298Z" fill="#ED1D26"/>
<path d="M47.1637 9.07498C47.1582 9.09296 47.1491 9.10969 47.1371 9.1242C47.125 9.13871 47.1102 9.15071 47.0934 9.15953C47.0767 9.16835 47.0583 9.17381 47.0394 9.17559C47.0206 9.17738 47.0015 9.17545 46.9834 9.16993L46.9434 9.15757C46.8892 9.14095 46.839 9.11358 46.7955 9.07703C46.7521 9.04047 46.7163 8.99544 46.6902 8.94453C46.6642 8.89361 46.6483 8.83779 46.6436 8.78028C46.6389 8.72276 46.6454 8.66467 46.6627 8.60933L46.6916 8.51633C46.7264 8.40463 46.8033 8.31085 46.9053 8.2556C47.0072 8.20035 47.1259 8.18817 47.2352 8.22172L47.2752 8.23407C47.2934 8.23957 47.3102 8.24856 47.3248 8.26053C47.3395 8.27249 47.3516 8.2872 47.3605 8.30381C47.3694 8.32042 47.3749 8.33861 47.3767 8.35733C47.3785 8.37605 47.3765 8.39494 47.371 8.41292L47.1637 9.07498Z" fill="#ED1D26"/>
</svg>
