<svg width="58" height="58" viewBox="0 0 58 58" fill="none" xmlns="http://www.w3.org/2000/svg">
<g clip-path="url(#clip0_5036_10090)">
<path d="M42.8153 30.096C45.2985 30.0938 47.7264 30.8282 49.792 32.2064C51.8576 33.5846 53.4679 35.5446 54.4191 37.8383C55.3704 40.132 55.6199 42.6563 55.136 45.0918C54.6521 47.5273 53.4565 49.7646 51.7007 51.5204C49.9449 53.2762 47.7076 54.4718 45.2721 54.9557C42.8366 55.4396 40.3123 55.1901 38.0186 54.2388C35.7249 53.2876 33.7649 51.6772 32.3867 49.6117C31.0085 47.5461 30.2741 45.1182 30.2763 42.635C30.2821 39.3113 31.6051 36.1253 33.9553 33.775C36.3056 31.4248 39.4916 30.1018 42.8153 30.096ZM22.5335 41.483C23.4098 41.483 24.2665 41.7429 24.9951 42.2298C25.7237 42.7166 26.2916 43.4086 26.627 44.2182C26.9623 45.0278 27.0501 45.9187 26.8791 46.7782C26.7082 47.6377 26.2862 48.4272 25.6665 49.0468C25.0469 49.6665 24.2574 50.0885 23.3979 50.2594C22.5384 50.4304 21.6475 50.3427 20.8379 50.0073C20.0283 49.6719 19.3363 49.104 18.8494 48.3754C18.3626 47.6468 18.1027 46.7901 18.1027 45.9138C18.1027 44.7387 18.5695 43.6117 19.4005 42.7808C20.2314 41.9498 21.3584 41.483 22.5335 41.483ZM47.3901 37.5396L40.6775 45.0609L37.6424 41.9926C37.4786 41.8309 37.2578 41.7402 37.0276 41.7402C36.7975 41.7402 36.5766 41.8309 36.4129 41.9926L35.1833 43.1778C35.1044 43.2447 35.0396 43.3267 34.9928 43.419C34.9461 43.5113 34.9182 43.6121 34.911 43.7153C34.9038 43.8185 34.9173 43.9222 34.9508 44.0201C34.9842 44.118 35.0369 44.2083 35.1058 44.2855L35.1833 44.3741L39.4147 48.539C39.7487 48.8763 40.2028 49.0675 40.6775 49.0707C40.9121 49.0776 41.1455 49.0336 41.3615 48.9418C41.5775 48.85 41.7712 48.7126 41.9292 48.539L49.8935 39.8215C50.0139 39.662 50.079 39.4675 50.079 39.2677C50.079 39.0678 50.0139 38.8733 49.8935 38.7138L48.6529 37.5507C48.4891 37.3891 48.2682 37.2984 48.0381 37.2984C47.808 37.2984 47.5871 37.3891 47.4233 37.5507L47.3901 37.5396ZM9.06395 2.01596C9.62406 2.03 10.1657 2.21919 10.6127 2.55695C11.0598 2.89471 11.3897 3.36406 11.5563 3.89903L12.243 6.29165H51.3335C51.7723 6.2797 52.1981 6.44192 52.5177 6.74287C52.8373 7.04382 53.0249 7.45903 53.0393 7.8978C53.0509 8.074 53.0283 8.25076 52.9729 8.41842L48.3427 24.6461C48.2634 25.0072 48.0595 25.3287 47.7667 25.5544C46.1568 25.0912 44.4906 24.8527 42.8153 24.8455C40.7465 24.8582 38.6958 25.2331 36.7563 25.9532H21.4258C21.1058 25.9503 20.7883 26.0104 20.4915 26.1302C20.1947 26.25 19.9245 26.427 19.6961 26.6513C19.4678 26.8755 19.2858 27.1425 19.1607 27.4371C19.0355 27.7316 18.9696 28.0479 18.9667 28.368C18.964 28.6513 19.0128 28.9328 19.1107 29.1987V29.2873C19.2638 29.8059 19.5808 30.261 20.014 30.5845C20.4473 30.9079 20.9737 31.0824 21.5144 31.0818H29.379C28.0755 32.5986 27.038 34.3252 26.3107 36.1883H17.704C17.1394 36.1918 16.5893 36.0092 16.1388 35.6689C15.6884 35.3285 15.3625 34.8493 15.2116 34.3052L7.18088 7.13349H4.77718C4.08284 7.12183 3.42141 6.83553 2.93769 6.33728C2.45397 5.83903 2.18737 5.16941 2.19626 4.47503V4.40857C2.27819 3.74106 2.60407 3.12743 3.11121 2.68573C3.61834 2.24404 4.2709 2.00548 4.94334 2.01596H9.06395Z" fill="black"/>
<path d="M42.8147 30.0938C45.2978 30.0916 47.7258 30.826 49.7914 32.2042C51.8569 33.5824 53.4672 35.5424 54.4185 37.8361C55.3698 40.1297 55.6192 42.6541 55.1353 45.0896C54.6514 47.5251 53.4559 49.7624 51.7001 51.5182C49.9443 53.274 47.707 54.4696 45.2715 54.9535C42.836 55.4373 40.3116 55.1879 38.0179 54.2366C35.7242 53.2853 33.7643 51.675 32.3861 49.6095C31.0079 47.5439 30.2734 45.116 30.2756 42.6328C30.2815 39.3091 31.6045 36.1231 33.9547 33.7728C36.305 31.4226 39.4909 30.0996 42.8147 30.0938ZM47.3895 37.5374L40.6769 45.0587L37.6418 41.9904C37.478 41.8287 37.2572 41.738 37.027 41.738C36.7969 41.738 36.576 41.8287 36.4123 41.9904L35.1827 43.1756C35.1038 43.2425 35.039 43.3245 34.9922 43.4168C34.9454 43.5091 34.9176 43.6099 34.9104 43.7131C34.9032 43.8163 34.9167 43.92 34.9501 44.0179C34.9836 44.1158 35.0363 44.2061 35.1052 44.2833L35.1827 44.3719L39.4141 48.5368C39.7481 48.8741 40.2022 49.0653 40.6769 49.0685C40.9115 49.0754 41.1448 49.0314 41.3609 48.9396C41.5769 48.8478 41.7706 48.7104 41.9286 48.5368L49.8929 39.8193C50.0133 39.6598 50.0784 39.4653 50.0784 39.2654C50.0784 39.0656 50.0133 38.8711 49.8929 38.7116L48.6523 37.5485C48.4885 37.3869 48.2676 37.2962 48.0375 37.2962C47.8074 37.2962 47.5865 37.3869 47.4227 37.5485L47.3895 37.5374Z" fill="#2871F0"/>
<circle cx="42.9805" cy="42.4766" r="9" fill="#2871F0"/>
<path d="M36.9805 42.9766L40.9805 46.9766L48.4805 38.4766" stroke="white" stroke-width="3" stroke-linecap="round"/>
</g>
<defs>
<clipPath id="clip0_5036_10090">
<rect width="57.6" height="57.6" fill="white"/>
</clipPath>
</defs>
</svg>
