<svg width="68" height="45" viewBox="0 0 68 45" fill="none" xmlns="http://www.w3.org/2000/svg">
<path d="M38.89 34.3748C39.544 34.4593 40.2149 34.4593 40.8857 34.3748V35.3887C40.9528 35.3211 40.9863 35.2873 41.0199 35.2366C41.3888 34.7635 41.9087 34.4255 42.4957 34.2903C43.1162 34.1213 43.7703 34.2565 44.2734 34.6452C44.4747 34.7973 44.6424 35.0001 44.743 35.2366C44.7933 35.3211 44.8269 35.4056 44.8772 35.507C45.0113 35.338 45.1287 35.1859 45.2629 35.0508C45.6486 34.6283 46.1517 34.341 46.722 34.2565C47.0741 34.2058 47.4431 34.2227 47.7953 34.3072C48.4158 34.4086 48.9189 34.8649 49.1034 35.4563C49.2376 35.8281 49.3047 36.2337 49.3047 36.6393C49.3047 38.1433 49.3047 39.6643 49.3047 41.1683V41.2021C49.3047 41.3711 49.3047 41.3711 49.1202 41.3542C48.8183 41.3373 48.5332 41.2866 48.2313 41.2866C47.9798 41.2866 47.7282 41.3204 47.4766 41.3542C47.3257 41.3711 47.3257 41.3711 47.3089 41.2021V37.3322C47.3089 36.9773 47.2754 36.6055 47.1915 36.2506C47.158 36.0647 47.0574 35.8957 46.94 35.7436C46.6884 35.4563 46.3698 35.4056 46.0176 35.4563C45.3467 35.5408 45.1455 35.9971 45.0952 36.521C45.0784 36.7914 45.0616 37.0618 45.0616 37.3153C45.0616 38.5827 45.0616 39.8332 45.0616 41.1007V41.2359C45.0616 41.3711 45.0616 41.3711 44.9275 41.3542C44.6424 41.3373 44.3573 41.2866 44.0722 41.2866C43.8038 41.2866 43.5355 41.3204 43.2839 41.3542C43.0827 41.3711 43.0827 41.3711 43.0827 41.1683V37.1801C43.0827 36.8252 43.0324 36.4703 42.9318 36.1323C42.8479 35.7605 42.5293 35.4901 42.1603 35.4732C41.7746 35.4056 41.3721 35.5746 41.154 35.9126C40.9528 36.2337 40.8522 36.6055 40.8689 36.9942C40.8689 38.3799 40.8689 39.7656 40.8689 41.1345V41.1683C40.8689 41.388 40.8689 41.3711 40.6509 41.3542C40.3658 41.3373 40.0807 41.3035 39.7956 41.3035C39.544 41.3035 39.2925 41.3373 39.0409 41.3711C38.8564 41.388 38.8564 41.388 38.8564 41.2021V34.5269C38.89 34.4762 38.89 34.4255 38.89 34.3748Z" fill="black"/>
<path d="M20.826 34.3903C21.4801 34.4579 22.1509 34.4579 22.805 34.3903V35.4042C22.8385 35.3705 22.8888 35.3198 22.9224 35.286C23.2913 34.7959 23.8112 34.4579 24.415 34.3227C25.0355 34.1537 25.7063 34.2889 26.2095 34.6776C26.461 34.8804 26.6455 35.1339 26.7629 35.4211C26.7797 35.4549 26.7964 35.4887 26.8132 35.5225C26.9306 35.3873 27.0312 35.2522 27.1318 35.1339C27.5176 34.6607 28.0542 34.3565 28.658 34.272C29.0773 34.2044 29.5133 34.2551 29.9326 34.3903C30.5699 34.5931 30.9221 35.0494 31.0898 35.6746C31.1736 35.9619 31.2072 36.283 31.2072 36.5872C31.2072 38.1081 31.2072 39.646 31.2072 41.1669C31.2072 41.3697 31.2407 41.4035 30.9891 41.3697C30.7376 41.3359 30.4692 41.319 30.2177 41.319C29.9493 41.319 29.681 41.3528 29.4295 41.3866C29.245 41.4035 29.245 41.4035 29.245 41.2176V37.1787C29.245 36.8745 29.2114 36.5703 29.1276 36.2661C29.0773 36.0802 28.9934 35.9112 28.876 35.7591C28.6412 35.4887 28.3226 35.4549 27.9872 35.4718C27.9033 35.4887 27.8195 35.4887 27.7524 35.5225C27.417 35.607 27.1654 35.8605 27.0983 36.1985C27.048 36.4013 27.0312 36.6041 27.0145 36.8069C27.0145 38.2602 27.0145 39.7136 27.0145 41.1669C27.0145 41.3866 27.0145 41.3866 26.7964 41.3697C26.5281 41.3528 26.2598 41.319 25.9747 41.319C25.6896 41.319 25.4548 41.3528 25.2032 41.3866C25.002 41.4035 25.002 41.4035 25.002 41.2007V37.0266C25.002 36.7224 24.9516 36.4182 24.851 36.1309C24.6665 35.6408 24.2473 35.438 23.7441 35.5225C23.3584 35.5901 23.0565 35.8605 22.9391 36.2323C22.8385 36.5027 22.7882 36.8069 22.7882 37.0942V41.2007C22.7882 41.4204 22.7882 41.4204 22.5702 41.4035C22.2851 41.3866 21.9832 41.3528 21.6981 41.3528C21.4465 41.3528 21.195 41.4035 20.9434 41.4204C20.8093 41.4373 20.8093 41.4204 20.7925 41.2852C20.7925 41.1838 20.7925 41.0824 20.7925 40.981L20.826 34.3903Z" fill="black"/>
<path d="M35.6664 40.5074C35.549 40.6426 35.4316 40.7778 35.3142 40.913C34.9452 41.2847 34.4421 41.5044 33.9222 41.5044C33.57 41.5213 33.2178 41.4706 32.8992 41.3523C32.3793 41.1664 31.9768 40.7102 31.8594 40.1694C31.742 39.7131 31.7588 39.2399 31.9265 38.8005C32.0774 38.4288 32.3625 38.1246 32.7147 37.9556C33.1507 37.7359 33.6203 37.5669 34.1067 37.4655C34.3918 37.381 34.6769 37.3134 34.962 37.2289C35.0794 37.1951 35.1968 37.1444 35.2974 37.0937C35.5825 36.9585 35.7334 36.6374 35.6664 36.3333C35.5154 35.5897 34.7943 35.0827 34.0396 35.201C33.5868 35.2686 33.1675 35.4714 32.8153 35.7756C32.7315 35.8432 32.6644 35.9446 32.5805 36.0291C32.5638 36.046 32.5302 36.0629 32.4967 36.0629C32.4799 36.0629 32.4464 36.0122 32.4296 35.9784C32.3793 35.7587 32.329 35.539 32.2787 35.3193C32.2451 35.201 32.3122 35.1334 32.396 35.0658C32.6979 34.8123 33.0501 34.6264 33.4191 34.4912C33.9557 34.2884 34.5092 34.204 35.0794 34.2209C35.6831 34.2209 36.2869 34.3898 36.8235 34.694C37.3267 34.9644 37.6453 35.4883 37.6453 36.0629C37.6621 36.7219 37.6621 37.381 37.6621 38.0401V40.1356C37.6621 40.237 37.6789 40.3215 37.6956 40.4229C37.7459 40.6088 37.9136 40.744 38.1149 40.744H38.1484C38.2155 40.744 38.3329 40.744 38.3497 40.7778C38.3665 40.8623 38.3832 40.9637 38.3665 41.065C38.3665 41.0988 38.3329 41.1326 38.2994 41.1495C37.8298 41.3692 37.3434 41.5551 36.8235 41.4875C36.4043 41.4199 36.0521 41.1833 35.8341 40.8116C35.767 40.7102 35.7334 40.6088 35.6664 40.5074ZM35.6664 37.6176C35.2303 37.7359 34.8278 37.9049 34.4253 38.1077C34.157 38.2598 33.9557 38.5133 33.8719 38.8174C33.8048 39.054 33.788 39.3075 33.8048 39.561C33.8216 39.7469 33.8551 39.9328 33.9222 40.1187C34.0228 40.3891 34.2744 40.575 34.5595 40.575C34.962 40.5919 35.3309 40.3553 35.4819 39.9666C35.5993 39.6624 35.6664 39.3244 35.6664 39.0033C35.6831 38.6147 35.6664 38.226 35.6664 37.8373V37.6176Z" fill="black"/>
<path d="M16.817 38.0143C16.6326 38.0312 16.4648 38.0481 16.2804 38.0819C15.8108 38.2002 15.4418 38.5888 15.3747 39.062C15.3077 39.4169 15.3077 39.7887 15.4083 40.1436C15.5425 40.6844 16.012 41.0899 16.5655 41.1068C16.6996 41.1068 16.8338 41.1068 16.9512 41.1068C17.555 41.0561 18.0245 40.3464 18.0413 39.8901C18.0413 39.7887 18.0413 39.6704 18.0413 39.569C18.0245 39.3493 17.9407 39.1634 17.7897 39.0113C17.7227 38.9437 17.6723 38.8761 17.622 38.7916C17.5885 38.724 17.622 38.6395 17.6891 38.6057C17.7227 38.5888 17.7394 38.5888 17.773 38.5888C17.8233 38.5888 17.8568 38.6057 17.9071 38.6226L19.8022 39.2986C19.819 39.3155 19.8358 39.3155 19.8526 39.3155C19.9364 39.3324 19.9699 39.3831 19.9364 39.4845C19.6178 40.6337 18.6786 41.4786 17.5214 41.6814C16.599 41.8504 15.6431 41.7997 14.7542 41.4955C14.402 41.3772 14.0834 41.1913 13.8151 40.9209C13.5467 40.6506 13.3622 40.2957 13.2952 39.9239C13.2113 39.4845 13.2616 39.0113 13.4461 38.5888C13.5803 38.2678 13.8151 38.0143 14.1169 37.8284C14.1505 37.8115 14.184 37.7946 14.2176 37.7608C14.2176 37.7439 14.2511 37.727 14.2176 37.7608C14.0666 37.6425 13.9157 37.5411 13.7647 37.4228C13.5635 37.2369 13.4461 36.9834 13.4126 36.713C13.3287 36.2061 13.4964 35.6822 13.8654 35.3104C14.2511 34.9048 14.771 34.6175 15.3244 34.4992C15.9282 34.3471 16.5319 34.2964 17.1525 34.3471C17.773 34.3809 18.3767 34.6006 18.8798 34.9724C19.3662 35.3104 19.6178 35.9019 19.5507 36.4933C19.5507 36.5609 19.5507 36.6285 19.5339 36.6792C19.4501 37.1693 19.0308 37.5073 18.5444 37.5073C17.9407 37.558 17.4208 37.1017 17.3872 36.4933C17.3705 36.3243 17.404 36.1554 17.4711 36.0033C17.555 35.7667 17.7394 35.5977 17.9742 35.5132C18.0748 35.4794 18.0748 35.4625 18.0078 35.378C17.8233 35.1414 17.555 34.9724 17.2531 34.9386C16.968 34.8879 16.6661 34.8879 16.3642 34.9555C15.9114 35.04 15.5592 35.4118 15.4586 35.8681C15.4083 36.0371 15.3915 36.2061 15.3915 36.375C15.4083 36.6792 15.5592 36.9665 15.8108 37.1524C16.0791 37.3552 16.381 37.4904 16.7164 37.5242C16.817 37.5411 16.8506 37.5749 16.8338 37.6763C16.817 37.7777 16.817 37.9298 16.817 38.0143Z" fill="black"/>
<path d="M52.8405 34.375V41.1854C52.8405 41.2192 52.8405 41.253 52.8405 41.2868C52.8405 41.3713 52.8069 41.3882 52.7398 41.3882C52.5218 41.3713 52.3206 41.3375 52.1025 41.3206C51.9516 41.3037 51.8007 41.3037 51.6497 41.3206C51.4317 41.3375 51.2137 41.3713 50.9957 41.3882C50.8615 41.4051 50.8447 41.3882 50.8447 41.2699V34.375C51.4988 34.4595 52.1696 34.4595 52.8405 34.375Z" fill="black"/>
<path d="M50.7303 31.4255C50.4955 31.4424 50.2775 31.3917 50.0762 31.2734C49.8918 31.1383 49.8079 30.8848 49.875 30.6651C49.9253 30.4454 50.1098 30.2764 50.3446 30.2595C50.5794 30.2426 50.7974 30.344 50.9316 30.5637C51.0154 30.682 51.0993 30.8003 51.1831 30.9186C51.2334 30.9862 51.2837 31.0538 51.3508 31.1045C51.4011 31.1552 51.5018 31.1721 51.5688 31.1214C51.6359 31.0876 51.6862 31.0031 51.6695 30.9355C51.6527 30.8679 51.6192 30.7834 51.6024 30.7158C51.5185 30.513 51.4347 30.3102 51.3676 30.0905C51.2502 29.7356 51.485 29.2962 52.0384 29.3976C52.1894 29.4314 52.3068 29.5328 52.3738 29.668C52.4745 29.8032 52.508 29.9891 52.4409 30.1581C52.3571 30.344 52.2732 30.5468 52.1894 30.7327C52.1558 30.8003 52.1391 30.8679 52.1055 30.9524C52.072 31.02 52.1055 31.1045 52.1726 31.1383C52.2397 31.189 52.3235 31.1721 52.3738 31.1214C52.4074 31.0876 52.4409 31.0538 52.4745 31.0031C52.5751 30.851 52.6757 30.6989 52.7931 30.5468C52.9105 30.3609 53.1285 30.2426 53.3466 30.2426C53.7155 30.2257 53.8832 30.4961 53.8665 30.8172C53.8497 31.1214 53.6149 31.3579 53.313 31.3917C53.1118 31.4255 52.8937 31.4424 52.6925 31.4593C52.5248 31.4762 52.4577 31.51 52.4409 31.6114C52.4242 31.7128 52.508 31.7635 52.6757 31.7804C52.8434 31.7973 53.0447 31.8311 53.2459 31.848C53.3298 31.8649 53.4136 31.8818 53.5143 31.8987C53.8832 32.0001 53.9503 32.3212 53.8497 32.6423C53.7491 32.8958 53.4472 33.031 53.1956 32.9127C53.0279 32.8282 52.877 32.7099 52.7764 32.5578C52.6925 32.4395 52.6086 32.3212 52.5248 32.2029C52.4242 32.0677 52.3235 32.0508 52.2397 32.1015C52.1558 32.1522 52.1391 32.2198 52.1894 32.3888C52.2565 32.5916 52.3571 32.7944 52.4409 32.9803C52.508 33.1324 52.5248 33.2845 52.4745 33.4535C52.4074 33.7407 52.1223 33.9097 51.8372 33.8421C51.7869 33.8252 51.7366 33.8083 51.703 33.7914C51.5688 33.7069 51.485 33.5548 51.4682 33.3859C51.4515 33.2338 51.485 33.0648 51.5521 32.9127C51.6192 32.7437 51.6862 32.5916 51.7533 32.4226C51.7701 32.355 51.7701 32.2705 51.7533 32.2029C51.7366 32.1353 51.6695 32.0846 51.6024 32.0846C51.5689 32.0846 51.5521 32.1015 51.5353 32.1184C51.485 32.1522 51.4515 32.186 51.4179 32.2367C51.3173 32.3888 51.1999 32.5578 51.0993 32.7099C50.9651 32.9296 50.7135 33.0479 50.462 33.031C50.2272 33.0141 50.0427 32.8113 50.0259 32.5747C49.9924 32.1353 50.2272 31.9663 50.5794 31.8987L51.116 31.8142C51.1663 31.8142 51.2167 31.7973 51.267 31.7635C51.3341 31.7297 51.3676 31.6452 51.3341 31.5776L51.3173 31.5607C51.267 31.4762 51.1831 31.4255 51.0825 31.4255C50.9316 31.4255 50.8477 31.4255 50.7303 31.4255Z" fill="black"/>
<path d="M33.6437 32.1742C44.286 32.1742 52.9133 26.1137 52.9133 18.6379C52.9133 11.162 44.286 5.10156 33.6437 5.10156C23.0013 5.10156 14.374 11.162 14.374 18.6379C14.374 26.1137 23.0013 32.1742 33.6437 32.1742Z" fill="url(#paint0_linear_5010_16157)"/>
<path d="M33.7773 5.10156C35.6724 6.89288 35.4712 9.46157 34.5991 10.8135C34.5991 10.8135 27.2535 18.1647 26.4317 18.9927C25.61 19.8208 24.872 21.0375 25.9957 22.305C27.1193 23.5724 35.337 32.5797 35.337 32.5797L33.7773 32.7487L25.1739 23.1838C25.1739 23.1838 23.9664 22.2205 23.2788 20.0405C22.5912 17.8605 23.4968 16.1199 24.3521 15.1228C25.2242 14.1089 33.7773 5.10156 33.7773 5.10156Z" fill="white"/>
<path d="M37.8874 9.54688C37.8874 9.54688 29.8038 17.6416 28.8982 19.0443C27.9926 20.43 27.523 24.7562 30.374 26.1419C30.374 26.1419 29.1665 23.8774 33.527 20.1765C37.8874 16.4756 41.5937 13.7548 37.8874 9.54688Z" fill="white"/>
<path d="M41.8102 13.9844C41.8102 13.9844 33.7267 22.0791 32.8211 23.4818C31.9154 24.8675 31.4459 29.1937 34.2969 30.5794C34.2969 30.5794 33.0894 28.3149 37.4498 24.614C41.8102 20.9131 45.5333 18.2092 41.8102 13.9844Z" fill="white"/>
<defs>
<linearGradient id="paint0_linear_5010_16157" x1="33.6458" y1="32.1382" x2="33.6458" y2="5.5253" gradientUnits="userSpaceOnUse">
<stop stop-color="#B54D87"/>
<stop offset="0.1" stop-color="#372F84"/>
<stop offset="0.28" stop-color="#4FC8EB"/>
<stop offset="0.39" stop-color="#00A350"/>
<stop offset="0.78" stop-color="#FEEE00"/>
<stop offset="0.98" stop-color="#EE312B"/>
</linearGradient>
</defs>
</svg>
