<svg width="47" height="47" viewBox="0 0 47 47" fill="none" xmlns="http://www.w3.org/2000/svg">
<path d="M23.128 1.96094L27.9159 14.1009C28.3579 15.2215 28.5787 15.7818 28.9172 16.2543C29.2171 16.6731 29.5837 17.0398 30.0026 17.3397C30.4751 17.6781 31.0354 17.8991 32.1561 18.341L44.296 23.1289L32.1561 27.9169C31.0354 28.3588 30.4751 28.5797 30.0026 28.9182C29.5837 29.218 29.2171 29.5847 28.9172 30.0036C28.5787 30.4761 28.3579 31.0364 27.9159 32.1571L23.128 44.2969L18.34 32.1571C17.8981 31.0364 17.6771 30.4761 17.3387 30.0036C17.0388 29.5847 16.6721 29.218 16.2533 28.9182C15.7808 28.5797 15.2205 28.3588 14.0999 27.9169L1.95996 23.1289L14.0999 18.341C15.2205 17.8991 15.7808 17.6781 16.2533 17.3397C16.6721 17.0398 17.0388 16.6731 17.3387 16.2543C17.6771 15.7818 17.8981 15.2215 18.34 14.1009L23.128 1.96094Z" stroke="black" stroke-width="3.92" stroke-linecap="round" stroke-linejoin="round"/>
<path d="M14.9011 18.4249L23.1331 1.96094L29.6011 18.4249L43.1251 21.9529L29.6011 29.0089L23.1331 44.2969L16.6651 29.0089L3.14111 21.9529L14.9011 18.4249Z" fill="black"/>
</svg>
