<svg width="50" height="50" viewBox="0 0 50 50" fill="none" xmlns="http://www.w3.org/2000/svg">
<path d="M14.112 7.056C14.112 10.9529 10.9529 14.112 7.056 14.112C3.15908 14.112 0 10.9529 0 7.056C0 3.15908 3.15908 0 7.056 0C10.9529 0 14.112 3.15908 14.112 7.056Z" fill="#2871F0"/>
<path d="M49.3962 42.3451C49.3962 46.2421 46.2372 49.4011 42.3402 49.4011C38.4432 49.4011 35.2842 46.2421 35.2842 42.3451C35.2842 38.448 38.4432 35.2891 42.3402 35.2891C46.2372 35.2891 49.3962 38.448 49.3962 42.3451Z" fill="#2871F0"/>
<path d="M28.2233 12.348C28.2233 9.4253 30.5926 7.056 33.5153 7.056C36.4379 7.056 38.8073 9.4253 38.8073 12.348V28.224H45.8633V12.348C45.8633 5.52838 40.335 0 33.5153 0C26.6957 0 21.1673 5.52838 21.1673 12.348V37.044C21.1673 39.9666 18.798 42.336 15.8753 42.336C12.9526 42.336 10.5833 39.9666 10.5833 37.044V21.168H3.52734V37.044C3.52734 43.8636 9.05572 49.392 15.8753 49.392C22.695 49.392 28.2233 43.8636 28.2233 37.044V12.348Z" fill="black"/>
</svg>
