<svg width="68" height="35" viewBox="0 0 68 35" fill="none" xmlns="http://www.w3.org/2000/svg">
<g clip-path="url(#clip0_4311_49096)">
<path d="M1.93636 28.9179H1.97062C2.1615 29.099 3.2012 30.3411 4.27375 31.4511C5.30366 32.5246 6.53213 33.7926 7.14738 34.4081C7.24736 34.5165 7.38231 34.6249 7.55011 34.6249C7.62772 34.6249 7.70673 34.527 7.70673 34.2983L7.8186 27.8317C7.82839 27.2533 7.9074 27.0723 8.17589 26.9869C8.29894 26.9513 8.37795 26.9512 8.47863 26.9512C8.5905 26.9512 8.64644 26.903 8.64644 26.8429C8.64644 26.7575 8.55764 26.7449 8.4227 26.7449C7.94096 26.7449 7.57249 26.77 7.46062 26.77C7.24806 26.77 6.72371 26.7449 6.2091 26.7449C6.06437 26.7449 5.96229 26.7575 5.96229 26.8429C5.96229 26.903 5.99655 26.9512 6.11891 26.9512C6.25385 26.9512 6.48878 26.9513 6.63351 27.0114C6.86844 27.1072 6.95724 27.2883 6.96912 27.9163L7.06977 32.4764H7.02502C6.88032 32.3309 5.57284 30.8839 4.90162 30.1726C3.47038 28.664 1.9951 27.0358 1.86994 26.9029C1.70353 26.7218 1.56859 26.5658 1.44693 26.5658C1.34485 26.5658 1.27913 26.7099 1.27913 26.9155L1.18893 32.9954C1.17774 33.8885 1.14488 34.1668 0.887581 34.2381C0.752638 34.2752 0.573644 34.2878 0.4387 34.2878C0.349903 34.2878 0.28418 34.3361 0.28418 34.3963C0.28418 34.4921 0.372977 34.5046 0.506522 34.5046C1.00994 34.5046 1.48049 34.4689 1.56929 34.4689C1.74828 34.4689 2.20765 34.5046 2.84391 34.5046C2.97746 34.5046 3.06765 34.4802 3.06765 34.3963C3.06765 34.3361 3.01172 34.2878 2.89985 34.2878C2.74393 34.2878 2.55445 34.2753 2.38524 34.2151C2.19576 34.1424 2.07271 33.901 2.05103 33.1037L1.93636 28.9179ZM12.1466 31.5238C12.1466 32.4645 12.1466 33.2737 12.1018 33.7074C12.069 34.0095 12.013 34.2025 11.811 34.2507C11.7222 34.2752 11.6103 34.2878 11.4642 34.2878C11.3425 34.2878 11.3076 34.3466 11.3076 34.3963C11.3076 34.469 11.3754 34.5046 11.4984 34.5046C11.6991 34.5046 11.9459 34.492 12.1794 34.4801C12.4144 34.4801 12.6283 34.4696 12.7388 34.4696C13.0297 34.4696 13.3981 34.4801 13.8806 34.4927C14.3609 34.5179 14.9531 34.5284 15.6915 34.5284C16.0599 34.5284 16.1487 34.5284 16.2159 34.264C16.2718 34.0598 16.3508 33.3583 16.3508 33.1296C16.3508 33.0212 16.3396 32.8884 16.262 32.8884C16.1942 32.8884 16.1718 32.9366 16.1487 33.0464C16.083 33.4674 15.9711 33.6857 15.7243 33.806C15.4677 33.927 15.0545 33.9375 14.7965 33.9375C13.7897 33.9375 13.489 33.7814 13.4659 33.082C13.4548 32.7806 13.4659 31.912 13.4659 31.5609V30.7405C13.4659 30.6803 13.4778 30.6321 13.5219 30.6321C13.7687 30.6321 14.8853 30.6566 15.065 30.6804C15.4335 30.7175 15.5565 30.8741 15.6125 31.0797C15.6355 31.2112 15.6355 31.3441 15.6467 31.4525C15.6467 31.5022 15.6684 31.5378 15.7355 31.5378C15.8243 31.5378 15.8362 31.3923 15.8362 31.3091C15.8362 31.2363 15.8593 30.8265 15.8802 30.6202C15.9376 30.1019 15.9593 29.9334 15.9593 29.8732C15.9593 29.8131 15.9264 29.7649 15.8802 29.7649C15.8362 29.7649 15.8026 29.825 15.7243 29.8977C15.6236 29.9935 15.4908 30.0293 15.2552 30.0538C15.0314 30.0768 13.7568 30.0768 13.5331 30.0768C13.4771 30.0768 13.4652 30.0286 13.4652 29.9684V27.4352C13.4652 27.3751 13.4883 27.3393 13.5331 27.3393C13.7337 27.3393 14.9084 27.3624 15.0762 27.3876C15.5677 27.4352 15.6467 27.5793 15.7243 27.7604C15.7803 27.8814 15.7914 28.0625 15.7914 28.1353C15.7914 28.2206 15.8026 28.2681 15.8705 28.2681C15.9481 28.2681 15.9711 28.1479 15.9823 28.0997C16.004 27.9787 16.0271 27.5317 16.0369 27.4233C16.0599 26.9526 16.1159 26.8324 16.1159 26.7596C16.1159 26.7114 16.1047 26.6638 16.0501 26.6638C16.004 26.6638 15.9481 26.6995 15.8921 26.7114C15.8145 26.724 15.6586 26.7596 15.4789 26.7714C15.288 26.784 13.1087 26.7714 12.7961 26.7714C12.5164 26.7714 11.89 26.7463 11.3747 26.7463C11.2299 26.7463 11.1509 26.7714 11.1509 26.8442C11.1509 26.9169 11.2181 26.9526 11.3187 26.9526C11.4635 26.9526 11.6327 26.9652 11.7103 26.9883C12.0228 27.0862 12.113 27.1939 12.1347 27.5436C12.1466 27.8681 12.1466 28.1598 12.1466 29.7145V31.5238ZM19.6712 31.5238C19.6712 32.4645 19.6712 33.2737 19.6272 33.7074C19.5943 34.0095 19.537 34.2025 19.3363 34.2507C19.2475 34.2752 19.1357 34.2878 18.9895 34.2878C18.8665 34.2878 18.8329 34.3466 18.8329 34.3963C18.8329 34.469 18.9 34.5046 19.0238 34.5046C19.2245 34.5046 19.4699 34.492 19.7048 34.4801C19.9397 34.4801 20.1523 34.4696 20.2642 34.4696C20.555 34.4696 20.9235 34.4801 21.4038 34.4927C21.8856 34.5179 22.4778 34.5284 23.2168 34.5284C23.5853 34.5284 23.6741 34.5284 23.7419 34.264C23.7979 34.0598 23.8769 33.3583 23.8769 33.1296C23.8769 33.0212 23.8657 32.8884 23.7867 32.8884C23.7195 32.8884 23.6979 32.9366 23.6748 33.0464C23.6077 33.4674 23.4972 33.6857 23.2504 33.806C22.9938 33.927 22.5792 33.9375 22.3226 33.9375C21.3157 33.9375 21.013 33.7814 20.992 33.082C20.9801 32.7806 20.992 31.912 20.992 31.5609V30.7405C20.992 30.6803 21.0032 30.6321 21.0479 30.6321C21.2934 30.6321 22.4114 30.6566 22.5911 30.6804C22.9595 30.7175 23.0833 30.8741 23.1392 31.0797C23.1623 31.2112 23.1623 31.3441 23.1735 31.4525C23.1735 31.5022 23.1952 31.5378 23.2623 31.5378C23.3511 31.5378 23.3623 31.3923 23.3623 31.3091C23.3623 31.2363 23.3853 30.8265 23.407 30.6202C23.4629 30.1019 23.486 29.9334 23.486 29.8732C23.486 29.8131 23.4532 29.7649 23.407 29.7649C23.3623 29.7649 23.328 29.825 23.2511 29.8977C23.1504 29.9935 23.0176 30.0293 22.7819 30.0538C22.5582 30.0768 21.2836 30.0768 21.0598 30.0768C21.0039 30.0768 20.9927 30.0286 20.9927 29.9684V27.4352C20.9927 27.3751 21.0144 27.3393 21.0598 27.3393C21.2605 27.3393 22.4351 27.3624 22.6029 27.3876C23.0945 27.4352 23.1735 27.5793 23.2511 27.7604C23.307 27.8814 23.3182 28.0625 23.3182 28.1353C23.3182 28.2206 23.328 28.2681 23.3958 28.2681C23.4748 28.2681 23.4979 28.1479 23.5077 28.0997C23.5308 27.9787 23.5538 27.5317 23.5636 27.4233C23.5867 26.9526 23.6426 26.8324 23.6426 26.7596C23.6426 26.7114 23.6307 26.6638 23.5755 26.6638C23.5308 26.6638 23.4748 26.6995 23.4189 26.7114C23.3413 26.724 23.1833 26.7596 23.0043 26.7714C22.8148 26.784 20.6354 26.7714 20.3215 26.7714C20.0418 26.7714 19.4167 26.7463 18.9021 26.7463C18.756 26.7463 18.6784 26.7714 18.6784 26.8442C18.6784 26.9169 18.7455 26.9526 18.8462 26.9526C18.9909 26.9526 19.1601 26.9652 19.2377 26.9883C19.5503 27.0862 19.6405 27.1939 19.6622 27.5436C19.6733 27.8681 19.6733 28.1598 19.6733 29.7145V31.5238H19.6712ZM26.8155 33.4786C26.7715 33.8178 26.682 34.2276 26.4142 34.2633C26.2562 34.2878 26.1905 34.2878 26.1115 34.2878C26.0108 34.2878 25.9555 34.336 25.9555 34.3836C25.9555 34.4794 26.0346 34.5046 26.1345 34.5046C26.4471 34.5046 26.9176 34.4689 27.1064 34.4689C27.2854 34.4689 27.7329 34.5046 28.1461 34.5046C28.2908 34.5046 28.381 34.4801 28.381 34.3836C28.381 34.336 28.3132 34.2878 28.2244 34.2878C28.1356 34.2878 28.0454 34.2752 27.8776 34.2381C27.7098 34.2025 27.5749 34.1297 27.5749 33.9367C27.5749 33.7681 27.5882 33.6367 27.6091 33.4555L28.0783 29.497H28.1132C28.4377 30.2089 29.0194 31.4511 29.097 31.6449C29.2089 31.9344 29.992 33.5031 30.2255 33.9738C30.3835 34.2878 30.4954 34.4921 30.617 34.4921C30.7303 34.4921 30.7848 34.3963 31.0086 33.913L33.1222 29.376H33.1565L33.7039 33.8052C33.7368 34.0948 33.7137 34.2151 33.6578 34.2381C33.5921 34.2633 33.5459 34.2983 33.5459 34.3465C33.5459 34.4088 33.6019 34.4563 33.8368 34.4689C34.2283 34.492 35.6267 34.5277 35.8714 34.5277C36.0176 34.5277 36.1295 34.492 36.1295 34.4088C36.1295 34.3465 36.0623 34.3109 35.9714 34.3109C35.8498 34.3109 35.6931 34.2983 35.4135 34.2151C35.1107 34.1193 35.0219 33.8402 34.9317 33.2016L34.0368 26.8911C34.0039 26.6743 33.892 26.5665 33.813 26.5665C33.7242 26.5665 33.6354 26.6498 33.5564 26.8184L30.9177 32.5625L28.2789 26.8911C28.144 26.6142 28.0769 26.5665 27.9776 26.5665C27.8986 26.5665 27.8084 26.6623 27.7867 26.8309L26.8155 33.4786ZM40.7043 28.7123C40.7155 28.6766 40.7274 28.6164 40.7616 28.6164C40.7833 28.6164 40.7944 28.6766 40.8063 28.7123L42.7619 34.0591C42.806 34.178 42.7403 34.2759 42.6731 34.2878C42.5711 34.2983 42.5501 34.3361 42.5501 34.3963C42.5501 34.469 42.662 34.469 42.841 34.4795C43.6682 34.504 44.3841 34.5039 44.7309 34.5039C45.0993 34.5039 45.1553 34.4794 45.1553 34.3955C45.1553 34.3228 45.1091 34.2872 45.0203 34.2872C44.9084 34.2872 44.7966 34.2746 44.6518 34.2501C44.4728 34.2144 44.1932 34.0815 43.8128 33.1527C43.1877 31.5959 41.5425 27.4457 41.309 26.8778C41.2069 26.6491 41.1629 26.5532 41.0182 26.5532C40.9175 26.5532 40.8392 26.6736 40.7273 26.9631L38.1565 33.3695C37.9544 33.8877 37.7865 34.2018 37.3404 34.2745C37.2502 34.2745 37.1384 34.2872 37.0496 34.2872C36.9706 34.2872 36.9378 34.3353 36.9378 34.3955C36.9378 34.4787 36.9937 34.5039 37.1168 34.5039C37.63 34.5039 38.1564 34.4683 38.2564 34.4683C38.5689 34.4683 39.0276 34.5039 39.352 34.5039C39.4527 34.5039 39.5086 34.4794 39.5086 34.3955C39.5086 34.3353 39.4869 34.2872 39.3639 34.2872H39.2178C38.9164 34.2872 38.8262 34.1774 38.8262 33.9962C38.8262 33.8759 38.8724 33.6234 38.9723 33.3695L40.7043 28.7123ZM48.0394 28.9179H48.0723C48.2632 29.099 49.3028 30.3411 50.3768 31.4511C51.4053 32.5246 52.6352 33.7926 53.2491 34.4081C53.3511 34.5165 53.484 34.6249 53.6518 34.6249C53.7308 34.6249 53.8084 34.527 53.8084 34.2983L53.9203 27.8317C53.9322 27.2533 54.0091 27.0723 54.279 26.9869C54.4006 26.9513 54.4796 26.9512 54.5803 26.9512C54.6922 26.9512 54.7481 26.903 54.7481 26.8429C54.7481 26.7575 54.6593 26.7449 54.5244 26.7449C54.044 26.7449 53.6756 26.77 53.5637 26.77C53.3518 26.77 52.8254 26.7449 52.3121 26.7449C52.166 26.7449 52.0653 26.7575 52.0653 26.8429C52.0653 26.903 52.0982 26.9512 52.222 26.9512C52.3569 26.9512 52.5918 26.9513 52.7366 27.0114C52.9701 27.1072 53.061 27.2883 53.0722 27.9163L53.1728 32.4764H53.1282C52.982 32.3309 51.6738 30.8839 51.0026 30.1726C49.5713 28.664 48.0961 27.0358 47.9724 26.9029C47.8046 26.7218 47.671 26.5658 47.548 26.5658C47.4473 26.5658 47.3801 26.7099 47.3801 26.9155L47.2899 32.9954C47.2802 33.8885 47.2459 34.1668 46.9886 34.2381C46.8537 34.2752 46.676 34.2878 46.541 34.2878C46.4523 34.2878 46.3844 34.3361 46.3844 34.3963C46.3844 34.4921 46.4733 34.5046 46.6082 34.5046C47.1117 34.5046 47.5821 34.4689 47.6709 34.4689C47.8485 34.4689 48.3073 34.5046 48.9456 34.5046C49.0792 34.5046 49.1694 34.4802 49.1694 34.3963C49.1694 34.3361 49.112 34.2878 49.0001 34.2878C48.8442 34.2878 48.6548 34.2753 48.487 34.2151C48.2975 34.1424 48.1744 33.901 48.1513 33.1037L48.0394 28.9179ZM57.8581 25.3594C57.5113 25.3594 57.2876 25.3594 57.2876 25.5405C57.2876 25.7217 57.5672 26.3232 57.7022 27.8325C57.7469 28.2549 57.791 28.4361 57.8588 28.4361C57.9245 28.4361 57.9693 28.2549 58.0147 27.8325C58.1483 26.3239 58.428 25.7217 58.428 25.5405C58.4272 25.3594 58.2042 25.3594 57.8581 25.3594ZM63.0552 34.6375C63.5803 34.6375 64.2284 34.5774 64.6983 34.2151C65.4135 33.6717 65.682 33.0562 65.682 32.296C65.682 31.3679 65.2794 30.5832 63.9831 29.8111L63.5803 29.5697C62.6972 29.0389 62.5406 28.6766 62.5406 28.2192C62.5406 27.5177 63.1776 27.1205 63.8831 27.1205C64.5201 27.1205 64.8325 27.4101 64.9786 27.6031C65.1905 27.8675 65.2352 28.1821 65.2352 28.2793C65.2352 28.4003 65.2695 28.4605 65.3359 28.4605C65.4149 28.4605 65.459 28.3507 65.459 28.1339C65.459 27.3261 65.4932 27.0366 65.4932 26.9037C65.4932 26.831 65.4471 26.7953 65.3583 26.7708C65.1017 26.6981 64.5983 26.6023 63.9599 26.6023C62.5965 26.6023 61.4778 27.41 61.4778 28.6647C61.4778 29.5697 61.8582 30.2572 63.0209 30.9937L63.5915 31.356C64.4633 31.9113 64.5641 32.3568 64.5641 32.8031C64.5641 33.5269 64.0495 34.1074 63.2007 34.1074C62.5854 34.1074 61.8484 33.8535 61.6366 33.0939C61.5793 32.9128 61.5463 32.6946 61.5463 32.5631C61.5463 32.4904 61.5344 32.3924 61.4456 32.3924C61.3666 32.3924 61.3226 32.5023 61.3226 32.659C61.3114 32.8275 61.2667 33.4668 61.2667 34.0221C61.2667 34.2508 61.2996 34.299 61.4576 34.3718C61.8806 34.5774 62.4839 34.6375 63.0552 34.6375Z" fill="black"/>
<path fill-rule="evenodd" clip-rule="evenodd" d="M47.8721 21.2002C44.0818 21.2002 40.9131 18.155 39.7126 14.7329C39.5371 14.235 36.6207 17.6116 36.862 16.8514C37.6597 14.7392 39.2308 10.6562 40.3397 8.5713C40.7096 7.87471 41.7374 6.77524 42.6582 7.39563C42.7435 7.46137 42.8302 7.52082 42.9148 7.61314C41.7836 11.2765 43.7909 17.3598 47.8721 21.2002ZM37.573 7.16693C39.5454 3.9539 42.4058 4.02944 43.1882 6.95149C41.9681 5.3359 40.3754 7.04034 39.7559 8.20482C37.0277 13.3341 35.6775 19.628 34.7553 18.6327C33.531 17.313 32.5396 15.8086 31.7719 14.7287C31.0692 13.7391 29.3436 21.196 23.3082 21.196C24.4108 20.4078 27.411 16.9556 27.9117 13.2083C28.5346 8.55032 24.6136 9.23363 24.6136 10.8996C24.8443 9.86238 26.6321 9.70851 27.1404 10.7289C27.7676 11.9885 26.879 13.437 25.8246 13.437C23.5256 13.437 22.8768 16.1443 24.2996 18.2823C20.1751 14.591 22.0252 11.9438 21.3791 9.67774C21.0722 8.61257 20.3338 8.78252 20.0129 9.00562C19.6479 9.25671 19.2942 9.30916 19.1033 9.06088C19.2054 8.95807 19.3046 8.81189 19.3123 8.62586C19.3137 8.5713 19.276 8.52654 19.2235 8.52305C19.1725 8.52095 19.1319 8.56361 19.1291 8.61886C19.1256 8.75384 19.0403 8.86575 18.9571 8.94198C18.6663 8.79301 18.1475 8.36149 18.632 7.6586C18.7991 7.42221 18.3908 7.10119 18.3614 7.92926C18.3579 8.01319 18.2831 8.05096 18.2496 8.06495C17.4672 6.60809 19.8472 5.01768 19.8836 4.00916C19.4214 5.12888 18.4516 4.39032 18.9585 3.88816C18.6558 3.35103 18.8711 2.68101 19.6969 2.47399C19.6773 1.79069 20.1723 1.22069 20.8058 1.19691H20.8072C20.9939 0.813643 21.3589 0.543677 21.7924 0.52969C21.9902 0.526193 22.1755 0.572352 22.3419 0.661175C22.5405 0.456953 22.8034 0.330363 23.0956 0.320572C23.4508 0.31078 23.6962 0.581444 23.9249 0.570954C24.2178 0.562561 24.9869 0.226854 25.7421 0.665371C24.5374 0.431076 23.1726 1.35497 22.7426 2.49218C22.7426 2.49218 22.9146 2.16906 23.3432 1.82286L23.5851 2.02219L23.5103 1.69487C23.6906 1.56898 23.9004 1.44519 24.1514 1.33749L24.3849 1.64871L24.3486 1.25496C24.4793 1.2088 24.6178 1.16264 24.7681 1.12557C24.8919 1.0955 25.0331 1.07591 25.1834 1.06962L25.3142 1.55849L25.4302 1.07102C25.6756 1.08431 25.942 1.12837 26.2126 1.2088L26.2021 1.6704L26.4685 1.29412C26.672 1.37246 26.9908 1.52772 27.2195 1.73544L27.0852 2.18025L27.3977 1.90959C27.5879 2.10751 27.7711 2.32502 27.9473 2.56701L27.646 2.96287L28.1032 2.79571C28.1997 2.94538 28.2885 3.10135 28.3738 3.2664C28.413 3.39229 28.4507 3.52098 28.4787 3.66016L28.0669 3.89795L28.5241 3.93502C28.5423 4.077 28.5549 4.22107 28.5605 4.37354C28.5619 4.5365 28.5563 4.69945 28.5423 4.86171L28.1214 4.97361L28.5116 5.11419C28.4661 5.43381 28.3822 5.74504 28.2703 6.04438L27.8382 6.00382L28.1529 6.31784C28.1025 6.43044 28.0438 6.54444 27.9823 6.65355C27.9082 6.78503 27.8264 6.91092 27.7369 7.03195L27.3831 6.90953L27.5844 7.22358C27.3873 7.46347 27.1621 7.67469 26.9118 7.85303L26.6594 7.64531L26.7391 7.97123C26.4811 8.13908 26.2035 8.26987 25.9057 8.37268L25.7246 8.08873L25.7169 8.43143C25.4428 8.50976 25.1527 8.55382 24.8583 8.56991L24.7499 8.28385L24.6555 8.56991C24.3276 8.56501 24.0388 8.50416 23.792 8.39785L23.8172 8.14957L23.6487 8.33421C23.3473 8.17265 23.1054 7.94745 22.9264 7.69707L23.0845 7.45857L22.8376 7.56418C22.674 7.29911 22.5671 7.01166 22.5055 6.74027C22.4999 6.70111 22.4908 6.66194 22.4859 6.62208L22.7314 6.48919L22.4657 6.46961C22.437 6.12761 22.4804 5.77162 22.602 5.452L22.8544 5.48137L22.6649 5.30652C22.8139 5.00299 23.039 4.74771 23.3418 4.59664L23.4851 4.77709L23.4543 4.54699C23.4907 4.5351 23.5235 4.51901 23.5613 4.50992C23.8892 4.41061 24.1745 4.412 24.4108 4.48124L24.4066 4.67288L24.4919 4.50432C24.8639 4.6407 25.0981 4.94914 25.1736 5.28344L25.0541 5.35408L25.1862 5.35758C25.2435 5.73945 25.0932 6.1409 24.6961 6.34302C24.9086 5.62265 24.0116 5.23029 23.562 5.74574C23.1299 6.24091 23.5494 7.26065 24.3367 7.36556C25.2526 7.48585 26.7104 6.97317 26.6608 5.20162C26.614 3.45174 24.5758 2.91391 23.9633 4.00356C23.3299 3.93082 22.8845 4.31619 22.7104 4.48474C22.1217 5.15056 21.9581 6.05627 22.1035 6.8263C22.316 7.95304 23.2306 9.06507 24.8031 9.01612C26.2546 8.96926 27.5516 8.20203 28.2871 6.95778C28.2871 6.95778 28.6556 6.3703 28.8828 5.49326C29.1513 4.45886 29.7309 3.12583 30.6776 2.77893C28.8828 5.49256 33.5618 11.3192 34.4917 12.3242C34.9203 12.7872 35.8607 9.96029 37.573 7.16693ZM21.5693 4.20009C21.5707 4.11336 21.5092 4.03713 21.4295 4.03293C21.0883 4.02384 20.8771 4.15253 20.7722 4.27422C20.6233 4.44697 20.5548 4.70505 20.587 4.97921C20.596 5.05754 20.6562 5.11419 20.7254 5.11769C20.7338 5.11769 20.7429 5.11769 20.7506 5.11559C20.8317 5.1051 20.8876 5.02607 20.8771 4.93795C20.8554 4.7596 20.8953 4.59524 20.9855 4.48894C21.075 4.38753 21.2106 4.34067 21.3924 4.34836C21.4001 4.34836 21.405 4.34696 21.4155 4.34836C21.4938 4.35186 21.563 4.28472 21.5693 4.20009Z" fill="black"/>
<path fill-rule="evenodd" clip-rule="evenodd" d="M66.3273 26.1458C65.8889 26.1486 65.5323 25.7954 65.5288 25.3562C65.526 24.917 65.8791 24.5568 66.3154 24.5547C66.758 24.5526 67.1174 24.9037 67.1202 25.3415C67.1223 25.7877 66.7727 26.143 66.3273 26.1458ZM66.3252 26.043C66.7091 26.0416 67.0181 25.7318 67.0167 25.3499C67.0153 24.9645 66.7049 24.6561 66.3203 24.6582C65.9385 24.6603 65.6316 24.9694 65.6316 25.3513C65.6323 25.7339 65.9427 26.0444 66.3252 26.043Z" fill="black"/>
<path fill-rule="evenodd" clip-rule="evenodd" d="M66.4804 25.4662C66.5622 25.5585 66.6405 25.6481 66.7258 25.7446C66.6594 25.7446 66.6027 25.7453 66.5461 25.7439C66.5391 25.7439 66.5307 25.7327 66.5244 25.7257C66.4594 25.6516 66.3944 25.5774 66.33 25.5026C66.3161 25.4858 66.3021 25.4788 66.2804 25.4795C66.244 25.4809 66.207 25.4802 66.1664 25.4802C66.1664 25.5697 66.1664 25.6565 66.1664 25.7439C66.1161 25.7439 66.0699 25.7439 66.021 25.7439C66.021 25.4816 66.021 25.2186 66.021 24.9564C66.0245 24.955 66.028 24.9536 66.0308 24.9536C66.1671 24.955 66.3049 24.9487 66.4405 24.9606C66.6656 24.9801 66.7251 25.2039 66.6461 25.3536C66.6181 25.4061 66.5727 25.4382 66.5167 25.455C66.5069 25.4571 66.4964 25.4606 66.4804 25.4662ZM66.1678 25.3424C66.2573 25.3424 66.3447 25.3473 66.4314 25.341C66.495 25.3361 66.5328 25.2816 66.5314 25.2172C66.5307 25.155 66.4915 25.1011 66.4307 25.0962C66.344 25.0899 66.2566 25.0948 66.1678 25.0948C66.1678 25.1774 66.1678 25.2585 66.1678 25.3424Z" fill="black"/>
</g>
<defs>
<clipPath id="clip0_4311_49096">
<rect width="67.4018" height="34.8296" fill="white"/>
</clipPath>
</defs>
</svg>
