<svg width="68" height="55" viewBox="0 0 68 55" fill="none" xmlns="http://www.w3.org/2000/svg">
<path d="M1.65609 38.5976H1.69035C1.88123 38.7787 2.92092 40.0208 3.99348 41.1307C5.02338 42.2043 6.25186 43.4723 6.86711 44.0878C6.96709 44.1962 7.10203 44.3046 7.26984 44.3046C7.34745 44.3046 7.42646 44.2067 7.42646 43.978L7.53833 37.5114C7.54812 36.933 7.62712 36.7519 7.89561 36.6666C8.01867 36.6309 8.09768 36.6309 8.19836 36.6309C8.31023 36.6309 8.36617 36.5827 8.36617 36.5225C8.36617 36.4372 8.27737 36.4246 8.14243 36.4246C7.66068 36.4246 7.29221 36.4497 7.18034 36.4497C6.96779 36.4497 6.44343 36.4246 5.92883 36.4246C5.7841 36.4246 5.68202 36.4372 5.68202 36.5225C5.68202 36.5827 5.71628 36.6309 5.83863 36.6309C5.97358 36.6309 6.20851 36.6309 6.35324 36.6911C6.58816 36.7869 6.67696 36.968 6.68885 37.596L6.7895 42.1561H6.74475C6.60005 42.0106 5.29257 40.5635 4.62135 39.8523C3.19011 38.3437 1.71482 36.7155 1.58967 36.5826C1.42326 36.4015 1.28832 36.2455 1.16666 36.2455C1.06458 36.2455 0.998853 36.3896 0.998853 36.5952L0.908658 42.6751C0.897471 43.5682 0.864609 43.8465 0.607308 43.9178C0.472365 43.9549 0.29337 43.9675 0.158427 43.9675C0.06963 43.9675 0.00390625 44.0158 0.00390625 44.0759C0.00390625 44.1718 0.0927032 44.1843 0.226248 44.1843C0.729666 44.1843 1.20022 44.1486 1.28902 44.1486C1.46801 44.1486 1.92738 44.1843 2.56364 44.1843C2.69718 44.1843 2.78738 44.1599 2.78738 44.0759C2.78738 44.0158 2.73144 43.9675 2.61957 43.9675C2.46365 43.9675 2.27417 43.955 2.10497 43.8948C1.91549 43.8221 1.79243 43.5807 1.77076 42.7834L1.65609 38.5976ZM11.8663 41.2035C11.8663 42.1442 11.8663 42.9534 11.8216 43.387C11.7887 43.6892 11.7328 43.8821 11.5307 43.9304C11.4419 43.9549 11.33 43.9675 11.1839 43.9675C11.0622 43.9675 11.0273 44.0263 11.0273 44.0759C11.0273 44.1487 11.0951 44.1843 11.2182 44.1843C11.4188 44.1843 11.6656 44.1717 11.8992 44.1598C12.1341 44.1598 12.348 44.1493 12.4585 44.1493C12.7494 44.1493 13.1179 44.1598 13.6003 44.1724C14.0806 44.1976 14.6728 44.2081 15.4112 44.2081C15.7797 44.2081 15.8685 44.2081 15.9356 43.9437C15.9915 43.7395 16.0705 43.038 16.0705 42.8093C16.0705 42.7009 16.0593 42.5681 15.9817 42.5681C15.9139 42.5681 15.8915 42.6163 15.8685 42.7261C15.8027 43.1471 15.6909 43.3654 15.444 43.4857C15.1874 43.6067 14.7742 43.6171 14.5162 43.6171C13.5094 43.6171 13.2087 43.4611 13.1857 42.7617C13.1745 42.4603 13.1857 41.5916 13.1857 41.2406V40.4202C13.1857 40.36 13.1976 40.3118 13.2416 40.3118C13.4884 40.3118 14.605 40.3363 14.7847 40.3601C15.1532 40.3972 15.2762 40.5538 15.3322 40.7594C15.3553 40.8909 15.3553 41.0238 15.3664 41.1322C15.3664 41.1819 15.3881 41.2175 15.4552 41.2175C15.544 41.2175 15.5559 41.072 15.5559 40.9888C15.5559 40.916 15.579 40.5062 15.6 40.2999C15.6573 39.7816 15.679 39.6131 15.679 39.5529C15.679 39.4928 15.6461 39.4446 15.6 39.4446C15.5559 39.4446 15.5224 39.5047 15.444 39.5774C15.3434 39.6732 15.2105 39.709 14.9749 39.7334C14.7512 39.7565 13.4765 39.7564 13.2528 39.7564C13.1969 39.7564 13.185 39.7083 13.185 39.6481V37.1149C13.185 37.0548 13.208 37.019 13.2528 37.019C13.4535 37.019 14.6281 37.0421 14.7959 37.0673C15.2874 37.1149 15.3664 37.259 15.444 37.4401C15.5 37.5611 15.5112 37.7422 15.5112 37.8149C15.5112 37.9003 15.5224 37.9478 15.5902 37.9478C15.6678 37.9478 15.6909 37.8276 15.7021 37.7793C15.7237 37.6583 15.7468 37.2114 15.7566 37.103C15.7797 36.6323 15.8356 36.512 15.8356 36.4393C15.8356 36.3911 15.8244 36.3435 15.7699 36.3435C15.7237 36.3435 15.6678 36.3792 15.6119 36.3911C15.5342 36.4036 15.3783 36.4392 15.1986 36.4511C15.0078 36.4637 12.8284 36.4511 12.5158 36.4511C12.2362 36.4511 11.6097 36.426 11.0944 36.426C10.9497 36.426 10.8707 36.4511 10.8707 36.5239C10.8707 36.5966 10.9378 36.6323 11.0385 36.6323C11.1832 36.6323 11.3524 36.6449 11.43 36.6679C11.7425 36.7659 11.8327 36.8736 11.8544 37.2233C11.8663 37.5478 11.8663 37.8395 11.8663 39.3942V41.2035ZM19.391 41.2035C19.391 42.1442 19.391 42.9534 19.3469 43.387C19.3141 43.6892 19.2567 43.8821 19.0561 43.9304C18.9673 43.9549 18.8554 43.9675 18.7093 43.9675C18.5862 43.9675 18.5526 44.0263 18.5526 44.0759C18.5526 44.1487 18.6198 44.1843 18.7435 44.1843C18.9442 44.1843 19.1896 44.1717 19.4245 44.1598C19.6595 44.1598 19.872 44.1493 19.9839 44.1493C20.2747 44.1493 20.6432 44.1598 21.1236 44.1724C21.6053 44.1976 22.1975 44.2081 22.9366 44.2081C23.305 44.2081 23.3938 44.2081 23.4616 43.9437C23.5176 43.7395 23.5966 43.038 23.5966 42.8093C23.5966 42.7009 23.5854 42.5681 23.5064 42.5681C23.4393 42.5681 23.4176 42.6163 23.3945 42.7261C23.3274 43.1471 23.2169 43.3654 22.9701 43.4857C22.7135 43.6067 22.2989 43.6171 22.0423 43.6171C21.0355 43.6171 20.7327 43.4611 20.7117 42.7617C20.6998 42.4603 20.7117 41.5916 20.7117 41.2406V40.4202C20.7117 40.36 20.7229 40.3118 20.7677 40.3118C21.0131 40.3118 22.1311 40.3363 22.3108 40.3601C22.6792 40.3972 22.803 40.5538 22.8589 40.7594C22.882 40.8909 22.882 41.0238 22.8932 41.1322C22.8932 41.1819 22.9149 41.2175 22.982 41.2175C23.0708 41.2175 23.082 41.072 23.082 40.9888C23.082 40.916 23.1051 40.5062 23.1267 40.2999C23.1827 39.7816 23.2057 39.6131 23.2057 39.5529C23.2057 39.4928 23.1729 39.4446 23.1267 39.4446C23.082 39.4446 23.0477 39.5047 22.9708 39.5774C22.8701 39.6732 22.7373 39.709 22.5017 39.7334C22.2779 39.7565 21.0033 39.7564 20.7796 39.7564C20.7236 39.7564 20.7124 39.7083 20.7124 39.6481V37.1149C20.7124 37.0548 20.7341 37.019 20.7796 37.019C20.9802 37.019 22.1549 37.0421 22.3227 37.0673C22.8142 37.1149 22.8932 37.259 22.9708 37.4401C23.0267 37.5611 23.0379 37.7422 23.0379 37.8149C23.0379 37.9003 23.0477 37.9478 23.1155 37.9478C23.1946 37.9478 23.2176 37.8276 23.2274 37.7793C23.2505 37.6583 23.2736 37.2114 23.2833 37.103C23.3064 36.6323 23.3624 36.512 23.3624 36.4393C23.3624 36.3911 23.3505 36.3435 23.2952 36.3435C23.2505 36.3435 23.1946 36.3792 23.1386 36.3911C23.061 36.4036 22.903 36.4392 22.724 36.4511C22.5345 36.4637 20.3551 36.4511 20.0412 36.4511C19.7615 36.4511 19.1365 36.426 18.6219 36.426C18.4757 36.426 18.3981 36.4511 18.3981 36.5239C18.3981 36.5966 18.4652 36.6323 18.5659 36.6323C18.7107 36.6323 18.8799 36.6449 18.9575 36.6679C19.27 36.7659 19.3602 36.8736 19.3819 37.2233C19.3931 37.5478 19.3931 37.8395 19.3931 39.3942V41.2035H19.391ZM26.5353 43.1583C26.4912 43.4975 26.4017 43.9073 26.1339 43.943C25.9759 43.9675 25.9102 43.9675 25.8312 43.9675C25.7305 43.9675 25.6753 44.0157 25.6753 44.0633C25.6753 44.1591 25.7543 44.1843 25.8543 44.1843C26.1668 44.1843 26.6374 44.1486 26.8261 44.1486C27.0051 44.1486 27.4526 44.1843 27.8658 44.1843C28.0106 44.1843 28.1008 44.1598 28.1008 44.0633C28.1008 44.0157 28.0329 43.9675 27.9441 43.9675C27.8553 43.9675 27.7651 43.9549 27.5973 43.9178C27.4295 43.8821 27.2946 43.8094 27.2946 43.6164C27.2946 43.4478 27.3079 43.3163 27.3289 43.1352L27.798 39.1767H27.833C28.1574 39.8886 28.7391 41.1308 28.8167 41.3245C28.9286 41.6141 29.7117 43.1828 29.9452 43.6534C30.1032 43.9675 30.2151 44.1718 30.3368 44.1718C30.45 44.1718 30.5046 44.0759 30.7283 43.5927L32.842 39.0557H32.8762L33.4237 43.4849C33.4565 43.7744 33.4335 43.8947 33.3775 43.9178C33.3118 43.943 33.2657 43.978 33.2657 44.0262C33.2657 44.0885 33.3216 44.136 33.5565 44.1486C33.9481 44.1717 35.3464 44.2074 35.5912 44.2074C35.7373 44.2074 35.8492 44.1717 35.8492 44.0885C35.8492 44.0262 35.782 43.9906 35.6911 43.9906C35.5695 43.9906 35.4129 43.978 35.1332 43.8948C34.8304 43.799 34.7416 43.5199 34.6515 42.8813L33.7565 36.5708C33.7236 36.354 33.6118 36.2462 33.5327 36.2462C33.444 36.2462 33.3552 36.3295 33.2761 36.4981L30.6374 42.2421L27.9987 36.5708C27.8637 36.2938 27.7966 36.2462 27.6973 36.2462C27.6183 36.2462 27.5281 36.342 27.5064 36.5106L26.5353 43.1583ZM40.424 38.3919C40.4352 38.3563 40.4471 38.2961 40.4814 38.2961C40.503 38.2961 40.5141 38.3563 40.526 38.3919L42.4817 43.7388C42.5257 43.8577 42.46 43.9556 42.3929 43.9675C42.2908 43.978 42.2698 44.0158 42.2698 44.0759C42.2698 44.1487 42.3817 44.1487 42.5607 44.1592C43.3879 44.1837 44.1038 44.1836 44.4506 44.1836C44.819 44.1836 44.875 44.1591 44.875 44.0752C44.875 44.0024 44.8288 43.9668 44.74 43.9668C44.6282 43.9668 44.5163 43.9543 44.3716 43.9298C44.1926 43.8941 43.9129 43.7612 43.5325 42.8324C42.9075 41.2756 41.2623 37.1254 41.0287 36.5575C40.9267 36.3288 40.8826 36.2329 40.7379 36.2329C40.6372 36.2329 40.5589 36.3533 40.447 36.6428L37.8762 43.0492C37.6741 43.5674 37.5062 43.8814 37.0602 43.9542C36.97 43.9542 36.8581 43.9668 36.7693 43.9668C36.6903 43.9668 36.6575 44.015 36.6575 44.0752C36.6575 44.1584 36.7134 44.1836 36.8365 44.1836C37.3497 44.1836 37.8761 44.148 37.9761 44.148C38.2886 44.148 38.7473 44.1836 39.0717 44.1836C39.1724 44.1836 39.2283 44.1591 39.2283 44.0752C39.2283 44.015 39.2067 43.9668 39.0836 43.9668H38.9375C38.6361 43.9668 38.5459 43.857 38.5459 43.6759C38.5459 43.5556 38.5921 43.3031 38.6921 43.0492L40.424 38.3919ZM47.7591 38.5976H47.7921C47.9829 38.7787 49.0226 40.0208 50.0965 41.1307C51.125 42.2043 52.3549 43.4723 52.9688 44.0878C53.0709 44.1962 53.2037 44.3046 53.3715 44.3046C53.4505 44.3046 53.5281 44.2067 53.5281 43.978L53.64 37.5114C53.6519 36.933 53.7288 36.7519 53.9987 36.6666C54.1203 36.6309 54.1994 36.6309 54.3 36.6309C54.4119 36.6309 54.4678 36.5827 54.4678 36.5225C54.4678 36.4372 54.3791 36.4246 54.2441 36.4246C53.7638 36.4246 53.3953 36.4497 53.2834 36.4497C53.0716 36.4497 52.5451 36.4246 52.0319 36.4246C51.8857 36.4246 51.7851 36.4372 51.7851 36.5225C51.7851 36.5827 51.8179 36.6309 51.9417 36.6309C52.0766 36.6309 52.3116 36.6309 52.4563 36.6911C52.6898 36.7869 52.7807 36.968 52.7919 37.596L52.8926 42.1561H52.8479C52.7018 42.0106 51.3935 40.5635 50.7223 39.8523C49.2911 38.3437 47.8158 36.7155 47.6921 36.5826C47.5243 36.4015 47.3907 36.2455 47.2677 36.2455C47.167 36.2455 47.0998 36.3896 47.0998 36.5952L47.0097 42.6751C46.9999 43.5682 46.9656 43.8465 46.7083 43.9178C46.5734 43.9549 46.3957 43.9675 46.2608 43.9675C46.172 43.9675 46.1042 44.0158 46.1042 44.0759C46.1042 44.1718 46.193 44.1843 46.328 44.1843C46.8314 44.1843 47.3019 44.1486 47.3907 44.1486C47.5683 44.1486 48.027 44.1843 48.6654 44.1843C48.7989 44.1843 48.8891 44.1599 48.8891 44.0759C48.8891 44.0158 48.8317 43.9675 48.7198 43.9675C48.5639 43.9675 48.3745 43.955 48.2067 43.8948C48.0172 43.8221 47.8941 43.5807 47.8711 42.7834L47.7591 38.5976ZM57.5778 35.0391C57.231 35.0391 57.0073 35.0391 57.0073 35.2202C57.0073 35.4013 57.287 36.0029 57.4219 37.5122C57.4667 37.9346 57.5107 38.1157 57.5785 38.1157C57.6443 38.1157 57.689 37.9346 57.7345 37.5122C57.868 36.0036 58.1477 35.4013 58.1477 35.2202C58.147 35.0391 57.9239 35.0391 57.5778 35.0391ZM62.7749 44.3172C63.3 44.3172 63.9481 44.2571 64.418 43.8948C65.1333 43.3514 65.4018 42.7359 65.4018 41.9757C65.4018 41.0476 64.9991 40.2629 63.7028 39.4907L63.3 39.2494C62.4169 38.7186 62.2604 38.3563 62.2604 37.8989C62.2604 37.1974 62.8973 36.8002 63.6028 36.8002C64.2398 36.8002 64.5522 37.0897 64.6984 37.2828C64.9102 37.5471 64.955 37.8618 64.955 37.959C64.955 38.08 64.9892 38.1402 65.0557 38.1402C65.1347 38.1402 65.1787 38.0304 65.1787 37.8135C65.1787 37.0057 65.213 36.7163 65.213 36.5834C65.213 36.5106 65.1668 36.475 65.078 36.4505C64.8214 36.3778 64.318 36.2819 63.6797 36.2819C62.3162 36.2819 61.1975 37.0897 61.1975 38.3444C61.1975 39.2494 61.5779 39.9369 62.7406 40.6733L63.3112 41.0357C64.1831 41.591 64.2838 42.0365 64.2838 42.4827C64.2838 43.2066 63.7692 43.7871 62.9204 43.7871C62.3051 43.7871 61.5682 43.5332 61.3563 42.7736C61.299 42.5925 61.2661 42.3743 61.2661 42.2428C61.2661 42.17 61.2542 42.0721 61.1654 42.0721C61.0864 42.0721 61.0423 42.182 61.0423 42.3387C61.0311 42.5072 60.9864 43.1465 60.9864 43.7018C60.9864 43.9305 61.0193 43.9787 61.1773 44.0515C61.6003 44.2571 62.2037 44.3172 62.7749 44.3172Z" fill="white"/>
<path fill-rule="evenodd" clip-rule="evenodd" d="M47.5908 30.8799C43.8005 30.8799 40.6318 27.8347 39.4313 24.4126C39.2558 23.9146 36.3395 27.2913 36.5807 26.5311C37.3785 24.4189 38.9496 20.3359 40.0585 18.251C40.4283 17.5544 41.4562 16.4549 42.377 17.0753C42.4623 17.1411 42.549 17.2005 42.6336 17.2928C41.5023 20.9562 43.5097 27.0395 47.5908 30.8799ZM37.2918 16.8466C39.2642 13.6336 42.1246 13.7091 42.907 16.6312C41.6869 15.0156 40.0941 16.72 39.4747 17.8845C36.7464 23.0138 35.3963 29.3076 34.4741 28.3124C33.2498 26.9927 32.2583 25.4883 31.4906 24.4084C30.7879 23.4188 29.0623 30.8757 23.0269 30.8757C24.1296 30.0875 27.1298 26.6353 27.6304 22.8879C28.2534 18.23 24.3323 18.9133 24.3323 20.5793C24.5631 19.5421 26.3509 19.3882 26.8592 20.4086C27.4864 21.6682 26.5977 23.1166 25.5433 23.1166C23.2444 23.1166 22.5955 25.824 24.0184 27.962C19.8939 24.2706 21.7439 21.6234 21.0979 19.3574C20.7909 18.2923 20.0526 18.4622 19.7317 18.6853C19.3667 18.9364 19.0129 18.9888 18.822 18.7406C18.9241 18.6378 19.0234 18.4916 19.0311 18.3055C19.0325 18.251 18.9947 18.2062 18.9423 18.2027C18.8912 18.2006 18.8507 18.2433 18.8479 18.2985C18.8444 18.4335 18.7591 18.5454 18.6759 18.6217C18.385 18.4727 17.8662 18.0412 18.3508 17.3383C18.5179 17.1019 18.1096 16.7809 18.0802 17.609C18.0767 17.6929 18.0019 17.7306 17.9683 17.7446C17.1859 16.2878 19.566 14.6974 19.6023 13.6888C19.1402 14.8086 18.1704 14.07 18.6773 13.5678C18.3745 13.0307 18.5899 12.3607 19.4156 12.1537C19.3961 11.4704 19.8911 10.9004 20.5245 10.8766H20.5259C20.7126 10.4933 21.0776 10.2234 21.5111 10.2094C21.709 10.2059 21.8943 10.252 22.0607 10.3409C22.2592 10.1366 22.5221 10.0101 22.8144 10.0003C23.1696 9.99047 23.415 10.2611 23.6436 10.2506C23.9366 10.2422 24.7057 9.90654 25.4608 10.3451C24.2561 10.1108 22.8913 11.0347 22.4613 12.1719C22.4613 12.1719 22.6333 11.8487 23.0619 11.5026L23.3038 11.7019L23.229 11.3746C23.4094 11.2487 23.6192 11.1249 23.8702 11.0172L24.1037 11.3284L24.0673 10.9346C24.1981 10.8885 24.3365 10.8423 24.4869 10.8053C24.6106 10.7752 24.7518 10.7556 24.9022 10.7493L25.0329 11.2382L25.149 10.7507C25.3944 10.764 25.6608 10.8081 25.9314 10.8885L25.9209 11.3501L26.1873 10.9738C26.3907 11.0521 26.7096 11.2074 26.9382 11.4151L26.804 11.8599L27.1165 11.5893C27.3067 11.7872 27.4899 12.0047 27.6661 12.2467L27.3647 12.6426L27.822 12.4754C27.9185 12.6251 28.0073 12.781 28.0926 12.9461C28.1317 13.072 28.1695 13.2007 28.1974 13.3398L27.7856 13.5776L28.2429 13.6147C28.2611 13.7567 28.2737 13.9008 28.2792 14.0532C28.2806 14.2162 28.2751 14.3791 28.2611 14.5414L27.8402 14.6533L28.2303 14.7939C28.1849 15.1135 28.101 15.4247 27.9891 15.7241L27.557 15.6835L27.8716 15.9975C27.8213 16.1101 27.7625 16.2241 27.701 16.3332C27.6269 16.4647 27.5451 16.5906 27.4556 16.7116L27.1018 16.5892L27.3032 16.9033C27.106 17.1432 26.8809 17.3544 26.6306 17.5327L26.3782 17.325L26.4579 17.6509C26.1999 17.8188 25.9223 17.9496 25.6244 18.0524L25.4433 17.7684L25.4356 18.1111C25.1616 18.1894 24.8714 18.2335 24.577 18.2496L24.4687 17.9635L24.3743 18.2496C24.0464 18.2447 23.7576 18.1839 23.5108 18.0775L23.536 17.8293L23.3674 18.0139C23.0661 17.8523 22.8242 17.6271 22.6452 17.3768L22.8032 17.1383L22.5564 17.2439C22.3928 16.9788 22.2858 16.6914 22.2243 16.42C22.2187 16.3808 22.2096 16.3416 22.2047 16.3018L22.4501 16.1689L22.1844 16.1493C22.1558 15.8073 22.1991 15.4513 22.3208 15.1317L22.5732 15.1611L22.3837 14.9862C22.5326 14.6827 22.7578 14.4274 23.0605 14.2763L23.2038 14.4568L23.1731 14.2267C23.2094 14.2148 23.2423 14.1987 23.2801 14.1896C23.608 14.0903 23.8932 14.0917 24.1296 14.1609L24.1254 14.3526L24.2107 14.184C24.5826 14.3204 24.8169 14.6288 24.8924 14.9631L24.7728 15.0338L24.905 15.0373C24.9623 15.4191 24.812 15.8206 24.4148 16.0227C24.6274 15.3023 23.7303 14.91 23.2808 15.4254C22.8487 15.9206 23.2682 16.9403 24.0555 17.0452C24.9714 17.1655 26.4292 16.6529 26.3796 14.8813C26.3327 13.1314 24.2946 12.5936 23.6821 13.6832C23.0486 13.6105 22.6032 13.9959 22.4291 14.1644C21.8404 14.8302 21.6768 15.736 21.8222 16.506C22.0348 17.6327 22.9493 18.7448 24.5218 18.6958C25.9733 18.6489 27.2703 17.8817 28.0059 16.6375C28.0059 16.6375 28.3743 16.05 28.6016 15.1729C28.8701 14.1386 29.4497 12.8055 30.3964 12.4586C28.6016 15.1722 33.2805 20.9989 34.2105 22.0039C34.6391 22.4669 35.5795 19.64 37.2918 16.8466ZM21.2881 13.8798C21.2895 13.7931 21.2279 13.7168 21.1482 13.7126C20.807 13.7035 20.5959 13.8322 20.491 13.9539C20.3421 14.1267 20.2735 14.3847 20.3057 14.6589C20.3148 14.7372 20.3749 14.7939 20.4441 14.7974C20.4525 14.7974 20.4616 14.7974 20.4693 14.7953C20.5504 14.7848 20.6064 14.7058 20.5959 14.6176C20.5742 14.4393 20.614 14.2749 20.7042 14.1686C20.7937 14.0672 20.9294 14.0204 21.1112 14.028C21.1189 14.028 21.1238 14.0266 21.1342 14.028C21.2126 14.0315 21.2818 13.9644 21.2881 13.8798Z" fill="white"/>
<path fill-rule="evenodd" clip-rule="evenodd" d="M66.0465 35.8255C65.6081 35.8283 65.2516 35.4751 65.2481 35.0359C65.2453 34.5967 65.5984 34.2365 66.0347 34.2344C66.4772 34.2323 66.8366 34.5834 66.8394 35.0212C66.8415 35.4674 66.4919 35.8227 66.0465 35.8255ZM66.0444 35.7227C66.4283 35.7213 66.7373 35.4115 66.7359 35.0296C66.7345 34.6442 66.4241 34.3358 66.0395 34.3379C65.6578 34.34 65.3508 34.6491 65.3508 35.031C65.3515 35.4136 65.662 35.7241 66.0444 35.7227Z" fill="white"/>
<path fill-rule="evenodd" clip-rule="evenodd" d="M66.1996 35.1459C66.2814 35.2382 66.3597 35.3277 66.445 35.4243C66.3786 35.4243 66.322 35.425 66.2653 35.4236C66.2583 35.4236 66.2499 35.4124 66.2437 35.4054C66.1786 35.3312 66.1136 35.2571 66.0493 35.1823C66.0353 35.1655 66.0213 35.1585 65.9996 35.1592C65.9633 35.1606 65.9262 35.1599 65.8857 35.1599C65.8857 35.2494 65.8857 35.3361 65.8857 35.4236C65.8353 35.4236 65.7892 35.4236 65.7402 35.4236C65.7402 35.1613 65.7402 34.8983 65.7402 34.6361C65.7437 34.6347 65.7472 34.6333 65.75 34.6333C65.8864 34.6347 66.0241 34.6284 66.1597 34.6402C66.3849 34.6598 66.4443 34.8836 66.3653 35.0333C66.3373 35.0858 66.2919 35.1179 66.236 35.1347C66.2262 35.1368 66.2157 35.1403 66.1996 35.1459ZM65.8871 35.0221C65.9766 35.0221 66.064 35.027 66.1507 35.0207C66.2143 35.0158 66.252 34.9613 66.2506 34.8969C66.2499 34.8347 66.2108 34.7808 66.15 34.7759C66.0633 34.7696 65.9759 34.7745 65.8871 34.7745C65.8871 34.8571 65.8871 34.9382 65.8871 35.0221Z" fill="white"/>
</svg>
