<svg width="46" height="54" viewBox="0 0 46 54" fill="none" xmlns="http://www.w3.org/2000/svg">
<path d="M8.02355 5.62355C11.6242 2.02285 16.5078 0 21.6 0C26.6922 0 31.5758 2.02285 35.1764 5.62355C38.7771 9.22425 40.8 14.1078 40.8 19.2V24C42.073 24 43.2939 24.5057 44.1941 25.4059C45.0943 26.3061 45.6 27.527 45.6 28.8V33.6C45.6 34.873 45.0943 36.0939 44.1941 36.9941C43.2939 37.8943 42.073 38.4 40.8 38.4H22.536C21.889 38.3537 21.2665 38.1334 20.7344 37.7624C20.2023 37.3915 19.7803 36.8837 19.513 36.2926C19.2457 35.7016 19.1431 35.0493 19.2159 34.4048C19.2888 33.7602 19.5345 33.1473 19.927 32.6309C20.3195 32.1145 20.8442 31.7137 21.4457 31.4709C22.0472 31.2281 22.7031 31.1523 23.3442 31.2516C23.9852 31.3509 24.5875 31.6215 25.0873 32.0349C25.5872 32.4483 25.9661 32.989 26.184 33.6H36V21.6C36 20.9635 35.7471 20.353 35.2971 19.9029C34.847 19.4529 34.2365 19.2 33.6 19.2H9.6C8.96348 19.2 8.35303 19.4529 7.90294 19.9029C7.45286 20.353 7.2 20.9635 7.2 21.6V26.04L6 26.736C5.63727 26.9454 5.33566 27.2461 5.12514 27.6082C4.91462 27.9703 4.80253 28.3812 4.8 28.8C4.79427 29.3824 5.00049 29.9469 5.38024 30.3885C5.75998 30.8301 6.28734 31.1185 6.864 31.2L8.784 31.2516V32.664V35.064H4.656C3.33919 34.6105 2.19009 33.7698 1.35927 32.6521C0.52845 31.5343 0.0546656 30.1916 0 28.8C0.0333925 27.8403 0.263661 26.8977 0.676515 26.0307C1.08937 25.1637 1.676 24.3908 2.4 23.76V19.2C2.4 14.1078 4.42285 9.22425 8.02355 5.62355Z" fill="black"/>
<path d="M26.1823 33.6H35.9983V24H40.7983C42.0713 24 43.2922 24.5057 44.1924 25.4059C45.0925 26.3061 45.5983 27.527 45.5983 28.8V33.6C45.5983 34.873 45.0925 36.0939 44.1924 36.9941C43.2922 37.8943 42.0713 38.4 40.7983 38.4H22.5343C21.8873 38.3537 21.2648 38.1334 20.7327 37.7624C20.2005 37.3915 19.7785 36.8836 19.5112 36.2926C19.244 35.7016 19.1413 35.0493 19.2142 34.4048C19.2871 33.7602 19.5327 33.1473 19.9252 32.6309C20.3177 32.1145 20.8425 31.7137 21.444 31.4709C22.0455 31.2281 22.7014 31.1523 23.3424 31.2516C23.9834 31.3509 24.5857 31.6215 25.0856 32.0349C25.5855 32.4483 25.9644 32.989 26.1823 33.6Z" fill="#2871F0"/>
</svg>
