<svg width="47" height="43" viewBox="0 0 47 43" fill="none" xmlns="http://www.w3.org/2000/svg">
<path d="M0.0322608 8.04688C2.3333 8.86448 5.03648 10.0786 7.28483 11.0844C7.26957 12.8993 7.2038 15.014 7.27158 16.8039C7.77351 16.9555 8.51681 17.3367 9.03416 17.5511C9.47017 17.7319 9.99349 17.9283 10.4077 18.1202C10.4049 16.1478 10.4243 14.1754 10.4663 12.2033C10.8635 12.4326 12.4941 13.0437 12.9817 13.2375L18.2906 15.3499L18.2845 34.4662L18.2932 40.4405C16.7494 39.8254 15.4524 39.0818 13.9843 38.4198L4.43123 34.1921L1.58286 32.9067C1.21919 32.7427 0.390435 32.3431 0.0424269 32.2579C-0.0470752 29.6848 0.0327981 26.6284 0.0330441 24.0251L0.0322608 8.04688Z" fill="#232021"/>
<path fill-rule="evenodd" clip-rule="evenodd" d="M37.5153 8.14062C37.6132 8.28499 37.5447 13.155 37.5407 13.6914V15.2998C37.0712 15.2137 36.5738 15.294 36.1452 15.5537L35.986 15.6611L29.6403 20.3867C28.5932 21.1669 27.3609 22.1454 26.4538 22.7529C25.9076 23.1188 25.5761 23.7303 25.5671 24.3877C25.5582 25.0451 25.8728 25.6653 26.4089 26.0459C27.5117 26.8289 28.612 27.6563 29.7331 28.5039C30.8468 29.3459 31.9855 30.2109 33.1306 31.04C33.889 31.5893 35.203 32.6468 36.1931 33.2822C36.5996 33.5431 37.0781 33.6424 37.5407 33.5801V34.2812C36.9128 34.585 35.3074 35.013 34.6218 35.2705L29.9763 37.0195C28.4804 37.5816 26.9324 38.1418 25.4518 38.7324C24.0801 39.2796 22.4774 40.0587 21.0544 40.4492C21.0683 39.3547 21.0664 38.239 21.0563 37.1445C20.9899 29.8783 21.1519 22.5789 21.0476 15.3164C24.7469 13.8652 28.452 12.0491 32.1433 10.5254C33.9169 9.79329 35.6604 8.76668 37.5153 8.14062Z" fill="#232021"/>
<path d="M37.1804 17.2656C37.2 17.2877 37.2235 17.3141 37.2509 17.345C37.2765 18.4702 37.2623 20.2123 37.2601 21.2789C38.1512 21.4237 38.9226 21.5332 39.7872 21.8373C42.5256 22.8003 44.5829 24.8297 45.8385 27.4238C46.9495 29.72 47.2442 32.5934 46.4198 35.0226C45.5709 37.5228 43.3201 39.3353 40.9963 40.4206C38.8132 41.4228 36.5136 42.0218 34.1321 42.3824C33.2726 42.5692 32.1006 42.7982 32.3712 41.4532C32.4445 41.0886 34.2014 40.7612 34.5812 40.6533C35.6393 40.3571 36.6724 39.9775 37.6707 39.5182C39.9826 38.3539 42.2592 36.6367 42.3907 33.8317C42.4634 32.3701 41.9568 30.9388 40.9807 29.8485C39.9088 28.675 38.8446 28.2507 37.2716 28.18C37.245 29.2081 37.2295 30.5826 37.2737 31.5995C36.328 30.9926 35.2332 30.0931 34.3033 29.4198C32.0544 27.7912 29.8272 26.0194 27.5671 24.4148C28.5277 23.7714 29.8738 22.7071 30.8352 21.9909L37.1804 17.2656Z" fill="#2871F0"/>
<path d="M27.9843 3.61825C28.547 3.56082 34.0696 5.85279 35.2377 6.07604C34.4687 6.46336 33.2877 6.93125 32.4797 7.27991L27.3609 9.48052C26.6184 9.7965 25.9464 10.1954 25.2448 10.5007C23.5551 11.2363 21.8575 11.9628 20.1668 12.6978L19.6093 12.9037C17.483 11.9814 15.2315 11.2161 13.0874 10.2694C13.5898 9.91598 14.4499 9.57656 15.0372 9.31907L17.6714 8.16264L27.9843 3.61825Z" fill="#232021"/>
<path d="M17.9302 0.00174137C18.3134 -0.0703704 23.5477 2.12043 24.5479 2.25206C24.4236 2.31717 24.2898 2.3855 24.162 2.44273L14.5343 6.67511L11.4551 8.04264C10.8949 8.2913 10.3065 8.56566 9.72855 8.76918C9.52071 8.84238 9.3698 8.76752 9.16502 8.68936C7.13124 7.75663 4.57138 6.88676 2.44995 5.98898C7.58884 4.01108 12.8293 2.03794 17.9302 0.00174137Z" fill="#232021"/>
</svg>
