<svg width="57" height="57" viewBox="0 0 57 57" fill="none" xmlns="http://www.w3.org/2000/svg">
<g clip-path="url(#clip0_5036_10117)">
<path d="M52.0749 5.97656H46.0221V8.48605C46.0221 8.79998 45.7679 9.05505 45.4535 9.05505H44.1359C43.8214 9.05505 43.5671 8.79987 43.5671 8.48605V5.97656H37.5146C37.0607 5.97656 36.6924 6.34464 36.6924 6.79854V19.7144C36.6924 20.1687 37.0607 20.5364 37.5146 20.5364H52.0749C52.5287 20.5364 52.8966 20.1688 52.8966 19.7144V6.79843C52.8966 6.34464 52.5287 5.97656 52.0749 5.97656Z" fill="#2871F0"/>
<path d="M43.6418 50.4541C39.9652 50.4541 36.9739 47.4631 36.9739 43.7858C36.9739 40.1085 39.9652 37.1172 43.6418 37.1172C47.3193 37.1172 50.3108 40.1085 50.3108 43.7858C50.3108 47.4631 47.3192 50.4541 43.6418 50.4541ZM43.6418 40.4777C41.8181 40.4777 40.3337 41.9619 40.3337 43.7858C40.3337 45.6095 41.8181 47.0941 43.6418 47.0941C45.466 47.0941 46.9501 45.6095 46.9501 43.7858C46.95 41.9619 45.466 40.4777 43.6418 40.4777Z" fill="black"/>
<path d="M6.66836 50.4541C2.99162 50.4541 0 47.4631 0 43.7858C0 40.1085 2.99162 37.1172 6.66836 37.1172C10.3452 37.1172 13.3367 40.1085 13.3367 43.7858C13.3367 47.4631 10.3452 50.4541 6.66836 50.4541ZM6.66836 40.4777C4.84422 40.4777 3.36016 41.9619 3.36016 43.7858C3.36016 45.6095 4.84422 47.0941 6.66836 47.0941C8.49261 47.0941 9.97656 45.6095 9.97656 43.7858C9.97656 41.9619 8.49261 40.4777 6.66836 40.4777Z" fill="black"/>
<path d="M46.8304 30.7425V28.915H51.4786C52.5305 28.915 53.3833 28.063 53.3833 27.0113V25.6558C53.3833 24.6046 52.5305 23.752 51.4786 23.752H28.1815C27.1298 23.752 26.2769 24.6046 26.2769 25.6558V27.0314C26.2769 28.0829 27.1298 28.9354 28.1815 28.9354H30.7573V36.2533H17.8516C16.9061 34.7788 15.6664 33.5106 14.2159 32.5307L19.2925 14.2222H23.9843C25.036 14.2222 25.8882 13.3693 25.8882 12.3178C25.8882 11.2666 25.036 10.4141 23.9843 10.4141C23.9843 10.4141 19.048 10.4141 17.3153 10.4141C17.0782 10.4141 16.665 10.5135 16.4625 10.6134C16.1689 10.7597 15.9126 10.9806 15.7255 11.2616L2.21542 31.5159C1.8129 32.1094 1.5159 32.8549 1.73813 33.5097C2.08328 34.5272 3.2503 34.8912 4.44577 34.5366C5.35381 34.2675 6.10747 34.1497 7.06574 34.1497C12.0262 34.1497 16.0618 38.1854 16.0618 43.146C16.0618 44.1977 16.9138 45.0504 17.9655 45.0504H32.7459C33.7976 45.0504 34.6503 44.1977 34.6503 43.146C34.6503 38.1854 38.6853 34.1497 43.6457 34.1497C48.606 34.1497 52.642 38.1854 52.642 43.146C52.642 44.1977 53.4949 45.0504 54.546 45.0504C55.5981 45.0504 56.4503 44.1977 56.4503 43.146C56.4503 37.1845 52.3548 32.1617 46.8304 30.7425Z" fill="black"/>
</g>
<defs>
<clipPath id="clip0_5036_10117">
<rect width="56.45" height="56.45" fill="white"/>
</clipPath>
</defs>
</svg>
