<svg width="81" height="81" viewBox="0 0 81 81" fill="none" xmlns="http://www.w3.org/2000/svg">
<rect width="80.64" height="80.64" rx="14" fill="#2871F0"/>
<g clip-path="url(#clip0_4311_38613)">
<path d="M63.8952 18.2969H57.8424V20.8064C57.8424 21.1203 57.5882 21.3754 57.2739 21.3754H55.9563C55.6418 21.3754 55.3874 21.1202 55.3874 20.8064V18.2969H49.3349C48.881 18.2969 48.5127 18.665 48.5127 19.1189V32.0347C48.5127 32.489 48.881 32.8567 49.3349 32.8567H63.8952C64.349 32.8567 64.717 32.4891 64.717 32.0347V19.1187C64.717 18.665 64.349 18.2969 63.8952 18.2969Z" fill="white"/>
<path d="M55.4621 62.7744C51.7855 62.7744 48.7942 59.7834 48.7942 56.1061C48.7942 52.4288 51.7855 49.4375 55.4621 49.4375C59.1396 49.4375 62.1311 52.4288 62.1311 56.1061C62.1311 59.7834 59.1395 62.7744 55.4621 62.7744ZM55.4621 52.798C53.6384 52.798 52.154 54.2822 52.154 56.1061C52.154 57.9298 53.6384 59.4144 55.4621 59.4144C57.2863 59.4144 58.7704 57.9298 58.7704 56.1061C58.7703 54.2822 57.2863 52.798 55.4621 52.798Z" fill="white"/>
<path d="M18.4887 62.7744C14.8119 62.7744 11.8203 59.7834 11.8203 56.1061C11.8203 52.4288 14.8119 49.4375 18.4887 49.4375C22.1655 49.4375 25.157 52.4288 25.157 56.1061C25.157 59.7834 22.1655 62.7744 18.4887 62.7744ZM18.4887 52.798C16.6645 52.798 15.1805 54.2822 15.1805 56.1061C15.1805 57.9298 16.6645 59.4144 18.4887 59.4144C20.3129 59.4144 21.7969 57.9298 21.7969 56.1061C21.7969 54.2822 20.3129 52.798 18.4887 52.798Z" fill="white"/>
<path d="M58.6507 43.0628V41.2353H63.299C64.3508 41.2353 65.2036 40.3833 65.2036 39.3316V37.9761C65.2036 36.9249 64.3508 36.0724 63.299 36.0724H40.0018C38.9501 36.0724 38.0973 36.9249 38.0973 37.9761V39.3518C38.0973 40.4032 38.9501 41.2557 40.0018 41.2557H42.5777V48.5736H29.6719C28.7264 47.0991 27.4867 45.831 26.0362 44.851L31.1128 26.5426H35.8046C36.8563 26.5426 37.7086 25.6896 37.7086 24.6381C37.7086 23.5869 36.8563 22.7344 35.8046 22.7344C35.8046 22.7344 30.8683 22.7344 29.1356 22.7344C28.8986 22.7344 28.4853 22.8338 28.2828 22.9337C27.9893 23.08 27.7329 23.3009 27.5458 23.5819L14.0357 43.8362C13.6332 44.4297 13.3362 45.1752 13.5584 45.83C13.9036 46.8475 15.0706 47.2116 16.2661 46.857C17.1741 46.5878 17.9278 46.47 18.8861 46.47C23.8465 46.47 27.8821 50.5057 27.8821 55.4663C27.8821 56.518 28.7342 57.3707 29.7859 57.3707H44.5662C45.6179 57.3707 46.4706 56.518 46.4706 55.4663C46.4706 50.5057 50.5057 46.47 55.466 46.47C60.4263 46.47 64.4623 50.5057 64.4623 55.4663C64.4623 56.518 65.3153 57.3707 66.3663 57.3707C67.4184 57.3707 68.2706 56.518 68.2706 55.4663C68.2706 49.5048 64.1751 44.482 58.6507 43.0628Z" fill="white"/>
</g>
<defs>
<clipPath id="clip0_4311_38613">
<rect width="56.45" height="56.45" fill="white" transform="translate(11.8203 12.3203)"/>
</clipPath>
</defs>
</svg>
