<svg width="81" height="81" viewBox="0 0 81 81" fill="none" xmlns="http://www.w3.org/2000/svg">
<g clip-path="url(#clip0_4311_48487)">
<rect width="80.64" height="80.64" rx="14" fill="white"/>
<path d="M63.1093 19.6033L57.5067 17.3124L56.5569 19.6352C56.4381 19.9258 56.1063 20.0657 55.8153 19.9467L54.5958 19.448C54.3047 19.329 54.1658 18.9965 54.2846 18.706L55.2344 16.3832L49.6321 14.0924C49.212 13.9206 48.7318 14.1219 48.56 14.5421L43.6715 26.4971C43.4996 26.9176 43.7013 27.3974 44.1215 27.5691L57.5986 33.08C58.0186 33.2517 58.4984 33.0507 58.6703 32.6302L63.5588 20.675C63.7306 20.255 63.5293 19.775 63.1093 19.6033Z" fill="#2871F0"/>
<path d="M52.4618 62.7744C48.7852 62.7744 45.7939 59.7834 45.7939 56.1061C45.7939 52.4288 48.7852 49.4375 52.4618 49.4375C56.1394 49.4375 59.1309 52.4288 59.1309 56.1061C59.1309 59.7834 56.1393 62.7744 52.4618 62.7744ZM52.4618 52.798C50.6382 52.798 49.1538 54.2822 49.1538 56.1061C49.1538 57.9298 50.6382 59.4144 52.4618 59.4144C54.2861 59.4144 55.7702 57.9298 55.7702 56.1061C55.77 54.2822 54.2861 52.798 52.4618 52.798Z" fill="black"/>
<path d="M15.4887 62.7744C11.8119 62.7744 8.82031 59.7834 8.82031 56.1061C8.82031 52.4288 11.8119 49.4375 15.4887 49.4375C19.1655 49.4375 22.157 52.4288 22.157 56.1061C22.157 59.7834 19.1655 62.7744 15.4887 62.7744ZM15.4887 52.798C13.6645 52.798 12.1805 54.2822 12.1805 56.1061C12.1805 57.9298 13.6645 59.4144 15.4887 59.4144C17.3129 59.4144 18.7969 57.9298 18.7969 56.1061C18.7969 54.2822 17.3129 52.798 15.4887 52.798Z" fill="black"/>
<path d="M55.6507 43.0628V41.2353H60.299C61.3508 41.2353 62.2036 40.3833 62.2036 39.3316V37.9761C62.2036 36.9249 61.3508 36.0724 60.299 36.0724H37.0018C35.9501 36.0724 35.0973 36.9249 35.0973 37.9761V39.3518C35.0973 40.4032 35.9501 41.2557 37.0018 41.2557H39.5777V48.5736H26.6719C25.7264 47.0991 24.4867 45.831 23.0362 44.851L28.1128 26.5426H32.8046C33.8563 26.5426 34.7086 25.6896 34.7086 24.6381C34.7086 23.5869 33.8563 22.7344 32.8046 22.7344C32.8046 22.7344 27.8683 22.7344 26.1356 22.7344C25.8986 22.7344 25.4853 22.8338 25.2828 22.9337C24.9893 23.08 24.7329 23.3009 24.5458 23.5819L11.0357 43.8362C10.6332 44.4297 10.3362 45.1752 10.5584 45.83C10.9036 46.8475 12.0706 47.2116 13.2661 46.857C14.1741 46.5878 14.9278 46.47 15.8861 46.47C20.8465 46.47 24.8821 50.5057 24.8821 55.4663C24.8821 56.518 25.7342 57.3707 26.7859 57.3707H41.5662C42.6179 57.3707 43.4706 56.518 43.4706 55.4663C43.4706 50.5057 47.5057 46.47 52.466 46.47C57.4263 46.47 61.4623 50.5057 61.4623 55.4663C61.4623 56.518 62.3153 57.3707 63.3663 57.3707C64.4184 57.3707 65.2706 56.518 65.2706 55.4663C65.2706 49.5048 61.1751 44.482 55.6507 43.0628Z" fill="black"/>
<line x1="64.1797" y1="43" x2="74.1797" y2="43" stroke="black" stroke-width="2" stroke-linecap="round"/>
</g>
<defs>
<clipPath id="clip0_4311_48487">
<rect width="80.64" height="80.64" rx="14" fill="white"/>
</clipPath>
</defs>
</svg>
