<svg width="81" height="81" viewBox="0 0 81 81" fill="none" xmlns="http://www.w3.org/2000/svg">
<rect width="80.64" height="80.64" rx="14" fill="white"/>
<g clip-path="url(#clip0_4311_48464)">
<path d="M60.8947 18.2969H54.8419V20.8064C54.8419 21.1203 54.5878 21.3754 54.2734 21.3754H52.9558C52.6413 21.3754 52.3869 21.1202 52.3869 20.8064V18.2969H46.3344C45.8805 18.2969 45.5122 18.665 45.5122 19.1189V32.0347C45.5122 32.489 45.8805 32.8567 46.3344 32.8567H60.8947C61.3485 32.8567 61.7165 32.4891 61.7165 32.0347V19.1187C61.7165 18.665 61.3485 18.2969 60.8947 18.2969Z" fill="#2871F0"/>
<path d="M52.4614 62.7744C48.7847 62.7744 45.7935 59.7834 45.7935 56.1061C45.7935 52.4288 48.7847 49.4375 52.4614 49.4375C56.1389 49.4375 59.1304 52.4288 59.1304 56.1061C59.1304 59.7834 56.1388 62.7744 52.4614 62.7744ZM52.4614 52.798C50.6377 52.798 49.1533 54.2822 49.1533 56.1061C49.1533 57.9298 50.6377 59.4144 52.4614 59.4144C54.2856 59.4144 55.7697 57.9298 55.7697 56.1061C55.7696 54.2822 54.2856 52.798 52.4614 52.798Z" fill="black"/>
<path d="M15.4882 62.7744C11.8114 62.7744 8.81982 59.7834 8.81982 56.1061C8.81982 52.4288 11.8114 49.4375 15.4882 49.4375C19.165 49.4375 22.1565 52.4288 22.1565 56.1061C22.1565 59.7834 19.165 62.7744 15.4882 62.7744ZM15.4882 52.798C13.664 52.798 12.18 54.2822 12.18 56.1061C12.18 57.9298 13.664 59.4144 15.4882 59.4144C17.3124 59.4144 18.7964 57.9298 18.7964 56.1061C18.7964 54.2822 17.3124 52.798 15.4882 52.798Z" fill="black"/>
<path d="M55.6502 43.0628V41.2353H60.2985C61.3503 41.2353 62.2031 40.3833 62.2031 39.3316V37.9761C62.2031 36.9249 61.3503 36.0724 60.2985 36.0724H37.0013C35.9496 36.0724 35.0968 36.9249 35.0968 37.9761V39.3518C35.0968 40.4032 35.9496 41.2557 37.0013 41.2557H39.5772V48.5736H26.6714C25.726 47.0991 24.4862 45.831 23.0357 44.851L28.1123 26.5426H32.8041C33.8558 26.5426 34.7081 25.6896 34.7081 24.6381C34.7081 23.5869 33.8558 22.7344 32.8041 22.7344C32.8041 22.7344 27.8678 22.7344 26.1352 22.7344C25.8981 22.7344 25.4848 22.8338 25.2823 22.9337C24.9888 23.08 24.7324 23.3009 24.5453 23.5819L11.0352 43.8362C10.6327 44.4297 10.3357 45.1752 10.558 45.83C10.9031 46.8475 12.0701 47.2116 13.2656 46.857C14.1736 46.5878 14.9273 46.47 15.8856 46.47C20.846 46.47 24.8816 50.5057 24.8816 55.4663C24.8816 56.518 25.7337 57.3707 26.7854 57.3707H41.5657C42.6174 57.3707 43.4701 56.518 43.4701 55.4663C43.4701 50.5057 47.5052 46.47 52.4655 46.47C57.4259 46.47 61.4618 50.5057 61.4618 55.4663C61.4618 56.518 62.3148 57.3707 63.3658 57.3707C64.4179 57.3707 65.2701 56.518 65.2701 55.4663C65.2701 49.5048 61.1746 44.482 55.6502 43.0628Z" fill="black"/>
</g>
<line x1="64.1797" y1="43" x2="74.1797" y2="43" stroke="black" stroke-width="2" stroke-linecap="round"/>
<defs>
<clipPath id="clip0_4311_48464">
<rect width="56.45" height="56.45" fill="white" transform="translate(8.81982 12.3203)"/>
</clipPath>
</defs>
</svg>
