<svg width="81" height="81" viewBox="0 0 81 81" fill="none" xmlns="http://www.w3.org/2000/svg">
<rect width="80.64" height="80.64" rx="14" fill="white" fill-opacity="0.05"/>
<path d="M23 38.4194V53C23 57.9706 27.0294 62 32 62C36.9706 62 41 57.9706 41 53V27.5C41 22.8056 44.8056 19 49.5 19C54.1944 19 58 22.8056 58 27.5V42.5" stroke="black" stroke-width="7" stroke-linecap="round"/>
<path d="M39.6706 64.431C39.6706 68.3279 36.5115 71.487 32.6146 71.487C28.7177 71.487 25.5586 68.3279 25.5586 64.431C25.5586 60.5341 28.7177 57.375 32.6146 57.375C36.5115 57.375 39.6706 60.5341 39.6706 64.431Z" fill="#2871F0"/>
<path d="M29.112 24.056C29.112 27.9529 25.9529 31.112 22.056 31.112C18.1591 31.112 15 27.9529 15 24.056C15 20.1591 18.1591 17 22.056 17C25.9529 17 29.112 20.1591 29.112 24.056Z" fill="#2871F0"/>
<path d="M65.112 59.056C65.112 62.953 61.953 66.112 58.056 66.112C54.159 66.112 51 62.953 51 59.056C51 55.159 54.159 52 58.056 52C61.953 52 65.112 55.159 65.112 59.056Z" fill="#2871F0"/>
</svg>
