<svg width="188" height="198" viewBox="0 0 188 198" fill="none" xmlns="http://www.w3.org/2000/svg">
<g clip-path="url(#clip0_3835_45443)">
<path d="M0.000244141 -42.3535H188.142C188.128 14.6807 188.155 71.7355 188.142 128.77C186.617 128.725 185.208 127.834 183.837 127.43C166.751 122.385 149.716 116.824 132.728 111.316L133.804 60.5432L134.606 59.9675C137.375 60.2519 140.422 61.2286 143.167 61.3451C143.681 61.3657 144.154 61.5781 144.013 60.8379C140.672 58.0758 136.895 55.8723 133.441 53.2747C132.848 52.8292 131.077 51.6092 130.854 51.0746C130.072 49.2104 131.515 41.3045 131.018 40.8144C128.38 40.8692 125.772 40.0605 123.126 40.6225C122.472 41.0783 122.934 43.8061 122.807 44.7588C122.742 45.2317 122.996 45.3517 122.3 45.2626L101.711 30.2766L59.5293 48.0075C59.7726 48.6381 61.2427 48.8197 61.8425 48.9362C64.4366 49.4366 67.1816 49.464 69.7724 50.0705L69.8169 91.3169L69.1075 91.807L0.000244141 69.9021V-42.3535ZM67.3872 89.7508C66.8766 88.4555 66.6573 81.2761 64.0117 82.9553C63.7547 83.1163 61.9932 88.2876 62.6409 88.6851C63.6861 89.3328 63.9637 88.0134 64.4469 88.0305C66.2563 88.1025 65.2934 90.2477 67.3872 89.7474V89.7508ZM136.83 99.6821C137.039 99.4867 138.712 100.443 138.88 99.5039C139.048 98.5649 136.203 97.8452 135.463 97.9686C136.018 100.014 133.513 104.504 136.827 104.13V101.735L138.537 102.074C139.294 100.892 136.094 100.364 136.83 99.6821ZM139.791 99.7369C138.198 100.282 138.619 104.452 140.49 105.426C143.592 107.04 144.435 104.689 143.989 101.923C143.684 100.025 141.518 99.1475 139.791 99.7369ZM144.695 100.707V106.868C144.695 106.937 145.932 107.242 146.018 107.18C146.196 107.06 146.21 106.169 146.744 106.183C146.642 107.458 147.632 107.941 148.797 107.893C148.818 106.944 148.465 105.981 147.776 105.326C150.665 103.078 147.269 100.892 144.695 100.71V100.707ZM135.117 105.498V111.145C135.117 111.666 137.961 112.122 138.537 111.998L136.823 109.778C137.615 109.473 138.554 110.607 138.205 109.082C137.975 108.088 136.121 108.232 136.83 107.55C136.892 107.492 138.441 107.509 138.506 107.561C138.804 107.79 140.052 112.828 140.295 112.979C140.6 113.17 141.333 112.979 141.751 113.044L143.67 108.918V114.051C143.67 114.363 150.346 115.723 145.384 112.848L146.748 112.684C146.683 112.286 147.142 111.851 147.067 111.519C146.892 110.744 145.408 111.412 145.723 110.288C146.7 110.436 147.69 110.326 146.936 109.247C146.594 108.76 142.995 108.023 142.152 107.554C140.035 112.8 141.052 108.219 139.911 107.036C139.229 106.33 136.183 105.974 135.12 105.498H135.117ZM155.983 113.369C155.87 110.823 155.658 111.183 153.591 112.684C153.358 110.353 149.626 110.011 147.772 109.603V115.422C147.772 115.49 149.092 115.473 149.14 115.422C149.321 115.244 148.763 113.972 149.479 114.051C149.537 115.72 150.188 116.368 151.875 116.1L150.504 113.366C151.868 113.578 151.343 113.085 151.549 112.602C152.036 111.464 152.906 113.876 152.927 114.565C152.981 116.203 151.525 117.334 154.609 117.129C154.616 114.983 154.164 114.421 155.977 113.362C156.083 115.816 155.634 118.348 158.979 118.777C161.998 119.168 161.981 112.735 157.841 112.653C156.83 112.632 156.696 112.941 155.98 113.359L155.983 113.369ZM166.247 120.898V115.079C166.247 115.007 164.928 114.689 164.88 114.74L164.708 117.132C163.66 115.843 164.136 113.684 161.799 114.051C162.419 116.042 159.924 120.278 163.163 119.87L163.502 117.475C164.163 118.996 164.095 121.131 166.244 120.895L166.247 120.898ZM170.332 116.474C170.246 116.344 167.488 115.549 167.275 115.761C167.697 116.656 166.782 120.997 166.943 121.217C167.083 121.412 170.116 122.17 170.352 121.919C170.699 120.069 169.814 120.754 168.639 120.035C168.454 119.003 170.137 119.757 170.352 119.524C171.226 118.588 169.061 118.222 168.982 117.982C168.66 117.026 171.302 117.975 170.332 116.471V116.474Z" fill="#A1AFD7"/>
<path d="M0.000244141 69.9039L69.0973 91.8087V92.1514C68.076 92.2714 63.9911 94.2556 62.7095 94.8278C59.7349 96.1541 56.5993 97.6379 53.7035 98.995C52.2437 96.8257 50.0162 98.4467 48.4192 98.6694C47.1958 98.8408 45.5954 98.5598 44.2863 98.6489C43.3131 98.714 43.9299 99.4953 43.7826 100.02C41.8361 100.085 41.2261 100.643 40.5544 100.732C38.5257 100.993 37.0281 100.979 35.1193 101.394C34.8041 101.462 34.9548 102.117 32.837 102.072C30.8631 102.031 31.1921 101.462 30.8939 101.394C30.1914 101.233 29.3278 101.534 28.6185 101.384C28.31 101.318 28.5328 100.441 27.5356 100.698C27.3916 100.736 27.5458 101.702 26.2402 101.38C25.9489 101.308 24.8591 99.1595 23.9476 100.02C23.8722 100.092 23.8687 102.007 23.9441 102.076C24.0298 102.158 24.8077 102.031 25.1264 102.069C26.0723 102.185 23.9167 104.087 23.2656 103.443V102.069C22.0525 101.63 21.1169 103.426 20.0203 103.457C19.8181 103.464 19.8935 102.816 19.6194 102.754C19.1396 102.645 18.5536 102.85 18.0396 102.744C17.5529 102.641 17.2685 101.109 16.4255 101.387C15.8395 102.905 17.1965 103.477 17.1383 104.303C17.0869 104.978 16.4803 104.625 16.3981 105.301C16.3192 105.938 16.2164 110.777 16.422 110.972C16.5488 111.092 17.6694 110.849 17.7962 110.969C17.9779 111.14 17.8922 115.386 17.8202 115.955C17.738 116.609 17.1657 116.28 17.0834 116.935C16.9532 117.977 16.7408 127.027 17.1074 127.397C17.4296 127.719 20.2156 126.698 19.849 128.079C18.3925 127.877 18.1869 129.282 16.422 128.765C16.1308 130.934 16.9052 129.817 18.2383 130.142C18.3274 130.163 19.6639 130.869 19.7393 130.92C20.1917 131.246 21.0313 132.702 21.4459 132.839C21.5659 132.877 23.3376 132.829 23.951 132.87C24.1737 132.884 24.4273 132.836 24.6364 132.87C24.609 134.272 26.624 134.165 27.0695 134.714C27.4841 135.228 27.3094 136.218 27.3745 136.294C28.0393 137.058 28.0187 135.656 28.0667 135.622C28.735 135.139 28.7453 136.143 28.8344 136.187C30.116 136.842 31.0996 137.287 32.4737 137.853C33.0255 138.079 34.2592 139.028 34.6601 138.956C34.9069 138.915 35.1879 138.525 35.51 138.432C35.9589 138.302 36.7608 138.432 36.9185 138.288C37.035 138.182 36.8671 137.62 37.0213 137.404C37.2132 137.133 37.8711 137.181 38.2275 136.876C38.5531 136.602 38.5325 135.879 39.2385 135.663C39.7594 135.505 41.6442 135.492 42.1891 135.608C42.4769 135.67 42.4461 136.472 43.3131 136.523C44.0602 136.568 46.3631 136.191 46.5173 135.355C46.9936 132.754 45.6708 133.134 48.4706 132.065C50.89 131.139 53.4602 129.817 56.3662 128.84C56.8494 128.679 57.456 128.861 57.9049 128.737C58.2236 128.652 58.8028 127.534 58.9296 127.49C59.5567 127.267 60.1153 127.507 60.667 127.384C60.9275 127.325 60.787 126.38 62.0583 126.695C62.3908 126.777 62.0584 127.747 62.9494 127.39C62.4148 126.486 63.6964 125.756 63.6347 125.677C63.8506 125.643 64.1316 125.728 64.3201 125.677V127.387H65.0021C65.0329 126.708 64.9678 126.016 65.0021 125.334C86.5437 119.779 109.689 117.175 131.364 111.644C131.796 111.534 132.317 111.62 132.732 111.301C149.719 116.808 166.758 122.37 183.841 127.414C185.212 127.819 186.62 128.71 188.145 128.754C188.138 159.552 188.152 190.364 188.145 221.161H0.000244141V69.8867V69.9039Z" fill="#97A3C6"/>
<path d="M0.000244141 -42.3487V-42.6914H188.481V221.181H188.138C188.145 190.384 188.131 159.572 188.138 128.775C188.152 71.7403 188.128 14.6855 188.138 -42.3521H0.000244141V-42.3487Z" fill="white"/>
<path d="M69.1002 91.8077L69.8096 91.3176L69.765 50.0712C67.1777 49.4647 64.4293 49.4373 61.8351 48.9369C61.2354 48.8204 59.7619 48.6354 59.522 48.0082L101.704 30.2773L122.293 45.2633C122.989 45.3524 122.738 45.2358 122.8 44.7595C122.927 43.8068 122.468 41.079 123.119 40.6232C125.761 40.0612 128.369 40.87 131.011 40.8151C131.508 41.3052 130.065 49.2145 130.846 51.0753C131.073 51.6133 132.841 52.8299 133.434 53.2754C136.888 55.873 140.665 58.0765 144.006 60.8386C144.146 61.5788 143.673 61.3664 143.159 61.3458C140.411 61.2293 137.368 60.256 134.599 59.9682L133.797 60.5439L132.721 111.317C132.306 111.632 131.782 111.55 131.354 111.66L128.379 110.015C120.052 108.315 111.454 104.066 103.746 102.088C102.598 101.794 100.011 101.674 99.0686 101.352C98.3764 101.115 98.7122 100.111 98.3079 99.998C97.6773 99.8198 96.3168 100.111 95.347 99.9398C94.9084 99.8644 93.8803 99.4737 93.3114 99.3024C88.0785 97.7226 82.921 95.4916 77.4962 94.5252C76.4373 94.3368 74.4462 93.0517 72.8596 92.661C71.7287 92.3834 70.2448 92.0133 69.0968 92.147V91.8043L69.1002 91.8077Z" fill="#757F9E"/>
<path d="M135.118 105.502C136.184 105.978 139.23 106.331 139.909 107.041C141.047 108.226 140.032 112.805 142.15 107.558C142.993 108.031 146.591 108.764 146.934 109.251C147.691 110.33 146.697 110.444 145.721 110.293C145.406 111.42 146.889 110.752 147.064 111.523C147.14 111.855 146.68 112.291 146.745 112.688L145.382 112.853C150.344 115.728 143.668 114.367 143.668 114.056V108.922L141.749 113.048C141.331 112.983 140.601 113.175 140.293 112.983C140.049 112.832 138.802 107.795 138.504 107.565C138.439 107.514 136.886 107.496 136.828 107.555C136.115 108.237 137.973 108.093 138.202 109.087C138.552 110.608 137.613 109.477 136.821 109.782L138.535 112.003C137.959 112.126 135.115 111.67 135.115 111.15V105.502H135.118Z" fill="#A1AFD7"/>
<path d="M155.986 113.371C154.173 114.43 154.626 114.992 154.619 117.137C151.535 117.342 152.991 116.212 152.936 114.574C152.912 113.885 152.042 111.472 151.559 112.61C151.353 113.093 151.877 113.587 150.513 113.374L151.884 116.109C150.198 116.376 149.544 115.728 149.489 114.059C148.772 113.981 149.331 115.252 149.149 115.43C149.101 115.478 147.782 115.495 147.782 115.43V109.611C149.636 110.019 153.368 110.362 153.601 112.692C155.667 111.191 155.88 110.831 155.993 113.378C156.713 112.959 156.843 112.651 157.854 112.672C161.994 112.754 162.011 119.183 158.992 118.795C155.647 118.364 156.099 115.835 155.99 113.381L155.986 113.371ZM159.406 117.48C159.382 116.246 159.934 113.415 157.902 114.087C156.641 114.502 157.278 118.281 159.406 117.48Z" fill="#A1AFD7"/>
<path d="M166.249 120.908C164.1 121.145 164.169 119.01 163.507 117.488L163.168 119.884C159.93 120.288 162.421 116.056 161.804 114.065C164.138 113.698 163.662 115.857 164.714 117.146L164.885 114.754C164.933 114.702 166.252 115.024 166.252 115.093V120.912L166.249 120.908Z" fill="#A1AFD7"/>
<path d="M67.3888 89.7581C65.2915 90.255 66.2579 88.1097 64.4485 88.0412C63.9619 88.0206 63.6877 89.3434 62.6425 88.6958C61.9982 88.2948 63.7597 83.127 64.0133 82.9659C66.6588 81.2867 66.8782 88.4661 67.3888 89.7615V89.7581Z" fill="#A1AFD7"/>
<path d="M144.694 100.71C147.264 100.892 150.664 103.082 147.775 105.327C148.467 105.981 148.817 106.944 148.796 107.893C147.627 107.941 146.64 107.461 146.743 106.183C146.209 106.17 146.192 107.061 146.017 107.18C145.931 107.239 144.694 106.934 144.694 106.869V100.707V100.71ZM146.065 102.081C145.962 102.585 145.986 104.364 146.915 104.131C147.977 103.867 147.206 101.876 146.065 102.081Z" fill="#A1AFD7"/>
<path d="M139.795 99.7439C141.522 99.1545 143.688 100.032 143.993 101.93C144.438 104.696 143.595 107.047 140.494 105.433C138.623 104.459 138.201 100.289 139.795 99.7439ZM142.218 101.149C140.556 99.1442 139.874 103.98 141.152 104.439C143.026 105.11 142.876 101.944 142.218 101.149Z" fill="#A1AFD7"/>
<path d="M170.329 116.478C171.298 117.979 168.656 117.03 168.978 117.989C169.061 118.229 171.223 118.596 170.349 119.531C170.133 119.764 168.451 119.01 168.636 120.042C169.808 120.761 170.692 120.076 170.349 121.927C170.113 122.177 167.083 121.419 166.939 121.224C166.778 121.005 167.693 116.659 167.272 115.768C167.484 115.556 170.243 116.348 170.329 116.481V116.478Z" fill="#A1AFD7"/>
<path d="M136.832 99.6925C136.096 100.375 139.296 100.902 138.539 102.085L136.832 101.745V104.141C133.515 104.514 136.02 100.025 135.462 97.9791C136.202 97.8557 139.05 98.548 138.878 99.5143C138.707 100.481 137.038 99.4972 136.829 99.6925H136.832Z" fill="#A1AFD7"/>
<path d="M69.0963 92.1493C70.2443 92.0156 71.7281 92.3857 72.859 92.6633C74.4457 93.054 76.4367 94.3391 77.4956 94.5276C82.9204 95.494 88.078 97.7249 93.3109 99.3047C93.8797 99.476 94.9078 99.8633 95.3465 99.9421C96.3163 100.113 97.6768 99.8222 98.3073 100C98.7117 100.113 98.3759 101.118 99.0681 101.354C100.011 101.676 102.598 101.799 103.746 102.091C111.453 104.068 120.051 108.317 128.379 110.017L131.353 111.662C109.678 117.19 86.5324 119.798 64.9908 125.353C65.0936 123.375 65.3678 124.335 65.659 123.972C66.2039 123.29 65.0525 123.338 64.9874 123.077C64.6138 121.634 65.2341 118.639 65.0182 116.943C64.936 116.289 64.3637 116.617 64.2814 115.963C63.8291 112.378 64.7098 107.803 64.3088 104.133C64.1306 102.492 62.7667 102.975 61.8072 102.759C61.5467 102.701 61.5947 102.149 61.3377 102.087C60.4844 101.882 59.3158 102.248 58.4008 102.067C58.1061 102.009 57.5133 100.789 57.2185 100.727C55.978 100.473 53.9904 101.008 52.9041 100.717C52.5442 100.621 52.7087 100.048 52.6813 100.028C52.9006 99.7022 53.3838 99.1539 53.7059 98.9997C56.5983 97.6426 59.7373 96.1588 62.7119 94.8326C63.997 94.2603 68.0785 92.2727 69.0997 92.1561L69.0963 92.1493Z" fill="#727791"/>
<path d="M20.868 104.817C20.9811 104.817 21.0976 104.824 21.2107 104.817C21.1284 105.544 21.1695 105.585 21.896 105.503C21.7795 105.643 21.1524 108.649 21.1798 109.128C21.2449 110.232 21.8138 109.886 21.8858 110.187C22.1359 111.239 21.7281 112.905 21.8926 114.056C20.9776 114.145 21.3375 114.074 21.2209 113.539C21.0119 112.559 21.382 111.815 19.8433 112.004C19.8296 113.484 19.857 114.971 19.8433 116.452C21.1079 116.424 20.2271 115.568 20.6966 115.417C21.6664 115.108 22.1188 115.489 21.896 116.452L23.9488 115.766C24.1304 119.115 24.031 122.517 24.2949 125.869C24.2195 126.448 24.8535 126.554 24.9768 126.719C25.227 127.051 25.5457 127.452 25.8747 127.699C27.4305 128.871 30.573 129.68 31.817 130.482C33.5544 131.602 35.3159 132.507 37.3686 133.583C37.7456 133.782 37.6016 134.227 37.6325 134.244C36.1966 134.179 36.272 136.78 35.3296 136.965C34.7641 137.078 32.8725 137.099 32.3276 136.989C31.207 136.763 31.6593 135.862 31.4366 135.66C31.2138 135.457 30.1515 135.749 29.5072 135.512C29.3873 135.468 28.0268 133.617 27.8075 133.573C26.6321 133.316 25.7136 133.059 24.6342 132.877C24.4251 132.843 24.1749 132.891 23.9488 132.877C24.2469 130.708 23.3936 131.815 22.1359 131.496C21.896 131.434 21.92 130.961 21.6287 130.855C20.9125 130.591 19.9221 130.506 19.1648 130.135C19.0243 129.594 19.5794 129.933 19.7439 129.693C19.9256 129.43 19.7851 128.912 19.8776 128.823C20.0901 128.617 21.1353 128.864 21.6527 128.758C21.9303 128.7 22.4923 127.582 22.674 127.504C23.2428 127.253 25.3127 127.452 23.1537 126.15C23.0543 126.088 21.7144 125.396 21.6287 125.365C21.3203 125.245 20.6624 125.454 20.5424 125.338C20.4225 125.221 20.6384 124.55 20.5184 124.245C20.3882 123.916 19.9153 123.984 19.8536 123.741C19.5246 122.397 19.8262 118.165 19.8467 116.448C19.6034 116.455 19.1168 116.592 19.1545 116.243C18.9763 115.352 19.4184 111.366 19.1614 110.972C19.5246 111.335 20.2237 110.671 19.8433 110.29C19.4629 109.91 18.7981 110.609 19.1614 110.972C19.1408 110.941 18.5685 111.109 18.4726 110.746C18.2841 110.043 18.4554 107.809 18.4794 106.863C19.4972 107.237 19.5829 105.181 18.4794 105.496C18.4828 105.27 18.4657 105.037 18.4794 104.811C19.2779 104.811 20.0764 104.811 20.8748 104.811L20.868 104.817Z" fill="#97A3C6"/>
<path d="M23.9451 132.878C23.3317 132.836 21.56 132.884 21.4401 132.847C21.0254 132.713 20.1858 131.253 19.7334 130.928C19.6581 130.873 18.3216 130.17 18.2325 130.15C16.8994 129.824 16.1283 130.941 16.4162 128.772C18.1776 129.286 18.3867 127.885 19.8431 128.087C20.2098 126.706 17.4237 127.727 17.1016 127.405C16.7315 127.035 16.9439 117.981 17.0776 116.942C17.1598 116.288 17.7321 116.617 17.8144 115.962C17.8863 115.393 17.972 111.147 17.7904 110.976C17.6636 110.856 16.543 111.099 16.4162 110.98C16.2106 110.784 16.3134 105.945 16.3922 105.308C16.4744 104.633 17.081 104.986 17.1324 104.311C17.1941 103.485 15.8336 102.913 16.4196 101.394C17.2626 101.113 17.5471 102.649 18.0337 102.752C18.5477 102.858 19.1337 102.652 19.6135 102.762C19.8877 102.823 19.8123 103.468 20.0145 103.464C21.1145 103.433 22.0466 101.638 23.2563 102.076V103.451C23.9109 104.095 26.0664 102.189 25.1206 102.076C24.8019 102.039 24.0239 102.166 23.9383 102.083C23.8629 102.011 23.8697 100.096 23.9417 100.027C24.8533 99.1669 25.943 101.316 26.2343 101.388C27.54 101.71 27.3858 100.743 27.5297 100.706C28.5269 100.449 28.3042 101.326 28.6126 101.391C29.322 101.545 30.1856 101.244 30.8881 101.401C31.1896 101.47 30.8572 102.035 32.8311 102.08L33.8558 102.765C32.4645 102.875 32.91 103.365 32.5947 103.44C32.1903 103.536 28.1157 102.909 27.5777 102.769C27.283 102.693 27.3823 102.152 27.3309 102.114C26.6867 101.645 26.3988 103.026 25.8745 103.32C24.3803 104.157 22.9033 104.705 21.2002 104.818C21.0871 104.825 20.9706 104.818 20.8575 104.818C20.5251 103.841 19.3428 104.146 18.4621 104.136C18.4449 104.362 18.4792 104.592 18.4621 104.818C18.4449 105.044 18.4655 105.274 18.4621 105.503C18.4518 105.959 18.4723 106.415 18.4621 106.871C18.4415 107.816 18.2701 110.051 18.4552 110.753C18.5512 111.113 19.1235 110.949 19.144 110.98C19.401 111.374 18.959 115.359 19.1372 116.25C19.0995 116.6 19.5861 116.459 19.8294 116.456C19.8088 118.173 19.5073 122.401 19.8363 123.748C19.8945 123.992 20.3674 123.923 20.5011 124.252C20.621 124.554 20.4051 125.222 20.5251 125.345C20.645 125.469 21.303 125.253 21.6114 125.373C21.6971 125.407 23.037 126.099 23.1364 126.157C25.2953 127.46 23.2255 127.261 22.6566 127.511C22.475 127.59 21.913 128.71 21.6354 128.765C21.1213 128.871 20.0727 128.625 19.8602 128.83C19.7677 128.919 19.9082 129.437 19.7266 129.701C19.5621 129.941 19.0069 129.601 19.1474 130.143C19.9048 130.513 20.8952 130.599 21.6114 130.863C21.9027 130.972 21.8821 131.445 22.1186 131.503C23.3763 131.819 24.2296 130.715 23.9314 132.884L23.9451 132.878ZM22.5744 103.447C22.2008 103.074 21.5223 103.756 21.8924 104.129C22.2625 104.503 22.9445 103.821 22.5744 103.447ZM19.1543 120.904C17.8829 120.619 18.6677 122.573 18.4723 123.296C19.7437 123.58 18.959 121.627 19.1543 120.904ZM18.4723 123.981H17.7904V125.006H18.4723V123.981Z" fill="#A0A3B3"/>
<path d="M60.209 125.346C60.2639 125.305 60.9081 124.232 60.9184 124.163C61.2029 121.991 60.61 119.167 60.8944 116.953C60.9732 116.329 60.7779 116.401 61.5798 116.446V125.346H62.2618C62.6147 124.948 61.573 122.148 62.9472 122.608C62.9369 123.372 62.7861 124.887 62.9472 125.466C63.0397 125.801 63.6086 125.661 63.6325 125.688C63.6942 125.767 62.4126 126.497 62.9472 127.402C62.0562 127.758 62.3886 126.788 62.0562 126.706C60.7848 126.387 60.9253 127.337 60.6648 127.395C60.1131 127.518 59.5579 127.278 58.9274 127.501C58.8006 127.546 58.2214 128.66 57.9027 128.749C57.4504 128.872 56.8472 128.687 56.364 128.851C53.458 129.832 50.8878 131.151 48.4684 132.076C45.6686 133.145 46.988 132.768 46.5151 135.366C46.3609 136.202 44.058 136.579 43.3109 136.535C42.4439 136.483 42.4747 135.685 42.1869 135.62C41.642 135.5 39.7572 135.517 39.2363 135.674C38.5303 135.89 38.5509 136.613 38.2254 136.888C37.8655 137.193 37.211 137.145 37.0191 137.415C36.8683 137.628 37.0362 138.193 36.9163 138.299C36.7586 138.44 35.9533 138.313 35.5078 138.443C35.1857 138.536 34.9047 138.927 34.6579 138.968C34.2604 139.036 33.0233 138.09 32.4716 137.864C31.0939 137.299 30.1138 136.853 28.8322 136.199C28.7465 136.154 28.7328 135.147 28.0645 135.633C28.0166 135.668 28.0371 137.069 27.3723 136.305C27.3072 136.23 27.482 135.239 27.0673 134.725C26.6218 134.173 24.6068 134.283 24.6342 132.882C25.7137 133.063 26.6321 133.32 27.8075 133.577C28.0234 133.625 29.3839 135.472 29.5073 135.517C30.1481 135.753 31.2139 135.462 31.4366 135.664C31.6594 135.866 31.207 136.768 32.3276 136.994C32.8725 137.103 34.7642 137.083 35.3296 136.97C36.272 136.785 36.1966 134.184 37.6325 134.249C37.7936 134.338 38.9382 134.232 39.3425 134.249C40.3638 134.29 41.3987 134.215 42.4199 134.252L41.7379 134.931H45.158C44.8153 133.954 45.439 132.816 45.4973 132.196C46.1278 131.641 46.3814 130.932 47.2073 130.829C48.1634 130.709 49.541 131.302 49.26 130.143C49.4828 130.14 49.7261 130.171 49.9454 130.143C50.5863 130.065 50.7302 130.404 50.6308 129.458C50.6719 129.496 51.1277 129.458 51.3162 129.458C52.334 129.444 51.909 128.821 52.0016 128.773C53.4032 128.07 55.9494 128.204 57.3681 127.292C57.7485 127.049 58.8211 125.839 59.4723 125.383C59.6744 125.239 60.1337 125.411 60.2125 125.349C59.8492 125.712 60.514 126.411 60.8944 126.031C61.2748 125.651 60.5757 124.986 60.2125 125.349L60.209 125.346Z" fill="#97A3C6"/>
<path d="M64.3089 104.13C64.7099 107.804 63.8291 112.375 64.2815 115.96C64.3637 116.615 64.936 116.286 65.0183 116.94C65.2307 118.633 64.6105 121.632 64.9874 123.074C65.056 123.335 66.2074 123.287 65.6591 123.969C65.3678 124.332 65.0937 123.372 64.9909 125.35C64.6859 125.429 64.4494 125.655 64.3055 125.692C64.1204 125.744 63.8394 125.658 63.6201 125.692C63.5961 125.665 63.0272 125.806 62.9347 125.47C62.7736 124.891 62.9279 123.376 62.9347 122.612C62.9416 121.847 62.9107 121.011 62.9347 120.216C63.0752 115.789 62.945 110.802 63.2808 106.361C63.3151 105.885 63.3836 103.825 64.302 104.13H64.3089Z" fill="#767888"/>
<path d="M43.7895 100.03C44.9238 99.9924 46.0752 100.023 47.2095 100.03C46.6818 102.381 43.4296 101.127 41.5414 101.373C40.9074 101.456 41.0925 102.014 40.8183 102.076C38.6833 102.566 36.168 102.59 33.8685 102.768L32.8439 102.083C34.9617 102.127 34.8109 101.473 35.1262 101.404C37.0384 100.99 38.536 101.003 40.5613 100.743C41.2295 100.657 41.8395 100.095 43.7895 100.03Z" fill="#97A3C6"/>
<path d="M53.711 98.9933C53.3854 99.1441 52.9022 99.6924 52.6863 100.021C52.5355 99.922 49.8762 100.032 49.2662 100.021C48.5843 100.008 47.8989 100.025 47.2135 100.021C46.0792 100.015 44.9243 99.9837 43.7934 100.021C43.9374 99.4971 43.3205 98.7157 44.2972 98.6506C45.6097 98.5615 47.2067 98.8425 48.4301 98.6712C50.027 98.4484 52.2545 96.8241 53.7144 98.9967L53.711 98.9933Z" fill="#A0A3B3"/>
<path d="M64.9943 125.357C64.9601 126.036 65.0218 126.728 64.9943 127.41H64.3124V125.7C64.4529 125.662 64.6893 125.436 64.9978 125.357H64.9943Z" fill="#97A3C6"/>
<path d="M146.068 102.083C147.209 101.878 147.98 103.869 146.918 104.133C145.992 104.362 145.965 102.584 146.068 102.083Z" fill="#97A3C6"/>
<path d="M142.218 101.151C142.876 101.942 143.027 105.109 141.153 104.44C139.874 103.981 140.556 99.1458 142.218 101.151Z" fill="#A1AFD7"/>
<path d="M159.407 117.486C157.279 118.288 156.645 114.508 157.903 114.093C159.935 113.425 159.38 116.252 159.407 117.486Z" fill="#A1AFD7"/>
<path d="M52.679 100.016C52.7098 100.037 52.5419 100.609 52.9017 100.705C53.9881 100.996 55.9791 100.462 57.2162 100.715C57.5144 100.777 58.1038 101.997 58.3985 102.055C59.3135 102.24 60.4821 101.873 61.3354 102.076C61.5924 102.137 61.5444 102.689 61.8049 102.747C62.7678 102.963 64.1283 102.48 64.3065 104.122C63.3847 103.817 63.3196 105.876 63.2853 106.352C62.9495 110.794 63.0797 115.78 62.9392 120.208C62.7781 119.049 63.1791 117.394 62.9323 116.335C62.8672 116.058 62.312 116.243 62.2298 115.609C62.1201 114.766 62.1236 112.305 62.2298 111.455C62.312 110.801 62.8843 111.13 62.9666 110.475C63.0968 109.44 63.1002 106.328 62.9666 105.297C62.922 104.944 62.5211 104.783 62.2572 104.122C62.1887 103.954 62.336 103.494 62.2572 103.436C62.0893 103.316 60.9413 103.546 60.4375 103.429C60.1599 103.364 60.345 102.802 59.7144 102.723C56.6302 102.34 56.6336 101.904 54.4952 101.39C53.3061 101.102 52.2438 100.996 51.0752 100.705C50.3692 100.53 49.0464 101.229 49.2589 100.013C49.8689 100.023 52.5316 99.9133 52.679 100.013V100.016Z" fill="#97A3C6"/>
<path d="M34.5525 108.925C33.8226 112.458 33.4662 117.105 33.9048 120.707C34.1584 122.783 35.2002 121.831 36.6052 121.248L36.2728 123.14L31.8144 130.491C30.5704 129.689 27.4279 128.88 25.8721 127.708C25.5431 127.458 25.2244 127.06 24.9742 126.728C26.4307 125.247 30.0598 125.299 30.4265 123.112C30.7486 121.204 29.5012 122.273 29.3984 121.748C29.1003 120.23 29.3984 116.396 29.4053 114.566C29.4087 113.757 29.7616 113.03 29.7754 112.201C29.7959 110.95 28.5382 108.445 30.1043 107.564C31.4957 108.013 33.1166 108.503 34.5525 108.932V108.925Z" fill="#97A3C6"/>
<path d="M30.1042 107.553C28.5381 108.434 29.7958 110.939 29.7752 112.19C29.7615 113.019 29.4085 113.746 29.4051 114.555C29.3982 116.388 29.0967 120.219 29.3982 121.737C29.501 122.262 30.7484 121.193 30.4263 123.101C30.0562 125.288 26.4305 125.236 24.9741 126.717C24.8507 126.556 24.2202 126.449 24.2921 125.867C24.0282 122.512 24.1276 119.109 23.946 115.764C23.922 115.319 23.6376 114.781 23.6067 114.229C23.4491 111.213 23.5725 108.163 23.2606 105.155C25.1351 105.131 28.2708 106.961 30.1008 107.55L30.1042 107.553Z" fill="#97A3C6"/>
<path d="M38.9981 120.219C39.0221 121.357 38.9741 122.505 38.9981 123.642C39.005 123.985 38.9913 124.328 38.9981 124.671C39.0084 125.356 38.9879 126.041 38.9981 126.723C39.0393 129.249 38.9913 131.747 39.3408 134.252C38.9364 134.235 37.7919 134.341 37.6308 134.252C37.6 134.235 37.7439 133.786 37.3669 133.591C35.3142 132.515 33.5562 131.61 31.8153 130.489L36.2737 123.139L36.6061 121.247C37.3395 120.942 38.0283 120.205 39.0016 120.219H38.9981Z" fill="#97A3C6"/>
<path d="M23.9438 115.776L21.8911 116.462C22.1104 115.499 21.658 115.115 20.6916 115.427C20.2222 115.577 21.1029 116.434 19.8383 116.462C19.8555 114.981 19.8246 113.494 19.8383 112.013C21.377 111.825 21.0069 112.569 21.216 113.549C21.3291 114.083 20.9727 114.152 21.8876 114.066C21.7231 112.915 22.1344 111.246 21.8808 110.197C21.8088 109.896 21.24 110.242 21.1748 109.138C21.1474 108.659 21.7711 105.653 21.8911 105.513C21.9356 105.458 23.1899 105.17 23.2584 105.17C23.5737 108.182 23.4503 111.229 23.6045 114.244C23.6319 114.796 23.9164 115.331 23.9438 115.78V115.776Z" fill="#97A3C6"/>
<path d="M49.2597 100.029C49.0472 101.246 50.37 100.543 51.0759 100.722C52.2445 101.013 53.3103 101.119 54.496 101.407C56.6344 101.921 56.631 102.36 59.7152 102.74C60.3458 102.819 60.1607 103.381 60.4383 103.446C60.942 103.562 62.0901 103.333 62.258 103.453C62.3368 103.508 62.186 103.967 62.258 104.138C56.9531 105.235 51.7613 106.914 46.5216 108.244C45.6134 108.473 44.695 108.699 43.7835 108.929C43.9617 108.031 44.1707 107.017 43.6155 106.194C42.4195 107.521 40.0618 108.326 39.3387 109.957C39.116 109.971 38.8761 109.971 38.6534 109.957C37.1387 109.865 35.9564 109.354 34.5479 108.929C33.1394 108.504 31.4945 108.011 30.0998 107.562C28.2698 106.969 25.1342 105.142 23.2596 105.166C23.1877 105.166 21.9368 105.454 21.8923 105.509C21.1658 105.591 21.1247 105.55 21.2069 104.824C22.9101 104.71 24.3871 104.162 25.8812 103.326C26.4055 103.031 26.6934 101.65 27.3377 102.12C27.3891 102.157 27.2897 102.699 27.5844 102.774C28.1224 102.915 32.197 103.542 32.6014 103.446C32.9167 103.371 32.4712 102.881 33.8625 102.771C36.162 102.593 38.6773 102.569 40.8123 102.079C41.0865 102.017 40.9048 101.458 41.5354 101.376C43.4236 101.129 46.6758 102.384 47.2035 100.033C47.8855 100.036 48.5709 100.019 49.2562 100.033L49.2597 100.029Z" fill="#97A3C6"/>
<path d="M19.1588 120.907C18.9669 121.63 19.7483 123.583 18.4769 123.299C18.6688 122.576 17.8875 120.623 19.1588 120.907Z" fill="#97A3C6"/>
<path d="M20.868 104.816C20.0695 104.816 19.271 104.816 18.4726 104.816C18.4863 104.59 18.452 104.361 18.4726 104.134C19.3533 104.148 20.539 103.843 20.868 104.816Z" fill="#97A3C6"/>
<path d="M18.4726 105.503C19.576 105.191 19.4904 107.244 18.4726 106.87C18.4829 106.415 18.4623 105.959 18.4726 105.503Z" fill="#97A3C6"/>
<path d="M18.4703 123.99H17.7883V125.015H18.4703V123.99Z" fill="#97A3C6"/>
<path d="M22.5763 103.448C22.9498 103.822 22.2678 104.504 21.8943 104.13C21.5208 103.757 22.2027 103.075 22.5763 103.448Z" fill="#97A3C6"/>
<path d="M62.263 104.131C62.5303 104.792 62.9279 104.957 62.9724 105.306C63.1061 106.338 63.1026 109.449 62.9724 110.484C62.8902 111.139 62.3179 110.81 62.2356 111.464C62.1294 112.311 62.1259 114.775 62.2356 115.618C62.3179 116.252 62.873 116.067 62.9381 116.344C63.1849 117.403 62.7839 119.055 62.945 120.217C62.921 121.012 62.9553 121.817 62.945 122.612C61.5708 122.153 62.6126 124.953 62.2596 125.347H61.5776V116.451C60.7757 116.406 60.9711 116.334 60.8923 116.958C60.6112 119.172 61.2007 121.995 60.9162 124.168C60.906 124.237 60.2617 125.306 60.2069 125.35C60.5701 124.987 61.2692 125.652 60.8888 126.032C60.5084 126.413 59.8436 125.714 60.2069 125.35C60.1281 125.412 59.6688 125.241 59.4667 125.385C58.819 125.844 57.7429 127.05 57.3625 127.293C55.9438 128.205 53.3976 128.071 51.996 128.774C51.9034 128.818 52.3318 129.446 51.3106 129.459C51.0399 128.626 51.9617 128.825 51.996 128.774C53.0515 127.125 50.1283 128.287 49.2579 128.092C49.8541 126.45 48.6513 124.559 48.5725 123.445C48.5176 122.657 49.1448 122.122 49.2407 121.399C49.5046 119.456 49.5766 115.447 49.2407 113.562C48.8398 111.307 45.2004 110.978 46.5197 108.24C51.7595 106.907 56.9479 105.231 62.2562 104.134L62.263 104.131Z" fill="#97A3C6"/>
<path d="M46.5257 108.24C45.2063 110.978 48.8457 111.304 49.2466 113.562C49.5825 115.447 49.5105 119.457 49.2466 121.4C49.1473 122.123 48.5236 122.657 48.5784 123.445C48.6572 124.559 49.8566 126.451 49.2638 128.092C50.1342 128.288 53.0574 127.126 52.0019 128.774C51.971 128.826 51.0458 128.627 51.3165 129.46C51.128 129.46 50.6757 129.497 50.6311 129.46C50.5352 129.374 50.8573 128.377 49.2638 128.778C48.9622 129.806 50.1479 129.158 49.9457 130.145C49.7298 130.173 49.4865 130.142 49.2603 130.145C48.5784 130.155 47.893 130.138 47.2076 130.145C46.3269 127.229 46.7004 124.827 46.5222 121.931C48.2597 121.749 48.0609 116.317 46.1795 116.455C46.0939 114.782 46.1453 114.155 46.2035 112.524C46.3303 108.991 43.0473 111.77 42.0741 109.268C42.643 109.142 43.2118 109.07 43.7841 108.926C44.6923 108.699 45.6107 108.473 46.5222 108.24H46.5257Z" fill="#97A3C6"/>
<path d="M38.9943 126.723C39.6762 126.346 41.609 126.747 41.8763 126.675C42.6679 126.455 41.9277 124.872 43.4424 125.352C43.2334 127.165 43.672 127.627 45.4951 127.408C45.4917 127.638 45.502 127.864 45.4951 128.093C43.9976 127.843 43.9496 129.015 45.4951 128.779C45.4574 129.892 45.5979 131.119 45.4951 132.202C45.4369 132.822 44.8132 133.96 45.1559 134.94H41.7358L42.4178 134.258C41.3965 134.221 40.3616 134.296 39.3404 134.255C38.9908 131.746 39.0388 129.252 38.9977 126.726L38.9943 126.723Z" fill="#97A3C6"/>
<path d="M46.1822 116.463C46.2782 118.293 46.4118 120.109 46.5249 121.939C46.6997 124.835 46.3296 127.237 47.2103 130.154C47.2652 130.332 47.1726 130.623 47.2103 130.839C46.3844 130.942 46.1308 131.651 45.5003 132.206C45.6031 131.127 45.4626 129.9 45.5003 128.783C45.5071 128.557 45.4934 128.327 45.5003 128.098C45.5071 127.868 45.4969 127.642 45.5003 127.412C45.5962 122.71 45.4866 117.981 45.4352 113.276C45.113 112.2 39.9624 110.857 38.6602 110.644V109.959C38.8829 109.973 39.1228 109.973 39.3455 109.959C40.6409 109.887 41.083 109.496 42.0836 109.273C43.0569 111.779 46.3399 108.996 46.2131 112.529C46.1548 114.16 46.1034 114.787 46.1891 116.46L46.1822 116.463Z" fill="#97A3C6"/>
<path d="M49.2605 130.148C49.5415 131.306 48.1639 130.714 47.2078 130.834C47.1701 130.618 47.2626 130.326 47.2078 130.148C47.8932 130.141 48.5751 130.158 49.2605 130.148Z" fill="#97A3C6"/>
<path d="M49.9454 130.146C50.1475 129.159 48.9618 129.806 49.2634 128.778C50.8569 128.377 50.5314 129.375 50.6307 129.46C50.7301 130.406 50.5896 130.067 49.9454 130.146Z" fill="#97A3C6"/>
<path d="M38.6531 109.948V110.633C38.6531 113.855 38.9273 117.011 38.9958 120.215C38.0226 120.201 37.3338 120.935 36.6004 121.243C35.1954 121.829 34.1536 122.778 33.9 120.702C33.4614 117.1 33.8177 112.453 34.5477 108.92C35.9561 109.341 37.1384 109.855 38.6531 109.948Z" fill="#97A3C6"/>
<path d="M45.4993 127.406C43.6762 127.625 43.2376 127.163 43.4466 125.35C41.9319 124.87 42.6721 126.453 41.8805 126.673C41.6132 126.745 39.6804 126.344 38.9985 126.721C38.9882 126.035 39.0087 125.35 38.9985 124.668C40.0848 124.932 40.0162 123.342 38.9985 123.64C38.9745 122.502 39.0224 121.354 38.9985 120.216C38.9299 117.009 38.6558 113.853 38.6558 110.635C39.958 110.847 45.1087 112.191 45.4308 113.267C45.4822 117.972 45.5918 122.701 45.4959 127.403L45.4993 127.406Z" fill="#97A3C6"/>
<path d="M38.9962 123.636C40.014 123.334 40.0826 124.928 38.9962 124.664C38.9894 124.321 39.0031 123.978 38.9962 123.636Z" fill="#97A3C6"/>
<path d="M43.7921 108.922C43.2198 109.066 42.651 109.138 42.0821 109.265C41.0849 109.488 40.6394 109.878 39.344 109.95C40.0671 108.319 42.4248 107.514 43.6208 106.188C44.176 107.01 43.9669 108.024 43.7887 108.922H43.7921Z" fill="#97A3C6"/>
<path d="M19.1609 110.978C18.7976 110.614 19.4625 109.915 19.8428 110.296C20.2232 110.676 19.5241 111.341 19.1609 110.978Z" fill="#97A3C6"/>
<path d="M46.5234 121.932C46.4137 120.102 46.2766 118.286 46.1807 116.456C48.062 116.319 48.2608 121.75 46.5234 121.932Z" fill="#97A3C6"/>
<path d="M45.5018 128.094C45.495 128.32 45.5087 128.55 45.5018 128.779C43.9563 129.016 44.0043 127.844 45.5018 128.094Z" fill="#97A3C6"/>
<g clip-path="url(#clip1_3835_45443)">
<path d="M60.7675 101.673C60.8977 101.707 61.1273 101.94 61.4529 102.015C62.0389 102.153 62.5461 102.317 63.1663 102.358C63.2966 102.574 63.3685 102.834 63.509 103.044C62.2102 102.814 59.6572 103.078 59.3967 101.33C59.8491 101.457 60.3117 101.553 60.7675 101.673Z" fill="#F8E5D6"/>
<path d="M66.2542 103.388C68.9889 104.018 71.0759 104.847 74.1361 105.444C74.167 105.461 74.0162 105.9 74.3863 106.119C74.6056 106.249 78.0017 106.924 77.5631 107.496C75.6166 108.394 72.8236 109.138 71.0519 110.241C70.9251 109.165 73.1903 108.381 72.6077 107.49C72.4535 107.253 68.283 105.269 67.5907 104.964C66.1137 104.309 64.6162 104.686 63.5127 103.045C64.3591 103.192 65.3358 103.175 66.2542 103.388Z" fill="#F8E5D6"/>
<path d="M28.5566 97.9014L27.8712 98.5868C27.4565 98.4634 26.9871 98.388 26.5004 98.2441C26.4764 98.2373 26.3736 97.97 26.1577 97.9014C24.3243 97.3154 24.3929 97.778 24.787 99.2722C25.5615 102.223 25.6883 100.807 27.7307 101.644C31.8122 103.313 34.8141 103.707 38.9264 104.841C40.5645 105.293 50.5985 108.748 51.1777 108.186C51.3902 107.98 50.7459 106.184 51.5135 106.129L51.9933 109.488L48.0935 120.862C48.4738 121.246 54.6389 117.366 55.9719 117.781C56.3523 119.292 54.9987 118.713 53.9226 119.327L49.4642 121.547H59.745C60.4441 123.257 59.7587 124.614 59.7313 126.16C59.6799 128.96 59.7964 131.773 59.7484 134.569C60.3927 135.245 64.1075 132.099 65.2281 133.199C64.7517 133.449 64.2788 133.702 63.7613 133.977C62.6407 134.566 60.6223 135.317 59.745 135.94L59.4091 135.594L59.4023 136.283C59.0219 136.797 59.4126 143.202 58.7375 143.671C55.338 143.997 52.1646 143.606 48.7788 144.165C48.2922 143.51 47.1305 143.908 46.38 143.822C42.1272 143.336 24.8418 136.533 20.3423 134.391C19.9482 134.203 19.5438 134.073 19.1771 133.829C18.6459 133.476 12.6968 126.965 12.2993 126.331C11.9394 125.762 11.8435 125.488 11.7612 124.813C11.3329 121.174 11.4871 113.494 11.751 109.711C11.7989 109.049 11.9497 108.473 12.1142 107.843C14.3314 108.792 16.0415 110.708 17.2512 112.641C15.733 112.14 15.5617 111.554 14.5096 110.584C14.0059 110.122 13.5741 109.591 12.9641 109.217C12.6214 109.203 12.8647 109.704 12.7962 109.899C11.5008 113.542 13.0086 121.28 12.5083 125.437C14.5405 127.328 16.8262 129.539 18.2861 131.831C20.0715 133.13 18.9886 125.951 18.9681 125.492C18.8378 122.596 19.1154 117.476 18.6151 114.878C18.5534 114.563 17.5699 113.151 17.2512 112.644C17.6795 112.785 18.9818 113.168 19.2799 112.959L24.2969 102.367C24.8349 100.506 23.3408 98.7616 23.4231 96.8802C23.6081 96.6951 28.046 97.6924 28.56 97.9048L28.5566 97.9014ZM23.7589 105.783C23.2106 106.849 19.4136 113.371 19.9893 114.005L39.5227 119.148C39.6392 119.255 39.7421 119.381 39.8654 119.491C40.4137 119.984 46.7775 121.797 47.062 121.547C47.1305 121.242 46.9763 120.742 47.062 120.519C48.2648 117.414 49.8926 113.871 50.6808 110.598C50.7665 110.235 50.9892 109.512 50.8007 109.245L25.6197 102.36C24.6773 102.38 24.1804 104.961 23.7589 105.783ZM47.4046 123.261C47.2127 129.868 47.4149 136.543 47.5623 143.154L57.6854 142.794H58.7135L59.0562 122.229H47.4012C47.3875 122.572 47.4149 122.915 47.4012 123.261H47.4046Z" fill="#3E256E"/>
<path d="M64.1954 102.016C65.7238 102.499 65.5731 102.663 66.2516 103.044V103.386C65.3332 103.174 64.3565 103.191 63.5101 103.044C63.3695 102.835 63.2976 102.574 63.1674 102.358C63.5375 102.382 64.0378 102.434 64.1954 102.016Z" fill="#ED993A"/>
<path d="M33.6955 99.955C36.5022 100.065 42.5336 102.906 45.8988 103.344C46.5122 103.423 47.1325 103.392 47.7459 103.378C47.6465 102.655 46.1627 102.731 46.0324 102.011C48.5718 101.795 50.3367 99.7083 52.386 99.5986C54.4352 99.4889 57.307 100.736 59.3974 101.326C59.6579 103.073 62.2109 102.81 63.5097 103.039C64.6132 104.684 66.1073 104.307 67.5878 104.958C68.28 105.263 72.4506 107.247 72.6048 107.484C73.1874 108.375 70.9222 109.16 71.049 110.236C70.7679 110.411 69.9421 111.274 69.6782 111.603C70.7131 111.97 70.6309 111.048 70.9496 110.931C71.2306 110.829 71.587 110.979 71.7343 110.921C71.1552 111.678 71.3985 111.778 72.2278 111.589C73.3244 111.339 76.1962 110.037 77.0529 110.911C77.9097 111.785 77.6184 116.154 77.3785 117.419C77.3442 117.607 76.8884 117.72 76.8747 117.775C74.1537 118.001 73.0571 118.556 72.9578 121.373C72.8275 125.009 72.5876 128.841 76.8747 125.314V126C76.8439 126.017 76.957 126.493 76.6383 126.692C75.312 127.518 72.7624 127.764 72.4197 129.427C69.99 130.633 67.766 131.856 65.2232 133.196C64.1026 132.096 60.3878 135.242 59.7435 134.567C59.795 131.771 59.675 128.957 59.7264 126.157C59.7573 124.615 60.4392 123.255 59.7401 121.545H49.4594L53.9178 119.324C54.9938 118.707 56.3475 119.286 55.9671 117.778C54.634 117.364 48.469 121.243 48.0886 120.859L51.9884 109.485L51.5087 106.127C50.741 106.178 51.3853 107.974 51.1728 108.183C50.5971 108.745 40.5596 105.291 38.9216 104.838C34.8093 103.704 31.8073 103.31 27.7258 101.641C25.6868 100.808 25.5566 102.22 24.7821 99.2696C27.109 98.6802 29.7443 99.8967 32.1808 100.311C32.9999 100.452 33.6133 99.9516 33.6921 99.955H33.6955ZM69.3321 111.61C68.8523 111.363 68.4171 111.826 68.6501 111.946C69.1299 112.193 69.5651 111.73 69.3321 111.61ZM67.2759 112.638C66.6556 112.549 64.9422 113.036 65.5659 113.663C65.7681 113.865 67.6083 112.789 67.2759 112.638ZM65.2198 113.666C63.7942 113.495 63.7942 114.173 65.2198 114.002V113.666ZM60.7648 115.722C59.3392 115.551 59.3392 116.229 60.7648 116.058V115.722Z" fill="#ED993A"/>
<path d="M72.7615 104.758L73.1042 105.101C73.207 105.163 73.6868 105.19 74.1323 105.444C71.072 104.847 68.985 104.018 66.2504 103.388V103.045C66.7815 103.343 71.1234 104.004 72.7615 104.758Z" fill="#3E256E"/>
<path d="M79.2724 106.81V107.153C79.1524 113.476 79.4711 119.805 78.8749 126.117C78.7412 126.501 74.1937 128.852 73.4089 129.233C73.032 129.418 72.5728 129.349 72.4185 129.428C72.7612 127.766 75.3109 127.519 76.6371 126.693C76.9524 126.494 76.8427 126.022 76.8735 126.001C77.1717 125.826 78.2717 126.2 78.2477 125.148L78.5836 108.181C78.282 107.866 72.6653 110.559 71.7332 110.923C71.5858 110.981 71.2294 110.83 70.9484 110.933C70.6263 111.049 70.7085 111.975 69.677 111.604C69.9409 111.275 70.7668 110.412 71.0478 110.237C72.8195 109.13 75.6124 108.39 77.5589 107.492C77.9976 106.923 74.5981 106.245 74.3822 106.115C74.0121 105.895 74.1663 105.457 74.132 105.439C75.6467 105.734 77.9153 105.919 79.2724 106.81Z" fill="#3E256E"/>
<path d="M60.7671 100.988V101.673C60.3113 101.553 59.8487 101.457 59.3963 101.33C57.3059 100.741 54.489 99.4866 52.3848 99.6031C50.2807 99.7196 48.5707 101.8 46.0313 102.016C46.1616 102.735 47.6454 102.66 47.7448 103.383C47.1314 103.397 46.5111 103.431 45.8977 103.349C42.5324 102.91 36.5011 100.066 33.6944 99.9595C33.4682 99.9492 33.2352 99.9732 33.009 99.9595L33.3517 99.2741C36.6656 100.117 42.9677 102.276 46.0313 102.016C45.8463 100.984 48.0498 100.669 48.838 100.268C49.0916 100.138 49.143 99.7607 49.3931 99.6511C50.0991 99.3461 51.7474 98.6504 52.4088 98.6024C53.9784 98.4893 58.92 100.422 60.7637 100.988H60.7671Z" fill="#3E256E"/>
<path d="M64.1959 102.015C64.0382 102.434 63.5379 102.382 63.1678 102.358C62.5475 102.317 62.0403 102.153 61.4543 102.015V101.33C62.3488 101.601 63.3049 101.734 64.1959 102.015Z" fill="#3E256E"/>
<path d="M48.7775 144.168C48.0304 144.292 46.1525 145.268 46.3786 143.826C47.1291 143.911 48.2909 143.514 48.7775 144.168Z" fill="#ED993A"/>
<path d="M29.241 98.2489C29.3198 98.3106 29.0936 99.7499 30.6118 98.5916C30.8756 98.6876 31.2046 98.9103 31.2972 98.9343L30.9545 99.6197C29.7173 99.349 28.9429 98.9103 27.8702 98.5916L28.5556 97.9062C28.7578 97.9885 29.0902 98.1324 29.241 98.2489Z" fill="#ED993A"/>
<path d="M33.3514 99.2724L33.0087 99.9578C32.4158 99.9201 32.1314 99.6391 31.9806 99.6151L32.3233 98.9297C32.7859 99.0359 33.0909 99.2073 33.3514 99.2724Z" fill="#ED993A"/>
<path d="M30.6123 98.5927C29.0942 99.751 29.3204 98.3117 29.2416 98.25C29.879 98.0204 30.2182 98.4487 30.6123 98.5927Z" fill="#3E256E"/>
<path d="M32.3266 98.9237L31.9839 99.6091C31.6618 99.5611 31.2505 99.6742 30.9558 99.6091L31.2985 98.9237C31.5864 98.9957 32.0319 98.8552 32.3266 98.9237Z" fill="#3E256E"/>
<path d="M61.4541 101.325V102.01C61.1285 101.935 60.8989 101.702 60.7687 101.668V100.982C61.0737 101.075 61.3101 101.281 61.4541 101.325Z" fill="#ED993A"/>
<path d="M59.7399 135.94C59.6541 135.999 59.4585 136.198 59.3967 136.284L59.4036 135.594L59.7399 135.94Z" fill="#ED993A"/>
<path d="M73.1108 105.104L72.767 104.76C72.9079 104.825 73.0008 105.038 73.1108 105.104Z" fill="#ED993A"/>
<path d="M79.2766 107.154V106.811C79.8199 107.168 79.2766 106.996 79.2766 107.154Z" fill="#ED993A"/>
<path d="M23.7617 105.783C24.1832 104.96 24.6801 102.38 25.6225 102.359L50.8001 109.244C50.9886 109.508 50.7693 110.234 50.6802 110.598C49.892 113.87 48.2642 117.414 47.0614 120.519C44.7139 120.467 42.1814 118.483 39.8648 119.491C39.7415 119.381 39.6386 119.254 39.5221 119.148C39.3302 118.973 38.9601 117.746 37.6476 117.767L22.062 112.966C21.3971 110.183 23.7343 108.384 23.7583 105.786L23.7617 105.783Z" fill="#ED993A"/>
<path d="M57.6839 142.795L47.5608 143.155C47.4135 136.548 47.2113 129.869 47.4032 123.262C48.9693 123.299 56.5428 123.221 57.1733 124.286L57.6839 142.795Z" fill="#ED993A"/>
<path d="M12.7916 109.894V117.43C13.3913 117.509 13.1172 116.652 13.1343 116.237C13.196 114.736 12.8773 112.416 13.1137 111.117C13.1926 110.689 14.3406 111.138 14.5051 110.579C15.5571 111.549 15.7285 112.135 17.2466 112.636C17.5653 113.143 18.5488 114.555 18.6105 114.87C19.1109 117.468 18.8333 122.587 18.9635 125.483C18.9841 125.946 20.067 133.122 18.2815 131.823C16.8217 129.53 14.5393 127.32 12.5038 125.428C13.0041 121.271 11.4928 113.537 12.7916 109.891V109.894Z" fill="#ED993A"/>
<path d="M47.4054 123.262C47.4156 122.92 47.3916 122.574 47.4054 122.234H59.0603L58.7176 142.799H57.6895L57.1789 124.287C56.5484 123.221 48.9749 123.3 47.4088 123.262H47.4054Z" fill="#F8E5D6"/>
<path d="M23.7589 105.787C23.7349 108.388 21.3978 110.187 22.0626 112.966L37.6482 117.767C38.9607 117.75 39.3274 118.977 39.5227 119.148L19.9893 114.004C19.4136 113.367 23.2106 106.849 23.7589 105.783V105.787Z" fill="#F8E5D6"/>
<path d="M47.0593 120.522C46.9737 120.745 47.1244 121.248 47.0593 121.55C46.7749 121.8 40.4111 119.987 39.8628 119.494C42.1794 118.486 44.7119 120.471 47.0593 120.522Z" fill="#F8E5D6"/>
<path d="M26.1569 97.9003L26.4996 98.243C26.9862 98.3869 27.4557 98.4623 27.8704 98.5857C28.943 98.9044 29.7175 99.343 30.9546 99.6137C31.2493 99.6788 31.6606 99.5658 31.9827 99.6137C32.1335 99.6377 32.4179 99.9187 33.0108 99.9564C33.2369 99.9701 33.47 99.9461 33.6961 99.9564C33.6173 99.9564 33.0073 100.453 32.1849 100.313C29.7483 99.8982 27.113 98.6816 24.7862 99.271C24.3921 97.7769 24.3235 97.3143 26.1569 97.9003Z" fill="#F8E5D6"/>
<path d="M12.7916 109.897C12.8602 109.702 12.6203 109.201 12.9595 109.215C13.5661 109.589 14.0013 110.12 14.5051 110.582C14.3406 111.141 13.1926 110.692 13.1137 111.12C12.8773 112.419 13.196 114.739 13.1343 116.24C13.1172 116.658 13.3948 117.515 12.795 117.433V109.897H12.7916Z" fill="#F8E5D6"/>
<path d="M26.503 98.2501L26.1592 97.9062C26.3758 97.975 26.479 98.2432 26.503 98.2501Z" fill="#ED993A"/>
<path d="M76.8762 117.777C76.5575 118.826 76.8762 123.747 76.8762 125.317C72.5891 128.843 72.829 125.015 72.9592 121.376C73.0586 118.559 74.1552 118.004 76.8762 117.777Z" fill="#ED993A"/>
<path d="M71.7366 110.923C72.6687 110.56 78.2855 107.867 78.587 108.182L78.2512 125.149C78.2752 126.201 77.1717 125.827 76.877 126.002V125.316C76.877 123.747 76.5583 118.826 76.877 117.777C76.8941 117.726 77.3465 117.609 77.3808 117.421C77.6172 116.156 77.9016 111.78 77.0552 110.913C76.2087 110.046 73.3267 111.338 72.2301 111.592C71.4008 111.784 71.1575 111.681 71.7366 110.923Z" fill="#F8E5D6"/>
<path d="M67.2757 112.636C67.6081 112.786 65.7678 113.862 65.5656 113.66C64.9419 113.033 66.6554 112.546 67.2757 112.636Z" fill="#3E256E"/>
<path d="M65.2203 113.676V114.012C63.7947 114.184 63.7947 113.505 65.2203 113.676Z" fill="#3E256E"/>
<path d="M60.7627 115.727V116.063C59.3371 116.234 59.3371 115.556 60.7627 115.727Z" fill="#3E256E"/>
<path d="M69.3308 111.622C69.5638 111.742 69.1286 112.205 68.6488 111.958C68.4158 111.838 68.851 111.375 69.3308 111.622Z" fill="#3E256E"/>
<path d="M64.0983 123.318L64.0487 123.448C64.3599 123.596 65.0987 123.794 64.3074 124.345C63.7968 124.146 63.1543 124.101 62.6791 123.862C62.6168 123.831 62.5289 123.96 62.5058 123.726C62.4744 123.404 62.6673 123.322 62.8691 123.057L64.4429 121.549C64.622 121.442 64.8365 121.513 64.813 121.731C64.8091 121.769 64.7354 121.799 64.7114 121.848C64.6819 121.907 64.6878 121.983 64.6495 122.037C64.5877 122.126 64.2308 122.443 64.1228 122.501C64.11 122.623 64.2053 122.66 64.2961 122.638L72.4944 118.987C74.5001 118.33 75.2104 120.906 73.564 122.963C73.4776 123.071 72.8306 123.729 72.7869 123.748L63.8528 127.726C63.7296 127.781 63.5686 127.321 64.0482 127.047C66.7068 125.732 69.5088 124.793 72.1507 123.442C72.7683 123.127 73.3053 122.695 73.6366 121.936C74.2566 120.515 73.7402 119.387 72.5641 119.632C72.5164 119.642 72.4585 119.596 72.4438 119.602L64.0983 123.318V123.318Z" fill="#402264"/>
</g>
</g>
<defs>
<clipPath id="clip0_3835_45443">
<rect width="188.481" height="263.873" fill="white" transform="translate(0 -42.6934)"/>
</clipPath>
<clipPath id="clip1_3835_45443">
<rect width="68.0278" height="47.7507" fill="white" transform="translate(11.4835 96.8594)"/>
</clipPath>
</defs>
</svg>
