<svg width="57" height="57" viewBox="0 0 57 57" fill="none" xmlns="http://www.w3.org/2000/svg">
<path d="M28.2231 4.70312C41.2127 4.70312 51.7431 15.2334 51.7431 28.2231C51.7431 41.2127 41.2127 51.7431 28.2231 51.7431C24.0751 51.7431 20.1724 50.6675 16.7852 48.7789L16.0673 48.3619L8.93614 50.4594C7.21826 50.9647 5.61622 49.4686 5.92586 47.7666L5.98687 47.51L8.08427 40.379C5.93804 36.83 4.70312 32.6675 4.70312 28.2231C4.70312 15.2334 15.2334 4.70312 28.2231 4.70312ZM28.2231 9.40712C17.8313 9.40712 9.40712 17.8313 9.40712 28.2231C9.40712 31.932 10.4778 35.3836 12.3259 38.2939C12.7925 39.0288 12.991 39.9316 12.8329 40.8272L12.743 41.2102L11.7043 44.7419L15.236 43.7033C16.2532 43.4041 17.3125 43.5871 18.1523 44.1203C21.0628 45.9685 24.5143 47.0391 28.2231 47.0391C38.615 47.0391 47.0391 38.615 47.0391 28.2231C47.0391 17.8313 38.615 9.40712 28.2231 9.40712ZM21.4061 16.8961C21.9138 16.6785 22.5287 16.7183 23.0148 17.0729C24.2012 17.9383 25.1431 19.0991 25.9521 20.2344L26.7208 21.3493C26.8429 21.5297 26.9623 21.7065 27.0796 21.8781C27.5089 22.5059 27.4594 23.3401 26.973 23.9095L26.7948 24.0888L24.6229 25.7018C24.4077 25.8617 24.336 26.1522 24.4651 26.3874C24.9567 27.2819 25.8321 28.6129 26.8338 29.6146C27.8367 30.6175 29.2307 31.5496 30.1866 32.0962C30.3932 32.2144 30.6442 32.177 30.8128 32.0232L30.903 31.9172L32.3161 29.7649C32.8577 29.044 33.8696 28.8864 34.605 29.3954L35.8819 30.2854C37.1506 31.1909 38.3721 32.1644 39.3375 33.4008C39.7178 33.8879 39.7743 34.5246 39.5475 35.0538C38.6161 37.2273 36.2587 39.0783 33.8068 38.988L33.4339 38.9665L32.9825 38.9218C32.901 38.912 32.8165 38.901 32.729 38.8885L32.17 38.7959C29.9974 38.3856 26.5123 37.1537 22.9035 33.545C19.2949 29.9363 18.0629 26.451 17.6526 24.2785L17.5599 23.7194L17.501 23.2308L17.4687 22.818C17.4652 22.7558 17.4625 22.697 17.4605 22.6417C17.3701 20.1862 19.2311 17.8282 21.4061 16.8961Z" fill="black"/>
<path d="M21.4044 16.8995C21.912 16.6819 22.5269 16.7217 23.013 17.0763C24.1994 17.9418 25.1414 19.1026 25.9503 20.2379L26.719 21.3527C26.8411 21.5332 26.9606 21.7099 27.0778 21.8815C27.5071 22.5093 27.4577 23.3436 26.9713 23.9129L26.793 24.0922L24.6212 25.7052C24.406 25.8651 24.3342 26.1556 24.4634 26.3908C24.9549 27.2853 25.8303 28.6163 26.8321 29.618C27.8349 30.6209 29.229 31.553 30.1848 32.0996C30.3914 32.2178 30.6424 32.1805 30.811 32.0266L30.9013 31.9206L32.3143 29.7683C32.856 29.0474 33.8678 28.8898 34.6033 29.3988L35.8801 30.2888C37.1489 31.1943 38.3703 32.1679 39.3358 33.4042C39.7161 33.8913 39.7725 34.528 39.5458 35.0572C38.6144 37.2307 36.257 39.0817 33.805 38.9914L33.4321 38.9699L32.9807 38.9252C32.8993 38.9154 32.8147 38.9044 32.7273 38.892L32.1682 38.7993C29.9957 38.3891 26.5105 37.1571 22.9018 33.5484C19.2931 29.9397 18.0611 26.4545 17.6509 24.2819L17.5582 23.7229L17.4992 23.2342L17.467 22.8214C17.4635 22.7592 17.4608 22.7004 17.4587 22.6451C17.3684 20.1896 19.2294 17.8317 21.4044 16.8995Z" fill="#2871F0"/>
</svg>
