<svg width="63" height="63" viewBox="0 0 63 63" fill="none" xmlns="http://www.w3.org/2000/svg">
<path d="M31.0453 5.17188C45.3339 5.17188 56.9173 16.7552 56.9173 31.0439C56.9173 45.3325 45.3339 56.9159 31.0453 56.9159C26.4825 56.9159 22.1896 55.7327 18.4636 53.6553L17.6739 53.1965L9.82965 55.5038C7.93999 56.0597 6.17774 54.4139 6.51835 52.5417L6.58546 52.2594L8.8926 44.4153C6.53175 40.5115 5.17334 35.9326 5.17334 31.0439C5.17334 16.7552 16.7566 5.17188 31.0453 5.17188ZM31.0453 10.3463C19.6144 10.3463 10.3477 19.6129 10.3477 31.0439C10.3477 35.1236 11.5254 38.9203 13.5584 42.1217C14.0716 42.9301 14.29 43.9232 14.116 44.9084L14.0172 45.3296L12.8746 49.2146L16.7595 48.072C17.8784 47.743 19.0437 47.9442 19.9674 48.5308C23.169 50.5638 26.9656 51.7415 31.0453 51.7415C42.4764 51.7415 51.7429 42.4749 51.7429 31.0439C51.7429 19.6129 42.4764 10.3463 31.0453 10.3463ZM23.5466 18.5841C24.1051 18.3448 24.7814 18.3886 25.3161 18.7786C26.6212 19.7306 27.6574 21.0075 28.5472 22.2563L29.3927 23.4827C29.527 23.6812 29.6584 23.8756 29.7874 24.0643C30.2597 24.7549 30.2052 25.6726 29.6702 26.2988L29.4741 26.4961L27.0851 28.2704C26.8484 28.4463 26.7695 28.7658 26.9115 29.0246C27.4522 30.0085 28.4152 31.4726 29.5171 32.5745C30.6203 33.6776 32.1537 34.7029 33.2051 35.3042C33.4324 35.4342 33.7085 35.3932 33.8939 35.2239L33.9932 35.1073L35.5476 32.7398C36.1434 31.9468 37.2564 31.7735 38.0654 32.3333L39.4699 33.3124C40.8656 34.3085 42.2092 35.3793 43.2712 36.7393C43.6895 37.2751 43.7516 37.9755 43.5022 38.5576C42.4777 40.9484 39.8845 42.9846 37.1873 42.8852L36.7772 42.8616L36.2806 42.8124C36.191 42.8017 36.098 42.7895 36.0018 42.7758L35.3868 42.6739C32.9971 42.2226 29.1634 40.8675 25.1938 36.8979C21.2242 32.9284 19.8691 29.0946 19.4178 26.7048L19.3158 26.0898L19.251 25.5523L19.2155 25.0982C19.2116 25.0298 19.2087 24.9652 19.2064 24.9043C19.107 22.2033 21.1542 19.6095 23.5466 18.5841Z" fill="black"/>
<rect x="15.3999" y="18.3516" width="31.9" height="25.3" fill="white"/>
<path d="M19.3118 20.6334C19.7246 20.1877 20.3603 19.9525 21.0074 20.0914C22.5868 20.4303 24.0528 21.1753 25.3736 21.9542L26.6449 22.7306C26.8483 22.8573 27.0474 22.9815 27.242 23.1015C27.9543 23.5403 28.2778 24.4008 28.0438 25.1905L27.9449 25.4504L26.4841 28.043C26.3394 28.3 26.3972 28.624 26.6322 28.8026C27.5264 29.4815 29.0016 30.4274 30.4564 30.9858C31.9129 31.5449 33.7308 31.8579 34.9359 31.9795C35.1964 32.0059 35.4319 31.8561 35.5325 31.626L35.5758 31.4791L36.0328 28.684C36.2546 27.7173 37.2009 27.1062 38.1677 27.2886L39.8489 27.6118C41.5291 27.9541 43.192 28.3858 44.7154 29.1963C45.3155 29.5157 45.6571 30.1302 45.666 30.7635C45.7025 33.3643 44.1617 36.2791 41.6573 37.2854L41.273 37.4307L40.7994 37.5877C40.7131 37.6143 40.6232 37.641 40.5298 37.6677L39.9265 37.8247C37.5598 38.3844 33.5064 38.7057 28.2654 36.694C23.0245 34.6821 20.2271 31.731 18.8428 29.7314L18.4995 29.211L18.2217 28.7464L18.0046 28.346C17.9732 28.2851 17.9442 28.2272 17.9174 28.1725C16.728 25.7454 17.5432 22.5432 19.3118 20.6334Z" fill="#2871F0"/>
</svg>
