<svg width="63" height="63" viewBox="0 0 63 63" fill="none" xmlns="http://www.w3.org/2000/svg">
<path d="M31.0453 5.17188C45.3339 5.17188 56.9173 16.7552 56.9173 31.0439C56.9173 45.3325 45.3339 56.9159 31.0453 56.9159C26.4825 56.9159 22.1896 55.7327 18.4636 53.6553L17.6739 53.1965L9.82965 55.5038C7.93999 56.0597 6.17774 54.4139 6.51835 52.5417L6.58546 52.2594L8.8926 44.4153C6.53175 40.5115 5.17334 35.9326 5.17334 31.0439C5.17334 16.7552 16.7566 5.17188 31.0453 5.17188ZM31.0453 10.3463C19.6144 10.3463 10.3477 19.6129 10.3477 31.0439C10.3477 35.1236 11.5254 38.9203 13.5584 42.1217C14.0716 42.9301 14.29 43.9232 14.116 44.9084L14.0172 45.3296L12.8746 49.2146L16.7595 48.072C17.8784 47.743 19.0437 47.9442 19.9674 48.5308C23.169 50.5638 26.9656 51.7415 31.0453 51.7415C42.4764 51.7415 51.7429 42.4749 51.7429 31.0439C51.7429 19.6129 42.4764 10.3463 31.0453 10.3463ZM23.5466 18.5841C24.1051 18.3448 24.7814 18.3886 25.3161 18.7786C26.6212 19.7306 27.6574 21.0075 28.5472 22.2563L29.3927 23.4827C29.527 23.6812 29.6584 23.8756 29.7874 24.0643C30.2597 24.7549 30.2052 25.6726 29.6702 26.2988L29.4741 26.4961L27.0851 28.2704C26.8484 28.4463 26.7695 28.7658 26.9115 29.0246C27.4522 30.0085 28.4152 31.4726 29.5171 32.5745C30.6203 33.6776 32.1537 34.7029 33.2051 35.3042C33.4324 35.4342 33.7085 35.3932 33.8939 35.2239L33.9932 35.1073L35.5476 32.7398C36.1434 31.9468 37.2564 31.7735 38.0654 32.3333L39.4699 33.3124C40.8656 34.3085 42.2092 35.3793 43.2712 36.7393C43.6895 37.2751 43.7516 37.9755 43.5022 38.5576C42.4777 40.9484 39.8845 42.9846 37.1873 42.8852L36.7772 42.8616L36.2806 42.8124C36.191 42.8017 36.098 42.7895 36.0018 42.7758L35.3868 42.6739C32.9971 42.2226 29.1634 40.8675 25.1938 36.8979C21.2242 32.9284 19.8691 29.0946 19.4178 26.7048L19.3158 26.0898L19.251 25.5523L19.2155 25.0982C19.2116 25.0298 19.2087 24.9652 19.2064 24.9043C19.107 22.2033 21.1542 19.6095 23.5466 18.5841Z" fill="black"/>
<rect x="15.3999" y="18.3516" width="31.9" height="25.3" fill="white"/>
<path d="M21.5679 20.1408C22.0763 19.8081 22.75 19.7338 23.3443 20.025C24.7949 20.7359 26.037 21.8135 27.1302 22.8888L28.1758 23.9497C28.3426 24.1219 28.5057 24.2905 28.6655 24.454C29.2505 25.0521 29.3563 25.9653 28.9381 26.6749L28.7793 26.9032L26.7346 29.0654C26.5321 29.2798 26.5098 29.6082 26.6946 29.8383C27.398 30.7133 28.6006 31.988 29.8771 32.8818C31.155 33.7767 32.8432 34.5201 33.9831 34.9297C34.2295 35.0182 34.4943 34.9299 34.6475 34.731L34.725 34.5989L35.8447 31.9974C36.2937 31.113 37.3597 30.749 38.2537 31.1599L39.8069 31.8802C41.3543 32.6188 42.8634 33.4401 44.1454 34.595C44.6504 35.05 44.8332 35.729 44.6887 36.3456C44.0949 38.878 41.8947 41.3335 39.2212 41.704L38.8132 41.7519L38.3157 41.7897C38.2255 41.7947 38.1319 41.7989 38.0347 41.8021L37.4114 41.8085C34.9796 41.7791 30.9688 41.1103 26.3702 37.8903C21.7717 34.6704 19.7713 31.1301 18.9119 28.855L18.7047 28.2671L18.5475 27.749L18.4338 27.308C18.4181 27.2413 18.4039 27.1781 18.3911 27.1186C17.8242 24.4758 19.3899 21.566 21.5679 20.1408Z" fill="#2871F0"/>
</svg>
