<svg width="63" height="63" viewBox="0 0 63 63" fill="none" xmlns="http://www.w3.org/2000/svg">
<path d="M31.0453 5.17188C45.3339 5.17188 56.9173 16.7552 56.9173 31.0439C56.9173 45.3325 45.3339 56.9159 31.0453 56.9159C26.4825 56.9159 22.1896 55.7327 18.4636 53.6553L17.6739 53.1965L9.82965 55.5038C7.93999 56.0597 6.17774 54.4139 6.51835 52.5417L6.58546 52.2594L8.8926 44.4153C6.53175 40.5115 5.17334 35.9326 5.17334 31.0439C5.17334 16.7552 16.7566 5.17188 31.0453 5.17188ZM31.0453 10.3463C19.6144 10.3463 10.3477 19.6129 10.3477 31.0439C10.3477 35.1236 11.5254 38.9203 13.5584 42.1217C14.0716 42.9301 14.29 43.9232 14.116 44.9084L14.0172 45.3296L12.8746 49.2146L16.7595 48.072C17.8784 47.743 19.0437 47.9442 19.9674 48.5308C23.169 50.5638 26.9656 51.7415 31.0453 51.7415C42.4764 51.7415 51.7429 42.4749 51.7429 31.0439C51.7429 19.6129 42.4764 10.3463 31.0453 10.3463ZM23.5466 18.5841C24.1051 18.3448 24.7814 18.3886 25.3161 18.7786C26.6212 19.7306 27.6574 21.0075 28.5472 22.2563L29.3927 23.4827C29.527 23.6812 29.6584 23.8756 29.7874 24.0643C30.2597 24.7549 30.2052 25.6726 29.6702 26.2988L29.4741 26.4961L27.0851 28.2704C26.8484 28.4463 26.7695 28.7658 26.9115 29.0246C27.4522 30.0085 28.4152 31.4726 29.5171 32.5745C30.6203 33.6776 32.1537 34.7029 33.2051 35.3042C33.4324 35.4342 33.7085 35.3932 33.8939 35.2239L33.9932 35.1073L35.5476 32.7398C36.1434 31.9468 37.2564 31.7735 38.0654 32.3333L39.4699 33.3124C40.8656 34.3085 42.2092 35.3793 43.2712 36.7393C43.6895 37.2751 43.7516 37.9755 43.5022 38.5576C42.4777 40.9484 39.8845 42.9846 37.1873 42.8852L36.7772 42.8616L36.2806 42.8124C36.191 42.8017 36.098 42.7895 36.0018 42.7758L35.3868 42.6739C32.9971 42.2226 29.1634 40.8675 25.1938 36.8979C21.2242 32.9284 19.8691 29.0946 19.4178 26.7048L19.3158 26.0898L19.251 25.5523L19.2155 25.0982C19.2116 25.0298 19.2087 24.9652 19.2064 24.9043C19.107 22.2033 21.1542 19.6095 23.5466 18.5841Z" fill="black"/>
<rect x="15.3999" y="18.3516" width="31.9" height="25.3" fill="white"/>
<path d="M20.1996 19.415C20.6567 19.0148 21.3135 18.8474 21.9426 19.0532C23.4779 19.5553 24.858 20.4495 26.0901 21.3622L27.2733 22.2672C27.4623 22.4145 27.6474 22.5588 27.8284 22.6984C28.4909 23.2093 28.7227 24.0989 28.4074 24.8598L28.2819 25.108L26.5581 27.5337C26.3873 27.7742 26.411 28.1025 26.626 28.3046C27.4443 29.0733 28.8126 30.1682 30.201 30.8756C31.5911 31.5839 33.3663 32.0852 34.5521 32.3321C34.8084 32.3855 35.0583 32.2612 35.1824 32.0429L35.2408 31.9013L35.9875 29.1693C36.3091 28.231 37.3141 27.7222 38.2565 28.0047L39.8948 28.5018C41.5299 29.0178 43.1387 29.6211 44.569 30.5864C45.1324 30.9667 45.4079 31.6136 45.3506 32.2443C45.115 34.8347 43.278 37.5725 40.6821 38.3115L40.2847 38.4158L39.7973 38.5224C39.7087 38.5399 39.6165 38.5571 39.5208 38.5738L38.9044 38.6669C36.4921 38.9762 32.4274 38.872 27.4254 36.3234C22.4234 33.7748 19.9499 30.5474 18.7822 28.4141L18.4952 27.8607L18.2674 27.3696L18.0934 26.9487C18.0686 26.8848 18.0457 26.8242 18.0248 26.767C17.0956 24.2289 18.241 21.1295 20.1996 19.415Z" fill="#2871F0"/>
</svg>
