<svg width="57" height="57" viewBox="0 0 57 57" fill="none" xmlns="http://www.w3.org/2000/svg">
<path d="M28.2231 4.70312C41.2127 4.70312 51.7431 15.2334 51.7431 28.2231C51.7431 41.2127 41.2127 51.7431 28.2231 51.7431C24.0751 51.7431 20.1724 50.6675 16.7852 48.7789L16.0673 48.3619L8.93614 50.4594C7.21826 50.9647 5.61622 49.4686 5.92586 47.7666L5.98687 47.51L8.08427 40.379C5.93804 36.83 4.70312 32.6675 4.70312 28.2231C4.70312 15.2334 15.2334 4.70312 28.2231 4.70312ZM28.2231 9.40712C17.8313 9.40712 9.40712 17.8313 9.40712 28.2231C9.40712 31.932 10.4778 35.3836 12.3259 38.2939C12.7925 39.0288 12.991 39.9316 12.8329 40.8272L12.743 41.2102L11.7043 44.7419L15.236 43.7033C16.2532 43.4041 17.3125 43.5871 18.1523 44.1203C21.0628 45.9685 24.5143 47.0391 28.2231 47.0391C38.615 47.0391 47.0391 38.615 47.0391 28.2231C47.0391 17.8313 38.615 9.40712 28.2231 9.40712ZM21.4061 16.8961C21.9138 16.6785 22.5287 16.7183 23.0148 17.0729C24.2012 17.9383 25.1431 19.0991 25.9521 20.2344L26.7208 21.3493C26.8429 21.5297 26.9623 21.7065 27.0796 21.8781C27.5089 22.5059 27.4594 23.3401 26.973 23.9095L26.7948 24.0888L24.6229 25.7018C24.4077 25.8617 24.336 26.1522 24.4651 26.3874C24.9567 27.2819 25.8321 28.6129 26.8338 29.6146C27.8367 30.6175 29.2307 31.5496 30.1866 32.0962C30.3932 32.2144 30.6442 32.177 30.8128 32.0232L30.903 31.9172L32.3161 29.7649C32.8577 29.044 33.8696 28.8864 34.605 29.3954L35.8819 30.2854C37.1506 31.1909 38.3721 32.1644 39.3375 33.4008C39.7178 33.8879 39.7743 34.5246 39.5475 35.0538C38.6161 37.2273 36.2587 39.0783 33.8068 38.988L33.4339 38.9665L32.9825 38.9218C32.901 38.912 32.8165 38.901 32.729 38.8885L32.17 38.7959C29.9974 38.3856 26.5123 37.1537 22.9035 33.545C19.2949 29.9363 18.0629 26.451 17.6526 24.2785L17.5599 23.7194L17.501 23.2308L17.4687 22.818C17.4652 22.7558 17.4625 22.697 17.4605 22.6417C17.3701 20.1862 19.2311 17.8282 21.4061 16.8961Z" fill="black"/>
<rect x="13.998" y="16.6797" width="29" height="23" fill="white"/>
<path d="M19.6059 18.3055C20.0681 18.0031 20.6805 17.9355 21.2208 18.2003C22.5395 18.8466 23.6687 19.8262 24.6625 20.8038L25.6131 21.7682C25.7647 21.9247 25.913 22.078 26.0583 22.2267C26.5901 22.7704 26.6862 23.6005 26.3061 24.2457L26.1617 24.4532L24.3029 26.4189C24.1188 26.6137 24.0986 26.9122 24.2666 27.1214C24.906 27.917 25.9992 29.0757 27.1597 29.8883C28.3215 30.7018 29.8562 31.3776 30.8924 31.75C31.1164 31.8305 31.3571 31.7502 31.4964 31.5694L31.5669 31.4493L32.5848 29.0843C32.993 28.2803 33.9621 27.9494 34.7748 28.3229L36.1868 28.9778C37.5935 29.6492 38.9654 30.3958 40.1309 31.4458C40.59 31.8594 40.7562 32.4766 40.6248 33.0372C40.085 35.3394 38.0848 37.5716 35.6544 37.9085L35.2834 37.952L34.8311 37.9864C34.7492 37.9909 34.664 37.9947 34.5758 37.9977L34.0091 38.0035C31.7983 37.9767 28.1522 37.3687 23.9716 34.4415C19.7911 31.5142 17.9727 28.2959 17.1914 26.2276L17.003 25.6931L16.8601 25.2221L16.7567 24.8212C16.7424 24.7606 16.7295 24.7031 16.7179 24.649C16.2025 22.2465 17.6259 19.6012 19.6059 18.3055Z" fill="#2871F0"/>
</svg>
