<svg width="81" height="81" viewBox="0 0 81 81" fill="none" xmlns="http://www.w3.org/2000/svg">
<rect width="80.64" height="80.64" rx="14" fill="white" fill-opacity="0.05"/>
<path d="M60.3516 16L61.788 19.642C61.9206 19.9782 61.9868 20.1463 62.0884 20.288C62.1783 20.4136 62.2884 20.5236 62.414 20.6136C62.5558 20.7151 62.7238 20.7814 63.0601 20.914L66.702 22.3504L63.0601 23.7868C62.7238 23.9194 62.5558 23.9856 62.414 24.0872C62.2884 24.1771 62.1783 24.2871 62.0884 24.4128C61.9868 24.5546 61.9206 24.7226 61.788 25.0588L60.3516 28.7008L58.9152 25.0588C58.7827 24.7226 58.7164 24.5546 58.6149 24.4128C58.5249 24.2871 58.4149 24.1771 58.2892 24.0872C58.1475 23.9856 57.9794 23.9194 57.6432 23.7868L54.0012 22.3504L57.6432 20.914C57.9794 20.7814 58.1475 20.7151 58.2892 20.6136C58.4149 20.5236 58.5249 20.4136 58.6149 20.288C58.7164 20.1463 58.7827 19.9782 58.9152 19.642L60.3516 16Z" stroke="#2871F0" stroke-width="1.176" stroke-linecap="round" stroke-linejoin="round"/>
<path d="M57.8842 20.9392L60.3538 16L62.2942 20.9392L66.3514 21.9976L62.2942 24.1144L60.3538 28.7008L58.4134 24.1144L54.3562 21.9976L57.8842 20.9392Z" fill="#2871F0"/>
<path d="M40.17 21.5L44.9579 33.6399C45.3999 34.7606 45.6207 35.3209 45.9592 35.7933C46.259 36.2121 46.6257 36.5788 47.0446 36.8788C47.5171 37.2171 48.0774 37.4381 49.1981 37.8801L61.338 42.668L49.1981 47.456C48.0774 47.8979 47.5171 48.1188 47.0446 48.4572C46.6257 48.7571 46.259 49.1238 45.9592 49.5427C45.6207 50.0152 45.3999 50.5754 44.9579 51.6962L40.17 63.836L35.382 51.6962C34.9401 50.5754 34.7191 50.0152 34.3807 49.5427C34.0808 49.1238 33.7141 48.7571 33.2953 48.4572C32.8228 48.1188 32.2625 47.8979 31.1419 47.456L19.002 42.668L31.1419 37.8801C32.2625 37.4381 32.8228 37.2171 33.2953 36.8788C33.7141 36.5788 34.0808 36.2121 34.3807 35.7933C34.7191 35.3209 34.9401 34.7606 35.382 33.6399L40.17 21.5Z" stroke="black" stroke-width="3.92" stroke-linecap="round" stroke-linejoin="round"/>
<path d="M31.9433 37.964L40.1754 21.5L46.6433 37.964L60.1674 41.492L46.6433 48.548L40.1754 63.836L33.7073 48.548L20.1833 41.492L31.9433 37.964Z" fill="black"/>
</svg>
