<svg width="80" height="80" viewBox="0 0 80 80" fill="none" xmlns="http://www.w3.org/2000/svg">
<path d="M61.3333 47.0026V55.3359L39.6666 63.6693L18 55.3359V47.0026L22.3333 48.6693L39.6666 55.3359L57 48.6693L61.3333 47.0026ZM61.3333 35.3359V43.6693L39.6666 52.0026L18 43.6693V35.3359L22.3333 37.0026L39.6666 43.6693L56.9999 37.0026L61.3333 35.3359Z" fill="black"/>
<mask id="mask0_4311_48776" style="mask-type:alpha" maskUnits="userSpaceOnUse" x="15" y="12" width="52" height="31">
<path d="M40.5 12.1797L15 23.1797V32.6797L39 42.1797L66.5 31.6797V23.1797L40.5 12.1797Z" fill="#D9D9D9"/>
</mask>
<g mask="url(#mask0_4311_48776)">
<path d="M39.6667 17L61.3334 25.3333V31.9999L39.6667 40.3333L18.0001 31.9999L18 25.3333L39.6667 17ZM61.3334 46.9999V55.3333L39.6667 63.6666L18.0001 55.3333V46.9999L22.3334 48.6666L39.6667 55.3333L57.0001 48.6666L61.3334 46.9999ZM61.3334 35.3333V43.6666L39.6667 51.9999L18.0001 43.6666V35.3333L22.3334 36.9999L39.6667 43.6666L57 36.9999L61.3334 35.3333Z" fill="black"/>
<path d="M39.6667 17L61.3334 25.3333V31.9999L39.6667 40.3333L18.0001 31.9999L18 25.3333L39.6667 17Z" fill="#2871F0"/>
</g>
</svg>
