<svg width="49" height="44" viewBox="0 0 49 44" fill="none" xmlns="http://www.w3.org/2000/svg">
<path d="M0.0324439 8.04688C2.33348 8.86448 5.03667 10.0786 7.28501 11.0844C7.26975 12.8993 7.20399 15.014 7.27176 16.8039C7.77369 16.9555 8.517 17.3367 9.03434 17.5511C9.47036 17.7319 9.99367 17.9283 10.4079 18.1202C10.405 16.1478 10.4245 14.1754 10.4665 12.2033C10.8636 12.4326 12.4942 13.0437 12.9819 13.2375L18.2908 15.3499L18.2847 34.4662L18.2934 40.4405C16.7496 39.8254 15.4526 39.0818 13.9845 38.4198L4.43142 34.1921L1.58304 32.9067C1.21937 32.7427 0.390618 32.3431 0.04261 32.2579C-0.0468921 29.6848 0.0329812 26.6284 0.0332272 24.0251L0.0324439 8.04688Z" fill="#232021"/>
<path fill-rule="evenodd" clip-rule="evenodd" d="M37.5155 8.14062C37.6134 8.28499 37.5449 13.155 37.5409 13.6914V16.0088L31.2313 19.3105C30.0745 19.9161 28.7032 20.6884 27.7118 21.1455C27.1148 21.4208 26.6914 21.9724 26.579 22.6201C26.4667 23.2679 26.6789 23.9304 27.1483 24.3906C28.1141 25.3375 29.0712 26.3273 30.0448 27.3408C31.0121 28.3476 32.0006 29.3808 33.0009 30.3799C33.6633 31.0416 34.7941 32.2928 35.6718 33.0762C36.1832 33.5326 36.8887 33.6918 37.5409 33.5098V34.2812C36.913 34.585 35.3076 35.013 34.622 35.2705L29.9764 37.0195C28.4806 37.5816 26.9326 38.1418 25.452 38.7324C24.0803 39.2796 22.4776 40.0587 21.0546 40.4492C21.0685 39.3547 21.0666 38.239 21.0565 37.1445C20.9901 29.8783 21.1521 22.5789 21.0477 15.3164C24.7471 13.8652 28.4522 12.0491 32.1434 10.5254C33.9171 9.79329 35.6605 8.76668 37.5155 8.14062Z" fill="#232021"/>
<path d="M39.1695 17.42C39.1854 17.4449 39.2045 17.4747 39.2267 17.5095C39.0748 18.6247 38.7864 20.3428 38.6163 21.3958C39.4735 21.6791 40.218 21.9087 41.024 22.3451C43.5765 23.7273 45.2886 26.0554 46.12 28.8148C46.8555 31.2574 46.6941 34.1413 45.4975 36.4104C44.2655 38.7457 41.7573 40.1811 39.2917 40.887C36.978 41.5329 34.6128 41.7624 32.2042 41.7435C31.326 41.7926 30.1325 41.8342 30.6115 40.5485C30.7414 40.2 32.5279 40.1534 32.9199 40.1066C34.0115 39.9807 35.0915 39.7686 36.1497 39.4722C38.616 38.6865 41.1346 37.3492 41.7062 34.5999C42.0081 33.168 41.7332 31.6747 40.941 30.4443C40.0672 29.1167 39.0832 28.5301 37.5409 28.2126C37.3528 29.2237 37.121 30.5786 37.0045 31.5898C36.1662 30.8415 35.2267 29.7809 34.4145 28.9695C32.45 27.0071 30.5296 24.9067 28.5504 22.9662C29.6003 22.4822 31.0972 21.6431 32.1594 21.0872L39.1695 17.42Z" fill="#2871F0"/>
<path d="M27.9846 3.61825C28.5473 3.56082 34.07 5.85279 35.238 6.07604C34.469 6.46336 33.288 6.93125 32.48 7.27991L27.3612 9.48052C26.6188 9.7965 25.9467 10.1954 25.2451 10.5007C23.5554 11.2363 21.8578 11.9628 20.1671 12.6978L19.6096 12.9037C17.4833 11.9814 15.2318 11.2161 13.0877 10.2694C13.5901 9.91598 14.4502 9.57656 15.0375 9.31907L17.6718 8.16264L27.9846 3.61825Z" fill="#232021"/>
<path d="M17.9304 0.00174137C18.3137 -0.0703704 23.5479 2.12043 24.5481 2.25206C24.4239 2.31717 24.29 2.3855 24.1622 2.44273L14.5345 6.67511L11.4554 8.04264C10.8951 8.2913 10.3067 8.56566 9.7288 8.76918C9.52095 8.84238 9.37004 8.76752 9.16526 8.68936C7.13149 7.75663 4.57163 6.88676 2.4502 5.98898C7.58909 4.01108 12.8295 2.03794 17.9304 0.00174137Z" fill="#232021"/>
</svg>
