<svg width="48" height="43" viewBox="0 0 48 43" fill="none" xmlns="http://www.w3.org/2000/svg">
<path d="M0.0324439 8.04688C2.33348 8.86448 5.03667 10.0786 7.28501 11.0844C7.26975 12.8993 7.20399 15.014 7.27176 16.8039C7.77369 16.9555 8.517 17.3367 9.03434 17.5511C9.47036 17.7319 9.99367 17.9283 10.4079 18.1202C10.405 16.1478 10.4245 14.1754 10.4665 12.2033C10.8636 12.4326 12.4942 13.0437 12.9819 13.2375L18.2908 15.3499L18.2847 34.4662L18.2934 40.4405C16.7496 39.8254 15.4526 39.0818 13.9845 38.4198L4.43142 34.1921L1.58304 32.9067C1.21937 32.7427 0.390618 32.3431 0.04261 32.2579C-0.0468921 29.6848 0.0329812 26.6284 0.0332272 24.0251L0.0324439 8.04688Z" fill="#232021"/>
<path fill-rule="evenodd" clip-rule="evenodd" d="M37.5155 8.14062C37.6134 8.28499 37.5449 13.155 37.5409 13.6914V16C35.9999 16.3314 34.4755 16.7915 32.9823 17.4258L32.9706 17.4316C30.368 18.5574 27.5018 20.6143 26.3134 23.8096L26.3124 23.8105C25.2148 26.7643 25.4931 30.191 26.7264 32.9385C27.4355 34.5175 28.4128 35.9521 29.6454 37.1426C28.253 37.6632 26.8237 38.1852 25.452 38.7324C24.0803 39.2796 22.4776 40.0587 21.0546 40.4492C21.0685 39.3547 21.0666 38.239 21.0565 37.1445C20.9901 29.8783 21.1521 22.5789 21.0477 15.3164C24.7471 13.8652 28.4522 12.0491 32.1434 10.5254C33.9171 9.79329 35.6605 8.76668 37.5155 8.14062ZM37.5409 26.2158C37.1179 26.1498 36.6769 26.2197 36.286 26.4297C35.6281 26.7832 35.2213 27.4739 35.2323 28.2207C35.2349 28.3982 35.2339 28.5889 35.2323 28.7881C35.1552 28.7112 35.0743 28.6258 34.9911 28.5293C34.3952 27.8159 34.1019 26.8969 34.1747 25.9697V25.9639C34.2899 24.4426 35.4918 23.2776 37.5409 22.2559V26.2158Z" fill="#232021"/>
<path d="M36.9154 42.5217C36.8964 42.4992 36.8737 42.472 36.8472 42.4404C36.8538 41.3149 36.9179 39.5739 36.9506 38.5078C36.064 38.3376 35.296 38.2061 34.4405 37.8774C31.7308 36.8364 29.7324 34.7489 28.5516 32.12C27.5068 29.7929 27.2944 26.9122 28.188 24.5077C29.1081 22.0328 31.4099 20.2854 33.7637 19.2671C35.9746 18.3278 38.2904 17.7948 40.6812 17.5025C41.5457 17.3404 42.7239 17.145 42.4149 18.4817C42.3311 18.8441 40.5656 19.121 40.1829 19.218C39.1167 19.4839 38.0732 19.8337 37.0621 20.2642C34.7179 21.3619 32.3931 23.0132 32.1814 25.8133C32.0668 27.2722 32.5323 28.7175 33.4768 29.8353C34.5147 31.0389 35.5662 31.4935 37.1366 31.6092C37.1926 30.5823 37.2474 29.2088 37.2324 28.1911C38.1603 28.8248 39.2289 29.7552 40.1391 30.4549C42.3405 32.1472 44.5161 33.982 46.7293 35.6507C45.7507 36.2662 44.3747 37.2916 43.3932 37.98L36.9154 42.5217Z" fill="#2871F0"/>
<path d="M27.9846 3.61825C28.5473 3.56082 34.07 5.85279 35.238 6.07604C34.469 6.46336 33.288 6.93125 32.48 7.27991L27.3612 9.48052C26.6188 9.7965 25.9467 10.1954 25.2451 10.5007C23.5554 11.2363 21.8578 11.9628 20.1671 12.6978L19.6096 12.9037C17.4833 11.9814 15.2318 11.2161 13.0877 10.2694C13.5901 9.91598 14.4502 9.57656 15.0375 9.31907L17.6718 8.16264L27.9846 3.61825Z" fill="#232021"/>
<path d="M17.9304 0.00174137C18.3137 -0.0703704 23.5479 2.12043 24.5481 2.25206C24.4239 2.31717 24.29 2.3855 24.1622 2.44273L14.5345 6.67511L11.4554 8.04264C10.8951 8.2913 10.3067 8.56566 9.7288 8.76918C9.52095 8.84238 9.37004 8.76752 9.16526 8.68936C7.13149 7.75663 4.57163 6.88676 2.4502 5.98898C7.58909 4.01108 12.8295 2.03794 17.9304 0.00174137Z" fill="#232021"/>
</svg>
