<svg width="47" height="43" viewBox="0 0 47 43" fill="none" xmlns="http://www.w3.org/2000/svg">
<path d="M0.0325049 8.04688C2.33354 8.86448 5.03673 10.0786 7.28507 11.0844C7.26981 12.8993 7.20405 15.014 7.27182 16.8039C7.77375 16.9555 8.51706 17.3367 9.0344 17.5511C9.47042 17.7319 9.99373 17.9283 10.408 18.1202C10.4051 16.1478 10.4246 14.1754 10.4665 12.2033C10.8637 12.4326 12.4943 13.0437 12.9819 13.2375L18.2909 15.3499L18.2847 34.4662L18.2935 40.4405C16.7497 39.8254 15.4526 39.0818 13.9846 38.4198L4.43148 34.1921L1.5831 32.9067C1.21943 32.7427 0.390679 32.3431 0.042671 32.2579C-0.0468311 29.6848 0.0330422 26.6284 0.0332882 24.0251L0.0325049 8.04688Z" fill="#232021"/>
<path fill-rule="evenodd" clip-rule="evenodd" d="M37.5156 8.14062C37.6134 8.28499 37.5449 13.155 37.541 13.6914V15.2998C37.0714 15.2137 36.5741 15.294 36.1455 15.5537L35.9863 15.6611L29.6406 20.3867C28.5934 21.1669 27.3612 22.1454 26.454 22.7529C25.9079 23.1188 25.5763 23.7303 25.5673 24.3877C25.5584 25.0451 25.8731 25.6653 26.4091 26.0459C27.5119 26.8289 28.6123 27.6563 29.7333 28.5039C30.847 29.3459 31.9857 30.2109 33.1308 31.04C33.8892 31.5893 35.2033 32.6468 36.1933 33.2822C36.5998 33.5431 37.0783 33.6424 37.541 33.5801V34.2812C36.913 34.585 35.3076 35.013 34.622 35.2705L29.9765 37.0195C28.4807 37.5816 26.9326 38.1418 25.4521 38.7324C24.0804 39.2796 22.4776 40.0587 21.0546 40.4492C21.0685 39.3547 21.0666 38.239 21.0566 37.1445C20.9902 29.8783 21.1522 22.5789 21.0478 15.3164C24.7472 13.8652 28.4522 12.0491 32.1435 10.5254C33.9171 9.79329 35.6606 8.76668 37.5156 8.14062Z" fill="#232021"/>
<path d="M37.1806 17.2656C37.2003 17.2877 37.2238 17.3141 37.2512 17.345C37.2768 18.4702 37.2625 20.2123 37.2604 21.2789C38.1515 21.4237 38.9229 21.5332 39.7875 21.8373C42.5258 22.8003 44.5832 24.8297 45.8387 27.4238C46.9497 29.72 47.2444 32.5934 46.4201 35.0226C45.5711 37.5228 43.3203 39.3353 40.9966 40.4206C38.8135 41.4228 36.5139 42.0218 34.1324 42.3824C33.2729 42.5692 32.1008 42.7982 32.3714 41.4532C32.4448 41.0886 34.2017 40.7612 34.5814 40.6533C35.6396 40.3571 36.6727 39.9775 37.671 39.5182C39.9828 38.3539 42.2594 36.6367 42.3909 33.8317C42.4637 32.3701 41.957 30.9388 40.9809 29.8485C39.909 28.675 38.8449 28.2507 37.2718 28.18C37.2453 29.2081 37.2298 30.5826 37.2739 31.5995C36.3282 30.9926 35.2335 30.0931 34.3036 29.4198C32.0546 27.7912 29.8274 26.0194 27.5674 24.4148C28.528 23.7714 29.8741 22.7071 30.8355 21.9909L37.1806 17.2656Z" fill="#2871F0"/>
<path d="M27.9846 3.61825C28.5472 3.56082 34.0699 5.85279 35.2379 6.07604C34.4689 6.46336 33.2879 6.93125 32.4799 7.27991L27.3611 9.48052C26.6187 9.7965 25.9467 10.1954 25.2451 10.5007C23.5553 11.2363 21.8578 11.9628 20.167 12.6978L19.6095 12.9037C17.4832 11.9814 15.2318 11.2161 13.0876 10.2694C13.5901 9.91598 14.4502 9.57656 15.0375 9.31907L17.6717 8.16264L27.9846 3.61825Z" fill="#232021"/>
<path d="M17.9304 0.00174137C18.3137 -0.0703704 23.5479 2.12043 24.5481 2.25206C24.4239 2.31717 24.29 2.3855 24.1622 2.44273L14.5345 6.67511L11.4554 8.04264C10.8951 8.2913 10.3067 8.56566 9.7288 8.76918C9.52095 8.84238 9.37004 8.76752 9.16526 8.68936C7.13149 7.75663 4.57163 6.88676 2.4502 5.98898C7.58909 4.01108 12.8295 2.03794 17.9304 0.00174137Z" fill="#232021"/>
</svg>
