<svg width="64" height="64" viewBox="0 0 64 64" fill="none" xmlns="http://www.w3.org/2000/svg">
<path d="M8.83158 18.4453C11.1326 19.2629 13.8358 20.4771 16.0841 21.4829C16.0689 23.2977 16.0031 25.4125 16.0709 27.2023C16.5728 27.354 17.3161 27.7351 17.8335 27.9496C18.2695 28.1303 18.7928 28.3267 19.207 28.5186C19.2042 26.5462 19.2236 24.5738 19.2656 22.6018C19.6628 22.8311 21.2934 23.4421 21.781 23.6359L27.0899 25.7483L27.0838 44.8646L27.0925 50.839C25.5487 50.2238 24.2517 49.4803 22.7837 48.8183L13.2306 44.5905L10.3822 43.3051C10.0185 43.1412 9.18975 42.7416 8.84174 42.6563C8.75224 40.0832 8.83211 37.0268 8.83236 34.4235L8.83158 18.4453Z" fill="#232021"/>
<path fill-rule="evenodd" clip-rule="evenodd" d="M46.3146 18.5391C46.4125 18.6834 46.344 23.5534 46.34 24.0898V29.8301C44.9313 29.8329 43.5085 30.0772 42.1135 30.6006C41.7059 30.7535 41.3329 30.9248 40.9865 31.1016C40.4706 30.483 39.9228 29.8298 39.4924 29.3389C39.2191 29.0271 38.8556 28.8092 38.4553 28.7129L38.2824 28.6797L38.174 28.6641C37.2124 28.5227 36.2986 29.0914 35.9904 29.9941L35.9367 30.1787L34.1057 37.876C33.8037 39.1462 33.4873 40.6873 33.1818 41.7354C32.998 42.3666 33.1358 43.0488 33.551 43.5586C33.9661 44.0682 34.6057 44.3413 35.2609 44.2891C36.6091 44.1814 37.9842 44.1099 39.3879 44.04C40.7823 43.9706 42.211 43.9021 43.6213 43.8027C44.2953 43.7553 45.3606 43.7233 46.34 43.6543V44.6797C45.7121 44.9835 44.1067 45.4114 43.4211 45.6689L38.7756 47.418C37.2797 47.98 35.7317 48.5402 34.2512 49.1309C32.8794 49.6781 31.2767 50.4571 29.8537 50.8477C29.8676 49.7532 29.8657 48.6374 29.8557 47.543C29.7892 40.2768 29.9512 32.9773 29.8469 25.7148C33.5463 24.2636 37.2513 22.4476 40.9426 20.9238C42.7162 20.1917 44.4597 19.1651 46.3146 18.5391Z" fill="#232021"/>
<path d="M37.883 30.6409C37.9122 30.6452 37.9472 30.6504 37.988 30.6565C38.73 31.5028 39.8375 32.8476 40.5206 33.6668C41.2967 33.2057 41.9585 32.7945 42.8166 32.4725C45.5344 31.4529 48.4147 31.6881 51.0426 32.871C53.3686 33.9183 55.4392 35.9322 56.3667 38.3239C57.3209 40.7859 56.7588 43.6205 55.6738 45.9445C54.6434 48.1144 53.2649 50.05 51.6705 51.8554C51.1313 52.5504 50.3797 53.4784 49.7237 52.2734C49.5459 51.9467 50.6828 50.5679 50.9046 50.2413C51.5258 49.3349 52.0742 48.3806 52.5447 47.3876C53.5698 45.0107 54.2129 42.2326 52.513 39.9975C51.6304 38.8302 50.3231 38.058 48.8747 37.8487C47.2995 37.6371 46.2112 37.995 44.9598 38.9506C45.5994 39.7559 46.47 40.8197 47.1566 41.5711C46.0419 41.7129 44.6251 41.7261 43.4799 41.8067C40.7101 42.0019 37.865 42.0733 35.102 42.2939C35.4255 41.1839 35.7743 39.5037 36.0516 38.3374L37.883 30.6409Z" fill="#2871F0"/>
<path d="M36.7836 14.0167C37.3463 13.9593 42.869 16.2512 44.037 16.4745C43.268 16.8618 42.087 17.3297 41.279 17.6784L36.1602 19.879C35.4178 20.1949 34.7457 20.5938 34.0442 20.8992C32.3544 21.6347 30.6569 22.3612 28.9661 23.0962L28.4086 23.3021C26.2823 22.3799 24.0308 21.6146 21.8867 20.6678C22.3892 20.3144 23.2492 19.975 23.8366 19.7175L26.4708 18.5611L36.7836 14.0167Z" fill="#232021"/>
<path d="M26.7295 10.4002C27.1128 10.3281 32.347 12.5189 33.3472 12.6505C33.2229 12.7156 33.0891 12.7839 32.9613 12.8412L23.3336 17.0735L20.2545 18.4411C19.6942 18.6897 19.1058 18.9641 18.5279 19.1676C18.32 19.2408 18.1691 19.166 17.9643 19.0878C15.9306 18.1551 13.3707 17.2852 11.2493 16.3874C16.3882 14.4095 21.6286 12.4364 26.7295 10.4002Z" fill="#232021"/>
</svg>
