<svg width="51" height="41" viewBox="0 0 51 41" fill="none" xmlns="http://www.w3.org/2000/svg">
<path d="M0.0324439 8.04688C2.33348 8.86448 5.03667 10.0786 7.28501 11.0844C7.26975 12.8993 7.20399 15.014 7.27176 16.8039C7.77369 16.9555 8.517 17.3367 9.03434 17.5511C9.47036 17.7319 9.99367 17.9283 10.4079 18.1202C10.405 16.1478 10.4245 14.1754 10.4665 12.2033C10.8636 12.4326 12.4942 13.0437 12.9819 13.2375L18.2908 15.3499L18.2847 34.4662L18.2934 40.4405C16.7496 39.8254 15.4526 39.0818 13.9845 38.4198L4.43142 34.1921L1.58304 32.9067C1.21937 32.7427 0.390618 32.3431 0.04261 32.2579C-0.0468921 29.6848 0.0329812 26.6284 0.0332272 24.0251L0.0324439 8.04688Z" fill="#232021"/>
<path fill-rule="evenodd" clip-rule="evenodd" d="M37.5156 8.14062C37.6134 8.28499 37.5449 13.155 37.541 13.6914V18.1943C35.9221 18.4448 34.3604 19.0067 33.0117 19.8076C30.144 21.511 27.921 24.1414 27.0449 27.5303C26.9359 27.9518 26.8619 28.3561 26.8076 28.7412C26.005 28.8082 25.1559 28.8818 24.5068 28.9521C24.0947 28.9968 23.7071 29.1681 23.3984 29.4404L23.2714 29.5635L23.1962 29.6436C22.5282 30.3495 22.4693 31.4245 23.0312 32.1953L23.1513 32.3447L27.9619 37.7705C27.1181 38.0853 26.2747 38.4042 25.4521 38.7324C24.0804 39.2796 22.4776 40.0587 21.0546 40.4492C21.0685 39.3547 21.0666 38.239 21.0566 37.1445C20.9902 29.8783 21.1522 22.5789 21.0478 15.3164C24.7472 13.8652 28.4522 12.0491 32.1435 10.5254C33.9171 9.79329 35.6606 8.76668 37.5156 8.14062Z" fill="#232021"/>
<path d="M24.6484 31.0154C24.6687 30.9939 24.693 30.9683 24.7215 30.9383C25.8404 30.8171 27.5774 30.6831 28.6404 30.5945C28.7088 29.6943 28.7523 28.9164 28.9817 28.029C29.7083 25.2187 31.5554 22.9962 34.0332 21.5245C36.2266 20.2222 39.0645 19.6841 41.555 20.2988C44.1184 20.932 46.1157 23.0205 47.3948 25.2435C48.5791 27.3334 49.3716 29.5737 49.9335 31.9159C50.1927 32.7564 50.5206 33.9047 49.1574 33.7495C48.7879 33.7074 48.3123 31.9848 48.1724 31.6156C47.7872 30.5864 47.3212 29.5894 46.7786 28.6338C45.4218 26.4294 43.5173 24.3071 40.7112 24.4147C39.2487 24.4666 37.8657 25.0931 36.8624 26.1584C35.7843 27.3263 35.4521 28.4227 35.5154 29.996C36.5421 29.935 37.9129 29.8335 38.9224 29.703C38.3981 30.6969 37.595 31.8642 37.0032 32.848C35.5719 35.2274 33.996 37.5972 32.5894 39.9856C31.8667 39.0832 30.6918 37.8325 29.8963 36.9356L24.6484 31.0154Z" fill="#2871F0"/>
<path d="M27.9846 3.61825C28.5473 3.56082 34.07 5.85279 35.238 6.07604C34.469 6.46336 33.288 6.93125 32.48 7.27991L27.3612 9.48052C26.6188 9.7965 25.9467 10.1954 25.2451 10.5007C23.5554 11.2363 21.8578 11.9628 20.1671 12.6978L19.6096 12.9037C17.4833 11.9814 15.2318 11.2161 13.0877 10.2694C13.5901 9.91598 14.4502 9.57656 15.0375 9.31907L17.6718 8.16264L27.9846 3.61825Z" fill="#232021"/>
<path d="M17.9304 0.00174137C18.3137 -0.0703704 23.5479 2.12043 24.5481 2.25206C24.4239 2.31717 24.29 2.3855 24.1622 2.44273L14.5345 6.67511L11.4554 8.04264C10.8951 8.2913 10.3067 8.56566 9.7288 8.76918C9.52095 8.84238 9.37004 8.76752 9.16526 8.68936C7.13149 7.75663 4.57163 6.88676 2.4502 5.98898C7.58909 4.01108 12.8295 2.03794 17.9304 0.00174137Z" fill="#232021"/>
</svg>
