<svg width="51" height="41" viewBox="0 0 51 41" fill="none" xmlns="http://www.w3.org/2000/svg">
<path d="M0.0324439 8.04688C2.33348 8.86448 5.03667 10.0786 7.28501 11.0844C7.26975 12.8993 7.20399 15.014 7.27176 16.8039C7.77369 16.9555 8.517 17.3367 9.03434 17.5511C9.47036 17.7319 9.99367 17.9283 10.4079 18.1202C10.405 16.1478 10.4245 14.1754 10.4665 12.2033C10.8636 12.4326 12.4942 13.0437 12.9819 13.2375L18.2908 15.3499L18.2847 34.4662L18.2934 40.4405C16.7496 39.8254 15.4526 39.0818 13.9845 38.4198L4.43142 34.1921L1.58304 32.9067C1.21937 32.7427 0.390618 32.3431 0.04261 32.2579C-0.0468921 29.6848 0.0329812 26.6284 0.0332272 24.0251L0.0324439 8.04688Z" fill="#232021"/>
<path fill-rule="evenodd" clip-rule="evenodd" d="M37.5155 8.14062C37.6134 8.28499 37.5449 13.155 37.5409 13.6914V24.5732C37.1967 24.9471 36.8535 25.3222 36.5155 25.6992C35.8904 26.3965 34.7025 27.5941 33.9677 28.5127C33.5012 29.0959 33.3981 29.8906 33.7011 30.5732C34.004 31.2558 34.6618 31.7133 35.4071 31.7588C35.5844 31.7696 35.7749 31.7842 35.9735 31.8008C35.891 31.8719 35.7996 31.9458 35.6972 32.0215C34.9408 32.562 34.0021 32.7861 33.0829 32.6436L33.078 32.6426C31.4909 32.4011 30.3874 30.9901 29.4999 28.668C29.1845 27.7346 28.9409 26.7779 28.7753 25.8066L28.7743 25.7988C28.7737 25.7946 28.7681 25.7635 28.7577 25.6826C28.7458 25.5902 28.7384 25.5166 28.7216 25.3848C28.6922 25.1548 28.6509 24.8552 28.5985 24.5547C28.5491 24.2716 28.4747 23.9039 28.3593 23.5654C28.3031 23.401 28.2087 23.1545 28.0516 22.9062C27.9348 22.7216 27.6042 22.2445 26.9657 21.999L26.8339 21.9531C26.2974 21.7857 25.5427 21.6609 24.7694 21.9639C23.9093 22.301 23.467 22.9856 23.2704 23.5439C23.0925 24.0493 23.0748 24.5429 23.079 24.8584C23.083 25.1591 23.1137 25.4523 23.1366 25.6641C23.257 28.1875 23.6364 30.7115 24.4745 33.1885L24.4784 33.2012C25.0426 34.8332 25.9446 36.588 27.2626 38.0332C26.6534 38.2628 26.0472 38.495 25.452 38.7324C24.0803 39.2796 22.4776 40.0587 21.0546 40.4492C21.0685 39.3547 21.0666 38.239 21.0565 37.1445C20.9901 29.8783 21.1521 22.5789 21.0477 15.3164C24.7471 13.8652 28.4522 12.0491 32.1434 10.5254C33.9171 9.79329 35.6605 8.76668 37.5155 8.14062Z" fill="#232021"/>
<path d="M49.7942 31.155C49.7703 31.1723 49.7415 31.1929 49.708 31.2169C48.5862 31.1256 46.855 30.9305 45.7944 30.8176C45.5578 31.6889 45.3688 32.4447 44.9766 33.2731C43.7345 35.8966 41.5024 37.7322 38.792 38.7115C36.3928 39.5781 33.5044 39.5729 31.1739 38.5007C28.7754 37.3968 27.2064 34.97 26.3682 32.5461C25.5981 30.2707 25.2411 27.9213 25.1297 25.5153C25.0332 24.641 24.9271 23.4515 26.2368 23.8603C26.5918 23.9711 26.7349 25.7525 26.8029 26.1414C26.9876 27.2246 27.2579 28.2916 27.611 29.3321C28.529 31.7524 30.0005 34.195 32.7767 34.617C34.2228 34.8411 35.699 34.4858 36.8848 33.6282C38.1632 32.684 38.6957 31.6696 38.9294 30.1125C37.9096 29.9793 36.5441 29.8212 35.5281 29.7595C36.23 28.8819 37.2383 27.8864 38.0045 27.0315C39.8578 24.9638 41.8512 22.9326 43.6819 20.8514C44.222 21.8736 45.1408 23.3229 45.7534 24.3535L49.7942 31.155Z" fill="#2871F0"/>
<path d="M27.9846 3.61825C28.5473 3.56082 34.07 5.85279 35.238 6.07604C34.469 6.46336 33.288 6.93125 32.48 7.27991L27.3612 9.48052C26.6188 9.7965 25.9467 10.1954 25.2451 10.5007C23.5554 11.2363 21.8578 11.9628 20.1671 12.6978L19.6096 12.9037C17.4833 11.9814 15.2318 11.2161 13.0877 10.2694C13.5901 9.91598 14.4502 9.57656 15.0375 9.31907L17.6718 8.16264L27.9846 3.61825Z" fill="#232021"/>
<path d="M17.9304 0.00174137C18.3137 -0.0703704 23.5479 2.12043 24.5481 2.25206C24.4239 2.31717 24.29 2.3855 24.1622 2.44273L14.5345 6.67511L11.4554 8.04264C10.8951 8.2913 10.3067 8.56566 9.7288 8.76918C9.52095 8.84238 9.37004 8.76752 9.16526 8.68936C7.13149 7.75663 4.57163 6.88676 2.4502 5.98898C7.58909 4.01108 12.8295 2.03794 17.9304 0.00174137Z" fill="#232021"/>
</svg>
